<svg width="212" height="211" viewBox="0 0 212 211" fill="none" xmlns="http://www.w3.org/2000/svg">
<path d="M181.086 176.891C185.458 170.864 188.632 163.823 190.185 156.044C195.952 127.168 177.219 99.0857 148.344 93.3191C119.469 87.5524 91.3861 106.286 85.6195 135.16C84.0658 142.939 84.2916 150.66 86.0133 157.903L181.086 176.89V176.891Z" fill="#B5F7EB"/>
<path d="M187.393 125.757C182.634 126.11 175.892 125.703 166.807 123.239C148.978 118.403 129.398 103.69 112.716 98.6094C100.411 105.214 90.7742 116.582 86.6822 130.795C92.669 127.541 101.11 124.423 112.04 123.818C136.395 122.47 160.854 134.455 174.688 136.33C180.577 137.128 185.98 136.44 190.243 135.387C189.595 132.075 188.637 128.852 187.393 125.758V125.757ZM176.003 158.284C167.515 156.194 140.446 134.73 114.737 135.836C100.367 136.454 90.5801 139.182 84.7431 141.468C84.2986 147.092 84.7586 152.625 86.0134 157.903L181.086 176.89C185.337 171.031 188.456 164.21 190.053 156.686C185.565 158.143 180.134 159.301 176.003 158.284Z" fill="#52E8CD"/>
<path d="M73.6446 50.471V50.4457C73.6432 50.4499 73.6418 50.4542 73.6411 50.4584C73.6397 50.4542 73.6383 50.4499 73.6376 50.4457V50.471C73.3063 51.673 72.5404 52.5325 71.3398 53.0495C72.5404 53.5664 73.3063 54.4259 73.6376 55.6279V55.6532C73.639 55.649 73.6404 55.6448 73.6411 55.6405C73.6425 55.6448 73.6439 55.649 73.6446 55.6532V55.6279C73.9759 54.4259 74.7418 53.5664 75.9424 53.0495C74.7418 52.5325 73.9759 51.673 73.6446 50.471ZM167.158 30.1757V30.1503C167.157 30.1546 167.156 30.1588 167.155 30.163C167.153 30.1588 167.152 30.1546 167.151 30.1503V30.1757C166.82 31.3777 166.054 32.2371 164.854 32.7541C166.054 33.271 166.82 34.1305 167.151 35.3325V35.3578C167.153 35.3536 167.154 35.3494 167.155 35.3452C167.156 35.3494 167.158 35.3536 167.158 35.3578V35.3325C167.49 34.1305 168.256 33.271 169.456 32.7541C168.256 32.2371 167.49 31.3777 167.158 30.1757ZM180.108 75.3493V75.324C180.107 75.3283 180.105 75.3325 180.105 75.3367C180.103 75.3325 180.102 75.3283 180.101 75.324V75.3493C179.77 76.5513 179.004 77.4108 177.803 77.9278C179.004 78.4447 179.77 79.3042 180.101 80.5062V80.5315C180.103 80.5273 180.104 80.5231 180.105 80.5188C180.106 80.5231 180.107 80.5273 180.108 80.5315V80.5062C180.439 79.3042 181.205 78.4447 182.406 77.9278C181.205 77.4108 180.439 76.5513 180.108 75.3493ZM20.1666 123.834V123.809C20.1652 123.813 20.1638 123.817 20.1631 123.822C20.1617 123.817 20.1603 123.813 20.1596 123.809V123.834C19.8283 125.036 19.0624 125.896 17.8618 126.413C19.0624 126.93 19.8283 127.789 20.1596 128.991V129.016C20.161 129.012 20.1624 129.008 20.1631 129.004C20.1645 129.008 20.1659 129.012 20.1666 129.016V128.991C20.4979 127.789 21.2638 126.93 22.4644 126.413C21.2638 125.896 20.4979 125.036 20.1666 123.834ZM186.325 38.7711V38.7198C186.323 38.7289 186.32 38.7366 186.318 38.7458C186.316 38.7366 186.313 38.7289 186.311 38.7198V38.7711C185.648 41.1744 184.116 42.894 181.715 43.9279C184.116 44.9618 185.648 46.6815 186.311 49.0848V49.1361C186.313 49.127 186.316 49.1192 186.318 49.1101C186.32 49.1192 186.323 49.127 186.325 49.1361V49.0848C186.987 46.6815 188.519 44.9618 190.92 43.9279C188.519 42.894 186.988 41.1744 186.325 38.7711ZM67.6944 105.551V105.5C67.6923 105.509 67.6895 105.517 67.6874 105.526C67.6852 105.517 67.6824 105.509 67.6803 105.5V105.551C67.0178 107.954 65.4859 109.674 63.0847 110.708C65.4859 111.742 67.0171 113.462 67.6803 115.865V115.916C67.6824 115.907 67.6852 115.899 67.6874 115.89C67.6895 115.899 67.6923 115.907 67.6944 115.916V115.865C68.3569 113.462 69.8888 111.742 72.29 110.708C69.8888 109.674 68.3576 107.954 67.6944 105.551ZM55.4311 27.5972V27.5459C55.429 27.555 55.4261 27.5628 55.424 27.5719C55.4219 27.5628 55.4191 27.555 55.417 27.5459V27.5972C54.7545 30.0005 53.2226 31.7202 50.8214 32.7541C53.2226 33.788 54.7538 35.5076 55.417 37.9109V37.9623C55.4191 37.9531 55.4219 37.9454 55.424 37.9362C55.4261 37.9454 55.429 37.9531 55.4311 37.9623V37.9109C56.0936 35.5076 57.6255 33.788 60.0266 32.7541C57.6255 31.7202 56.0943 30.0005 55.4311 27.5972Z" fill="#B5F7EB"/>
<path d="M131.25 58.9441C142.067 58.9441 150.836 50.175 150.836 39.3577C150.836 28.5404 142.067 19.7712 131.25 19.7712C120.432 19.7712 111.663 28.5404 111.663 39.3577C111.663 50.175 120.432 58.9441 131.25 58.9441Z" fill="#B5F7EB"/>
<path d="M135.11 20.1526C135.226 23.0946 135.029 26.1639 134.048 28.2339C131.591 33.4202 127.77 35.0583 119.034 39.3578C115.456 41.1189 113.992 44.4014 113.509 47.6649C114.9 50.6315 117.014 53.1916 119.622 55.1195C120.212 52.6543 121.325 49.9106 123.401 47.6149C128.588 41.882 136.504 47.342 145.662 42.7014C148.09 41.4713 149.68 39.4358 150.707 37.1078C149.737 28.6326 143.36 21.8012 135.11 20.1519L135.11 20.1526Z" fill="#52E8CD"/>
<path d="M39.3542 104.093C48.3202 104.093 55.5886 96.8248 55.5886 87.8589C55.5886 78.8929 48.3202 71.6245 39.3542 71.6245C30.3882 71.6245 23.1199 78.8929 23.1199 87.8589C23.1199 96.8248 30.3882 104.093 39.3542 104.093Z" fill="#B5F7EB"/>
<path d="M14.7755 102.275C13.3351 102.275 12.4925 101.957 12.2069 101.309C11.7997 100.382 12.6697 99.0539 14.8662 97.2463C16.8215 95.6371 19.7938 93.6917 23.4617 91.619C23.6305 91.5233 23.845 91.5831 23.9406 91.7519C24.0363 91.9207 23.9765 92.1352 23.8077 92.2309C20.175 94.2839 17.2372 96.2061 15.3128 97.7893C12.6655 99.9675 12.759 100.816 12.8505 101.025C12.9616 101.279 13.9167 102.436 21.8039 100.357C27.3173 98.9041 34.3732 96.3362 41.671 93.1262C48.9687 89.9169 55.63 86.4523 60.4275 83.3703C67.2899 78.9625 67.0824 77.4763 66.9706 77.2231C66.8798 77.0163 66.3242 76.3791 62.9827 76.8419C60.5526 77.1788 57.1977 78.0249 53.2816 79.2902C53.0966 79.35 52.8983 79.2487 52.8392 79.0638C52.7794 78.8788 52.8807 78.6804 53.0657 78.6214C57.0205 77.3441 60.4162 76.4874 62.8863 76.1456C65.6631 75.7609 67.2097 76.0211 67.6141 76.9404C67.9405 77.6824 67.4538 78.6713 66.1259 79.9633C64.9562 81.1013 63.1669 82.4468 60.8073 83.9625C55.9796 87.0635 49.2838 90.5464 41.9537 93.7705C34.6236 96.9945 27.5311 99.5751 21.9826 101.037C19.2705 101.752 17.0691 102.162 15.4401 102.255C15.2059 102.268 14.9837 102.275 14.7748 102.275H14.7755Z" fill="#52E8CD"/>
<path d="M202.689 189.841C177.082 166.762 143.178 152.713 105.99 152.713C68.8029 152.713 34.898 166.762 9.29175 189.841" fill="#D9DBE1"/>
<path d="M129.969 189.841H202.689C185.695 174.524 165.046 163.184 142.207 157.29C145.025 164.14 147.094 171.417 146.046 176.453C145.293 180.067 138.669 187.608 129.969 189.841Z" fill="#A3A4A6"/>
<path d="M23.4498 178.595V172.702C23.4498 172.702 31.2913 164.15 40.6969 158.877C56.8462 149.824 65.1329 150.914 65.1329 150.914L76.6232 155.701C76.6232 155.701 69.023 166.404 53.665 174.171C42.4609 179.837 32.9884 182.001 32.9884 182.001L23.4491 178.596L23.4498 178.595ZM132.18 155.087C132.18 155.087 140.791 152.713 142.023 152.713C145.656 152.713 151.402 153.374 164.542 159.468C177.682 165.561 185.52 172.25 185.52 172.25L190.207 179.781C190.207 179.781 176.523 183.171 159.882 175.199C146.849 168.956 140.749 164.919 136.741 160.65C134.273 158.022 132.182 155.086 132.182 155.086L132.18 155.087Z" fill="#D9DBE1"/>
<path d="M143.481 153.661C143.481 153.661 144.01 158.248 158.398 165.833C175.343 174.767 183.32 172.772 183.32 172.772C183.32 172.772 177.558 167.127 165.326 160.894C153.095 154.662 143.481 153.662 143.481 153.662V153.661ZM25.2743 172.359C25.2743 172.359 34.6434 172.162 47.5622 164.863C60.4818 157.566 63.8796 151.648 63.8796 151.648C63.8796 151.648 52.1149 153.163 41.0536 159.834C29.9923 166.505 25.2743 172.359 25.2743 172.359Z" fill="#A3A4A6"/>
</svg>
