<svg width="193" height="185" viewBox="0 0 193 185" fill="none" xmlns="http://www.w3.org/2000/svg">
<g clip-path="url(#clip0_22_3688)">
<path d="M96.5 22.7466C84.28 22.7466 72.3343 26.3702 62.1738 33.1593C52.0132 39.9484 44.094 49.598 39.4176 60.8878C34.7412 72.1777 33.5176 84.6007 35.9016 96.5859C38.2856 108.571 44.1701 119.58 52.811 128.221C61.4519 136.862 72.461 142.746 84.4462 145.13C96.4314 147.514 108.854 146.291 120.144 141.615C131.434 136.938 141.084 129.019 147.873 118.858C154.662 108.698 158.286 96.7522 158.286 84.5321C158.286 68.1456 151.776 52.4302 140.189 40.8431C128.602 29.2561 112.887 22.7466 96.5 22.7466ZM31.0937 133.942C27.1523 133.942 23.2994 135.111 20.0222 137.301C16.7451 139.491 14.1909 142.603 12.6826 146.244C11.1744 149.886 10.7798 153.893 11.5488 157.759C12.3178 161.624 14.2159 165.175 17.003 167.962C19.79 170.749 23.3409 172.647 27.2067 173.416C31.0724 174.185 35.0793 173.79 38.7207 172.282C42.3622 170.773 45.4745 168.219 47.6643 164.942C49.854 161.665 51.0228 157.812 51.0228 153.87C51.0228 151.253 50.5073 148.662 49.5058 146.244C48.5042 143.826 47.0362 141.629 45.1857 139.779C43.3351 137.928 41.1381 136.46 38.7202 135.459C36.3023 134.457 33.7108 133.942 31.0937 133.942Z" fill="#1A1C21"/>
<path d="M149.144 42.1757C127.355 42.1757 108.106 35.93 96.5 26.3831C84.8939 35.93 65.6446 42.1757 43.8567 42.1757C39.5919 42.1781 35.3305 41.9344 31.0938 41.4458V81.3144C31.0929 102.124 37.3222 122.457 48.9792 139.695C60.6361 156.934 77.187 170.287 96.5 178.036C115.813 170.287 132.364 156.934 144.021 139.695C155.678 122.457 161.907 102.124 161.906 81.3144V41.4458C157.67 41.9344 153.408 42.1781 149.144 42.1757Z" fill="#AFF9EC"/>
<path d="M149.144 42.1757C127.355 42.1757 108.106 35.93 96.5 26.3831V178.036C115.813 170.287 132.364 156.934 144.021 139.695C155.678 122.457 161.907 102.124 161.906 81.3144V41.4458C157.67 41.9344 153.408 42.1781 149.144 42.1757Z" fill="#52E8CD"/>
<path d="M149.144 42.1757C127.355 42.1757 108.106 35.93 96.5 26.3831C84.8939 35.93 65.6446 42.1757 43.8567 42.1757C39.5919 42.1781 35.3305 41.9344 31.0938 41.4458V48.4045C35.3305 48.8934 39.5919 49.1375 43.8567 49.1357C65.6446 49.1357 84.8939 42.8905 96.5 33.3424C108.106 42.8905 127.355 49.1357 149.144 49.1357C153.409 49.1375 157.67 48.8933 161.906 48.4045V41.4458C157.67 41.9344 153.408 42.1781 149.144 42.1757Z" fill="#C8F5ED"/>
<path d="M149.144 42.1757C127.355 42.1757 108.106 35.93 96.5 26.3831V33.3424C108.106 42.8905 127.355 49.1357 149.144 49.1357C153.409 49.1375 157.67 48.8933 161.906 48.4045V41.4458C157.67 41.9344 153.408 42.1781 149.144 42.1757Z" fill="#AFF9EC"/>
<path d="M162.931 40.2951C162.769 40.1504 162.578 40.0417 162.371 39.9763C162.163 39.9108 161.945 39.8901 161.729 39.9155C157.551 40.3964 153.349 40.6366 149.144 40.635C128.547 40.635 109.233 34.8623 97.4788 25.1927C97.203 24.9658 96.857 24.8418 96.5 24.8418C96.1429 24.8418 95.797 24.9658 95.5212 25.1927C83.7674 34.8623 64.4533 40.635 43.8567 40.635C39.6512 40.6364 35.4492 40.396 31.2713 39.9149C31.0554 39.8899 30.8366 39.9108 30.6294 39.9763C30.4221 40.0418 30.2311 40.1504 30.0688 40.2949C29.9065 40.4395 29.7766 40.6167 29.6876 40.815C29.5987 41.0133 29.5526 41.2282 29.5526 41.4455V81.3142C29.552 102.431 35.8735 123.065 47.7029 140.558C59.5324 158.052 76.3279 171.602 95.9265 179.466C96.2946 179.614 96.7054 179.614 97.0735 179.466C116.672 171.603 133.468 158.052 145.297 140.559C157.127 123.066 163.449 102.432 163.448 81.3142V41.4455C163.448 41.2282 163.402 41.0133 163.313 40.8151C163.224 40.6168 163.094 40.4396 162.932 40.2951H162.931ZM160.366 81.3142C160.366 101.711 154.292 121.645 142.918 138.576C131.543 155.506 115.384 168.665 96.5 176.374C77.6165 168.665 61.457 155.506 50.0824 138.576C38.7078 121.645 32.6335 101.711 32.6343 81.3142V43.1613C36.3636 43.5317 40.109 43.7169 43.8567 43.7161C64.5888 43.7161 84.1423 37.993 96.5 28.3567C108.858 37.9924 128.412 43.7167 149.144 43.7167C152.909 43.7167 156.675 43.5298 160.366 43.1619V81.3142Z" fill="#78909C"/>
<path d="M136.671 60.883C120.05 60.883 105.366 56.1177 96.5129 48.8354C87.6597 56.1177 72.9748 60.883 56.3552 60.883C53.1016 60.8845 49.8505 60.6981 46.6184 60.3248V90.7381C46.6178 106.612 51.3697 122.123 60.262 135.273C69.1543 148.422 81.7798 158.609 96.5123 164.52C111.245 158.609 123.87 148.422 132.763 135.273C141.655 122.123 146.407 106.612 146.406 90.7381V60.3248C143.175 60.6981 139.924 60.8845 136.671 60.883H136.671Z" fill="#52E8CD"/>
<path d="M136.671 56.4158C120.05 56.4158 105.366 51.651 96.5129 44.3682C87.6597 51.651 72.9748 56.4158 56.3552 56.4158C53.1016 56.417 49.8506 56.2306 46.6184 55.8575V86.2708C46.6178 102.145 51.3697 117.656 60.262 130.806C69.1543 143.955 81.7797 154.142 96.5123 160.053C111.245 154.142 123.87 143.955 132.763 130.806C141.655 117.656 146.407 102.145 146.406 86.2708V55.8575C143.175 56.2304 139.924 56.4166 136.671 56.4152L136.671 56.4158Z" fill="#E9FFFB"/>
<path d="M136.67 56.4158C120.05 56.4158 105.366 51.651 96.5128 44.3682V160.053C111.245 154.142 123.871 143.955 132.763 130.806C141.655 117.656 146.407 102.145 146.406 86.2708V55.8575C143.175 56.2304 139.924 56.4166 136.671 56.4152L136.67 56.4158Z" fill="white"/>
<path d="M147.175 54.9945C147.053 54.8859 146.91 54.8043 146.754 54.7551C146.599 54.706 146.435 54.6905 146.273 54.7096C143.086 55.0768 139.88 55.2604 136.671 55.2597C120.955 55.2597 106.216 50.8541 97.2469 43.476C97.04 43.3061 96.7806 43.2131 96.5128 43.2131C96.2451 43.2131 95.9856 43.3061 95.7788 43.476C86.8088 50.8541 72.0708 55.2597 56.3552 55.2597C53.1462 55.2605 49.9399 55.0768 46.7521 54.7096C46.5902 54.6909 46.4263 54.7066 46.2709 54.7557C46.1156 54.8049 45.9723 54.8863 45.8506 54.9946C45.7289 55.103 45.6315 55.2358 45.5648 55.3845C45.498 55.5331 45.4634 55.6942 45.4633 55.8571V86.2704C45.4627 102.375 50.2837 118.112 59.3054 131.453C68.3271 144.794 81.1362 155.128 96.083 161.125C96.3591 161.236 96.6672 161.236 96.9432 161.125C111.89 155.128 124.699 144.793 133.72 131.452C142.742 118.112 147.563 102.375 147.562 86.2704V55.8571C147.562 55.6941 147.527 55.533 147.461 55.3844C147.394 55.2357 147.296 55.1028 147.175 54.9945ZM145.25 86.2704C145.251 101.835 140.615 117.046 131.935 129.965C123.255 142.884 110.923 152.924 96.5128 158.806C82.1025 152.925 69.7706 142.884 61.0901 129.965C52.4097 117.046 47.7741 101.835 47.7747 86.2704V57.1442C50.6023 57.4274 53.4819 57.5705 56.3552 57.5705C72.1724 57.5705 87.0897 53.2023 96.5128 45.8488C105.935 53.2023 120.853 57.5705 136.671 57.5705C139.543 57.5705 142.423 57.4274 145.251 57.1442L145.25 86.2704Z" fill="#78909C"/>
<path d="M97.0022 61.8734L96.5117 61.4705L96.0229 61.8734C95.8329 62.0303 95.6388 62.1851 95.4407 62.3377L96.3809 63.5582L96.5123 63.456L96.6437 63.5576L97.585 62.3383C97.3865 62.1853 97.1926 62.0303 97.0022 61.8734ZM73.4291 69.801L73.5488 71.3369C74.0565 71.2972 74.5611 71.2512 75.0625 71.1991L74.9025 69.6661C74.4147 69.7175 73.9236 69.7628 73.4291 69.801ZM76.3712 69.4927L76.5727 71.0204C77.0788 70.9534 77.5807 70.8802 78.0782 70.8008L77.8341 69.2789C77.3513 69.3568 76.8637 69.428 76.3712 69.4927ZM64.4404 71.3474C64.9427 71.3852 65.448 71.4169 65.9564 71.4426L66.0335 69.9038C65.5379 69.8793 65.0454 69.8485 64.5561 69.8115L64.4404 71.3474ZM79.29 69.0249L79.5761 70.5386C80.0791 70.4436 80.5765 70.3423 81.0682 70.2349L80.7377 68.7294C80.2608 68.8345 79.7782 68.933 79.29 69.0249ZM70.473 69.9546L70.5139 71.4951C71.0231 71.4815 71.5292 71.4616 72.0322 71.4356L71.9522 69.8974C71.4617 69.9227 70.9686 69.9417 70.473 69.9546ZM67.5122 69.9587L67.4754 71.4986C67.9546 71.5103 68.4366 71.5162 68.9213 71.5162H68.9932V69.975H68.9213C68.4495 69.975 67.9798 69.9696 67.5122 69.9587ZM94.2628 63.1932C93.8692 63.463 93.4569 63.7305 93.0376 63.9869L93.8417 65.3008C94.2838 65.031 94.7177 64.7495 95.1341 64.4645L94.2628 63.1932ZM90.4709 65.3972L91.1525 66.7795C91.6115 66.5535 92.0693 66.3152 92.5131 66.0717L91.7715 64.7209C91.3475 64.9533 90.9101 65.1811 90.4709 65.3972ZM82.1754 68.3918L82.5504 69.8868C83.0475 69.7615 83.5381 69.6301 84.022 69.4927L83.6015 68.0105C83.1324 68.144 82.657 68.2712 82.1754 68.3918ZM87.7858 66.5902L88.3563 68.0216C88.83 67.8327 89.2999 67.6349 89.7661 67.4283L89.1412 66.0197C88.6974 66.2165 88.2419 66.4086 87.7858 66.5902ZM85.013 67.5842L85.482 69.0512C85.9667 68.8964 86.4488 68.7332 86.9279 68.5618L86.4082 67.1112C85.9507 67.2751 85.4855 67.4328 85.0124 67.5842H85.013ZM62.3212 69.5966L61.4615 69.4973V71.1325H62.188C62.4305 71.1605 62.6743 71.1872 62.9191 71.2125L62.9273 71.1325H63.0027V70.3984L63.0762 69.6795C62.8232 69.6534 62.5715 69.6258 62.3212 69.5966ZM72.8457 122.295L71.5878 123.185C71.8872 123.609 72.1922 124.027 72.5029 124.442L73.7363 123.518C73.4334 123.115 73.1365 122.707 72.8457 122.295ZM74.6602 124.715L73.4531 125.673C73.7754 126.079 74.1038 126.48 74.4382 126.877L75.6161 125.884C75.2918 125.499 74.9732 125.11 74.6602 124.715ZM71.1703 119.778L69.8639 120.595C70.1395 121.035 70.4208 121.471 70.7077 121.903L71.9908 121.049C71.7112 120.629 71.4377 120.206 71.1703 119.778ZM68.2544 114.479L66.8645 115.145C67.0888 115.613 67.3195 116.078 67.5566 116.539L68.9272 115.834C68.6971 115.386 68.4728 114.935 68.2544 114.479ZM69.6379 117.17L68.2883 117.913C68.5382 118.368 68.7948 118.819 69.058 119.266L70.386 118.484C70.1302 118.05 69.8808 117.612 69.6379 117.17V117.17ZM76.6054 127.028L75.4544 128.052C75.7989 128.44 76.1487 128.822 76.5038 129.199L77.6256 128.142C77.2803 127.776 76.9402 127.405 76.6054 127.028ZM87.2567 138.077C87.6939 138.353 88.135 138.624 88.58 138.889L89.3672 137.564C88.9339 137.307 88.5053 137.044 88.0813 136.775L87.2567 138.077ZM84.6813 136.343C85.1018 136.644 85.5271 136.939 85.9573 137.228L86.817 135.949C86.3992 135.669 85.9856 135.382 85.576 135.089L84.6813 136.343ZM77.5842 130.316C77.9501 130.683 78.321 131.045 78.6967 131.402L79.7572 130.285C79.392 129.938 79.0319 129.585 78.6768 129.228L77.5842 130.316ZM89.9255 139.663C90.3771 139.915 90.8328 140.16 91.2926 140.399L92.0033 139.032C91.5572 138.8 91.1145 138.561 90.6753 138.317L89.9255 139.663ZM67.0251 111.714L65.6002 112.299C65.7976 112.78 66.002 113.258 66.2134 113.732L67.6208 113.105C67.4156 112.644 67.2171 112.181 67.0251 111.714ZM82.2046 134.468C82.6084 134.792 83.017 135.11 83.4304 135.423L84.3601 134.194C83.9587 133.89 83.5616 133.581 83.1688 133.266L82.2046 134.468ZM79.8372 132.456C80.2226 132.803 80.6127 133.143 81.0075 133.478L82.0043 132.304C81.6205 131.978 81.2415 131.647 80.8673 131.31L79.8372 132.456ZM63.7233 100.09L62.2026 100.341C62.2879 100.853 62.3794 101.363 62.4771 101.871L63.9908 101.577C63.8946 101.084 63.8054 100.588 63.7233 100.09ZM65.9529 108.882L64.4977 109.386C64.6674 109.878 64.8442 110.366 65.0279 110.851L66.4692 110.306C66.2909 109.834 66.1188 109.36 65.9529 108.882ZM63.0027 84.9285H61.4609V86.4609H63.0021L63.0027 84.9285ZM63.0027 78.7967H61.4609V80.3297H63.0021L63.0027 78.7967ZM63.0027 72.6654H61.4609V74.1984H63.0021L63.0027 72.6654ZM63.0027 75.7314H61.4609V77.2643H63.0021L63.0027 75.7314ZM63.0027 87.9939H61.4609V89.5268H63.0021L63.0027 87.9939ZM63.0027 81.8626H61.4609V83.3956H63.0021L63.0027 81.8626ZM92.6778 141.096C93.1427 141.322 93.6112 141.542 94.0835 141.755L94.7171 140.35C94.2577 140.143 93.8022 139.93 93.3506 139.71L92.6778 141.096ZM64.2991 103.055L62.7953 103.392C62.909 103.9 63.0297 104.406 63.1574 104.908L64.6507 104.53C64.5269 104.041 64.4097 103.549 64.2991 103.055ZM65.0437 105.993L63.5615 106.414C63.704 106.915 63.8529 107.412 64.0083 107.907L65.4788 107.444C65.3269 106.963 65.1819 106.48 65.0437 105.993ZM63.3151 97.0958L61.7833 97.2611C61.839 97.7774 61.9018 98.2917 61.9719 98.804L63.4985 98.5961C63.4307 98.0978 63.3696 97.5977 63.3151 97.0958ZM63.0757 94.0837L61.5363 94.1631C61.5635 94.682 61.5976 95.1991 61.6385 95.7141L63.1744 95.5915C63.1343 95.0908 63.1017 94.5882 63.0757 94.0837ZM63.0027 91.2589V91.0598H61.4609V91.2583C61.4609 91.7107 61.4666 92.1618 61.4779 92.6114L63.0178 92.5735C63.0073 92.1363 63.0027 91.6981 63.0027 91.2589ZM117.434 125.855L118.614 126.846C118.947 126.449 119.274 126.048 119.596 125.643L118.389 124.685C118.076 125.079 117.758 125.469 117.434 125.855ZM130.022 91.2589C130.022 91.7105 130.017 92.161 130.006 92.6103L131.546 92.6482C131.558 92.1865 131.563 91.7232 131.563 91.2583V91.0966H130.022V91.2589ZM129.847 95.6283L131.383 95.7509C131.425 95.2362 131.459 94.7198 131.487 94.2016L129.948 94.1199C129.921 94.6248 129.888 95.1276 129.848 95.6283H129.847ZM129.028 101.613L130.54 101.907C130.639 101.4 130.731 100.89 130.816 100.378L129.296 100.126C129.213 100.624 129.124 101.119 129.027 101.613H129.028ZM129.521 98.6323L131.048 98.8414C131.118 98.3294 131.181 97.8151 131.237 97.2985L129.705 97.1326C129.651 97.6349 129.59 98.1348 129.521 98.6323ZM127.541 107.463L129.01 107.925C129.165 107.434 129.314 106.939 129.455 106.441L127.973 106.02C127.835 106.503 127.691 106.984 127.541 107.463ZM128.366 104.56L129.86 104.94C129.987 104.439 130.108 103.936 130.222 103.429L128.718 103.092C128.607 103.584 128.49 104.073 128.366 104.561V104.56ZM130.022 77.3011H131.563V75.7681H130.022V77.3011ZM126.554 110.31L127.995 110.855C128.178 110.372 128.354 109.886 128.523 109.397L127.068 108.893C126.903 109.368 126.732 109.841 126.554 110.31ZM130.022 80.3664H131.563V78.8335H130.022V80.3664ZM130.022 89.5636H131.563V88.0307H130.022V89.5636ZM130.022 72.7022V74.2352H131.563V72.7022H130.022ZM130.022 86.4977H131.563V84.9653H130.022V86.4977ZM130.022 83.4318H131.563V81.8994H130.022V83.4318ZM106.235 135.931L107.096 137.209C107.526 136.919 107.952 136.624 108.374 136.323L107.477 135.069C107.068 135.362 106.654 135.649 106.235 135.931ZM96.5123 141.121C96.3752 141.065 96.2384 141.009 96.1017 140.952L95.5084 142.374C95.7467 142.473 95.9855 142.571 96.225 142.667L96.5123 142.783L96.7996 142.667C97.041 142.57 97.282 142.471 97.5226 142.371L96.9281 140.95C96.7899 141.007 96.6513 141.064 96.5123 141.121ZM125.408 113.098L126.816 113.724C127.026 113.252 127.229 112.776 127.426 112.298L126.001 111.712C125.81 112.177 125.612 112.639 125.408 113.098ZM111.051 132.279L112.049 133.452C112.444 133.116 112.834 132.775 113.219 132.429L112.188 131.283C111.814 131.62 111.435 131.952 111.051 132.279H111.051ZM103.681 137.55L104.468 138.875C104.915 138.609 105.357 138.338 105.794 138.06L104.969 136.759C104.543 137.029 104.114 137.292 103.681 137.55ZM101.038 139.024L101.75 140.39C102.211 140.15 102.667 139.904 103.12 139.651L102.37 138.306C101.929 138.551 101.485 138.791 101.038 139.024V139.024ZM98.3162 140.346L98.9504 141.751C99.4238 141.537 99.8937 141.316 100.36 141.09L99.6868 139.705C99.2336 139.924 98.7768 140.139 98.3162 140.347V140.346ZM108.694 134.172L109.626 135.4C110.038 135.087 110.447 134.768 110.851 134.443L109.886 133.242C109.493 133.557 109.096 133.867 108.694 134.172H108.694ZM122.652 118.463L123.981 119.242C124.243 118.797 124.498 118.347 124.747 117.893L123.398 117.15C123.155 117.592 122.907 118.029 122.652 118.463ZM124.106 115.818L125.477 116.523C125.712 116.063 125.942 115.6 126.166 115.133L124.776 114.467C124.559 114.921 124.336 115.371 124.106 115.818H124.106ZM121.052 121.022L122.335 121.875C122.622 121.444 122.902 121.009 123.176 120.57L121.871 119.753C121.604 120.18 121.331 120.603 121.052 121.022ZM115.427 128.113L116.549 129.168C116.904 128.791 117.253 128.409 117.598 128.022L116.446 126.998C116.112 127.374 115.772 127.746 115.427 128.113ZM119.311 123.488L120.544 124.412C120.854 123.997 121.159 123.579 121.457 123.156L120.199 122.267C119.908 122.678 119.612 123.085 119.311 123.488ZM113.298 130.257L114.359 131.372C114.735 131.015 115.106 130.653 115.471 130.286L114.378 129.2C114.023 129.557 113.663 129.909 113.297 130.257H113.298ZM130.704 69.596C130.453 69.6252 130.201 69.6529 129.948 69.6789L130.022 70.3972V71.1319H130.098L130.106 71.2119C130.35 71.1866 130.594 71.1599 130.837 71.1319H131.563V69.4967L130.704 69.596ZM109.01 69.4938C109.494 69.6316 109.985 69.7628 110.482 69.8874L110.857 68.3924C110.375 68.2721 109.9 68.1452 109.431 68.0117L109.01 69.4938ZM111.964 70.2355C112.456 70.3437 112.953 70.4451 113.456 70.5397L113.742 69.0261C113.254 68.9338 112.772 68.8353 112.294 68.7306L111.964 70.2355ZM103.266 67.4306C103.725 67.6344 104.199 67.8336 104.675 68.0239L105.246 66.5932C104.791 66.4114 104.339 66.2212 103.89 66.0226L103.266 67.4306ZM100.518 66.0746C100.961 66.3164 101.418 66.5546 101.879 66.7818L102.561 65.4001C102.122 65.1839 101.688 64.9582 101.259 64.7233L100.518 66.0746ZM97.8975 64.4686C98.3211 64.7581 98.752 65.0368 99.1898 65.3043L99.994 63.9904C99.5785 63.7363 99.1696 63.4717 98.7676 63.1967L97.8975 64.4686ZM106.105 68.5641C106.579 68.7335 107.061 68.8964 107.55 69.0529L108.02 67.5854C107.547 67.4343 107.081 67.2768 106.624 67.1129L106.105 68.5641ZM128.475 69.8103C127.987 69.8473 127.495 69.8781 127 69.9026L127.076 71.4414C127.585 71.4165 128.09 71.3848 128.592 71.3462L128.475 69.8103ZM124.104 69.975H124.039V71.5156H124.104C124.591 71.5156 125.075 71.5097 125.557 71.4981L125.52 69.9575C125.05 69.9688 124.578 69.9746 124.104 69.975ZM117.97 71.1991C118.471 71.2512 118.975 71.2972 119.484 71.3369L119.604 69.801C119.109 69.7621 118.618 69.7173 118.131 69.6667L117.97 71.1991ZM114.955 70.8014C115.452 70.8808 115.953 70.9538 116.459 71.0204L116.661 69.4927C116.169 69.428 115.681 69.357 115.198 69.2795L114.955 70.8014ZM121 71.4356C121.503 71.4616 122.009 71.4815 122.519 71.4951L122.56 69.9546C122.063 69.9413 121.57 69.9221 121.08 69.8968L121 71.4356Z" fill="#C8F5ED"/>
<path d="M96.5 131.395C111.77 131.395 124.149 119.016 124.149 103.745C124.149 88.475 111.77 76.0959 96.5 76.0959C81.2297 76.0959 68.8506 88.475 68.8506 103.745C68.8506 119.016 81.2297 131.395 96.5 131.395Z" fill="#1A1C21"/>
<path d="M96.5001 71.0806C91.0314 71.0805 85.6856 72.702 81.1385 75.7401C76.5914 78.7782 73.0474 83.0965 70.9545 88.1488C68.8616 93.2011 68.314 98.7606 69.3807 104.124C70.4475 109.488 73.0808 114.415 76.9476 118.281C80.8144 122.148 85.7411 124.782 91.1047 125.849C96.4682 126.916 102.028 126.369 107.08 124.276C112.132 122.183 116.451 118.639 119.489 114.092C122.528 109.545 124.149 104.2 124.149 98.7311C124.149 95.1 123.434 91.5045 122.045 88.1498C120.655 84.7952 118.619 81.747 116.051 79.1794C113.484 76.6119 110.436 74.5751 107.081 73.1855C103.727 71.7959 100.131 71.0806 96.5001 71.0806Z" fill="#1A1C21"/>
<path d="M96.5 69.5403C90.7267 69.5402 85.083 71.252 80.2826 74.4594C75.4822 77.6668 71.7406 82.2257 69.5312 87.5595C67.3217 92.8933 66.7435 98.7625 67.8697 104.425C68.996 110.087 71.776 115.289 75.8582 119.371C79.9405 123.454 85.1417 126.234 90.8041 127.36C96.4665 128.487 102.336 127.909 107.67 125.699C113.003 123.49 117.562 119.749 120.77 114.949C123.978 110.148 125.69 104.505 125.69 98.7313C125.681 90.9922 122.603 83.5726 117.131 78.1001C111.659 72.6276 104.239 69.5492 96.5 69.5403ZM96.5 124.84C91.3362 124.84 86.2883 123.308 81.9947 120.439C77.7011 117.57 74.3547 113.493 72.3786 108.722C70.4025 103.951 69.8855 98.7016 70.893 93.637C71.9004 88.5723 74.3871 83.9202 78.0385 80.2688C81.69 76.6175 86.3422 74.1309 91.4068 73.1236C96.4714 72.1162 101.721 72.6333 106.492 74.6095C111.263 76.5857 115.34 79.9323 118.209 84.2259C121.078 88.5196 122.609 93.5675 122.609 98.7313C122.601 105.653 119.848 112.29 114.953 117.184C110.058 122.079 103.422 124.832 96.5 124.84Z" fill="#78909C"/>
<path d="M96.5 78.6134C92.5212 78.6135 88.6317 79.7935 85.3234 82.0041C82.0152 84.2147 79.4367 87.3567 77.9141 91.0328C76.3916 94.7088 75.9933 98.7538 76.7696 102.656C77.5459 106.559 79.4619 110.143 82.2755 112.957C85.089 115.77 88.6736 117.686 92.5761 118.462C96.4785 119.238 100.523 118.84 104.199 117.317C107.875 115.795 111.017 113.216 113.228 109.908C115.438 106.599 116.618 102.71 116.618 98.7311C116.612 93.3972 114.491 88.2834 110.719 84.5118C106.948 80.7401 101.834 78.6192 96.5 78.6134ZM96.5 116.537C92.9785 116.537 89.5361 115.493 86.6081 113.536C83.6801 111.579 81.3981 108.798 80.0506 105.545C78.7031 102.291 78.3506 98.7113 79.0378 95.2574C79.7249 91.8035 81.4207 88.631 83.9109 86.1409C86.4011 83.6508 89.5737 81.9551 93.0276 81.2681C96.4815 80.5811 100.062 80.9337 103.315 82.2813C106.569 83.6289 109.349 85.911 111.306 88.839C113.262 91.7671 114.307 95.2095 114.307 98.7311C114.301 103.452 112.423 107.978 109.085 111.316C105.747 114.654 101.221 116.531 96.5 116.537V116.537Z" fill="#78909C"/>
<path d="M96.5 85.908C93.964 85.9081 91.485 86.6602 89.3764 88.0692C87.2678 89.4782 85.6244 91.4808 84.654 93.8238C83.6836 96.1668 83.4297 98.7449 83.9245 101.232C84.4192 103.719 85.6405 106.004 87.4337 107.797C89.2269 109.591 91.5116 110.812 93.9989 111.307C96.4862 111.801 99.0643 111.548 101.407 110.577C103.75 109.607 105.753 107.963 107.162 105.855C108.571 103.746 109.323 101.267 109.323 98.7311C109.319 95.3313 107.967 92.0719 105.563 89.6679C103.159 87.2639 99.8998 85.9117 96.5 85.908ZM96.5 109.242C94.421 109.242 92.3887 108.626 90.66 107.471C88.9314 106.316 87.5841 104.674 86.7884 102.753C85.9928 100.832 85.7847 98.7188 86.1903 96.6798C86.5959 94.6407 87.597 92.7677 89.0671 91.2976C90.5372 89.8275 92.4102 88.8264 94.4493 88.4208C96.4883 88.0152 98.6019 88.2233 100.523 89.0189C102.443 89.8145 104.085 91.1619 105.24 92.8905C106.395 94.6191 107.012 96.6515 107.012 98.7305C107.009 101.517 105.9 104.189 103.93 106.16C101.959 108.131 99.2869 109.239 96.5 109.242Z" fill="#78909C"/>
<path d="M96.5 92.813C95.3296 92.813 94.1856 93.16 93.2124 93.8102C92.2393 94.4604 91.4809 95.3846 91.033 96.4658C90.5851 97.5471 90.4678 98.7369 90.6961 99.8847C90.9244 101.033 91.4879 102.087 92.3155 102.915C93.143 103.742 94.1973 104.306 95.3452 104.534C96.493 104.763 97.6828 104.646 98.7641 104.198C99.8454 103.75 100.77 102.992 101.42 102.019C102.07 101.045 102.417 99.9014 102.417 98.7311C102.417 97.1616 101.794 95.6564 100.684 94.5466C99.5746 93.4367 98.0694 92.8131 96.5 92.813Z" fill="white"/>
<path d="M96.5 92.0429C95.1773 92.0429 93.8843 92.4351 92.7845 93.17C91.6847 93.9048 90.8275 94.9493 90.3213 96.1713C89.8151 97.3933 89.6827 98.7379 89.9407 100.035C90.1987 101.332 90.8355 102.524 91.7708 103.459C92.706 104.395 93.8976 105.032 95.1949 105.29C96.4922 105.548 97.8368 105.416 99.0589 104.91C100.281 104.403 101.325 103.546 102.06 102.447C102.795 101.347 103.188 100.054 103.188 98.7313C103.186 96.9581 102.481 95.258 101.227 94.0041C99.9732 92.7502 98.2732 92.0449 96.5 92.0429ZM96.5 103.878C95.4819 103.878 94.4867 103.576 93.6401 103.011C92.7936 102.445 92.1337 101.641 91.7441 100.701C91.3544 99.7602 91.2524 98.7252 91.451 97.7267C91.6496 96.7281 92.1399 95.8109 92.8597 95.091C93.5796 94.3712 94.4968 93.8809 95.4954 93.6823C96.4939 93.4837 97.5289 93.5857 98.4694 93.9754C99.41 94.365 100.214 95.0249 100.779 95.8714C101.345 96.718 101.647 97.7132 101.647 98.7313C101.645 100.096 101.102 101.404 100.138 102.369C99.1727 103.334 97.8645 103.876 96.5 103.878ZM96.5146 57.6106C96.3122 57.6106 96.1118 57.6505 95.9249 57.7279C95.738 57.8054 95.5681 57.9189 95.425 58.062C95.282 58.2051 95.1685 58.375 95.0911 58.562C95.0137 58.749 94.9739 58.9494 94.974 59.1517V70.7345C94.974 71.1431 95.1364 71.5351 95.4253 71.824C95.7143 72.113 96.1062 72.2753 96.5149 72.2753C96.9235 72.2753 97.3155 72.113 97.6044 71.824C97.8934 71.5351 98.0557 71.1431 98.0557 70.7345V59.1517C98.0558 58.9493 98.016 58.7489 97.9386 58.5619C97.8611 58.3749 97.7476 58.2049 97.6045 58.0618C97.4614 57.9187 97.2915 57.8052 97.1044 57.7278C96.9174 57.6503 96.717 57.6105 96.5146 57.6106ZM96.5146 79.0732C96.3122 79.0732 96.1118 79.1131 95.9249 79.1905C95.738 79.268 95.5681 79.3815 95.425 79.5246C95.282 79.6677 95.1685 79.8376 95.0911 80.0246C95.0137 80.2116 94.9739 80.412 94.974 80.6143V84.5323C94.974 84.9409 95.1364 85.3329 95.4253 85.6218C95.7143 85.9108 96.1062 86.0731 96.5149 86.0731C96.9235 86.0731 97.3155 85.9108 97.6044 85.6218C97.8934 85.3329 98.0557 84.9409 98.0557 84.5323V80.6137C98.0557 80.4114 98.0159 80.211 97.9384 80.0241C97.8609 79.8371 97.7474 79.6673 97.6043 79.5242C97.4612 79.3811 97.2913 79.2677 97.1043 79.1903C96.9173 79.1129 96.7169 79.0731 96.5146 79.0732ZM96.4854 125.186C96.283 125.186 96.0825 125.226 95.8955 125.304C95.7085 125.381 95.5386 125.494 95.3955 125.638C95.2523 125.781 95.1388 125.951 95.0614 126.138C94.984 126.325 94.9442 126.525 94.9442 126.727V138.31C94.9442 138.718 95.1066 139.11 95.3955 139.399C95.6845 139.688 96.0764 139.851 96.4851 139.851C96.8937 139.851 97.2857 139.688 97.5746 139.399C97.8636 139.11 98.0259 138.718 98.0259 138.31V126.727C98.0259 126.319 97.8637 125.927 97.5748 125.638C97.2859 125.349 96.894 125.187 96.4854 125.186ZM96.4854 111.389C96.283 111.388 96.0826 111.428 95.8957 111.506C95.7087 111.583 95.5388 111.697 95.3957 111.84C95.2526 111.983 95.139 112.152 95.0616 112.339C94.9841 112.526 94.9442 112.727 94.9442 112.929V116.848C94.9442 117.256 95.1066 117.648 95.3955 117.937C95.6845 118.226 96.0764 118.388 96.4851 118.388C96.8937 118.388 97.2857 118.226 97.5746 117.937C97.8636 117.648 98.0259 117.256 98.0259 116.848V112.929C98.0259 112.521 97.8636 112.129 97.5747 111.84C97.2858 111.551 96.894 111.389 96.4854 111.389ZM125.587 69.6658C125.444 69.5227 125.274 69.4092 125.087 69.3318C124.9 69.2543 124.7 69.2145 124.498 69.2145C124.295 69.2145 124.095 69.2543 123.908 69.3318C123.721 69.4092 123.551 69.5227 123.408 69.6658L115.217 77.855C114.928 78.1439 114.766 78.5358 114.766 78.9445C114.766 79.3532 114.928 79.7451 115.217 80.0341C115.506 80.3232 115.898 80.4855 116.306 80.4856C116.715 80.4857 117.107 80.3234 117.396 80.0344L125.587 71.8446C125.876 71.5556 126.038 71.1638 126.038 70.7552C126.038 70.3466 125.876 69.9548 125.587 69.6658ZM110.41 84.8418C110.121 84.553 109.73 84.3907 109.321 84.3907C108.912 84.3907 108.521 84.553 108.232 84.8418L105.461 87.6116C105.318 87.7547 105.204 87.9245 105.127 88.1115C105.049 88.2984 105.009 88.4987 105.009 88.7011C105.009 88.9034 105.049 89.1037 105.127 89.2906C105.204 89.4776 105.318 89.6474 105.461 89.7905C105.604 89.9335 105.774 90.047 105.96 90.1245C106.147 90.2019 106.348 90.2417 106.55 90.2417C106.752 90.2417 106.953 90.2019 107.14 90.1245C107.327 90.047 107.496 89.9335 107.639 89.7905L110.41 87.0212C110.699 86.7323 110.861 86.3403 110.862 85.9316C110.862 85.5229 110.699 85.1309 110.41 84.8418ZM77.7827 117.427C77.4937 117.138 77.1018 116.976 76.6933 116.976C76.2847 116.976 75.8928 117.138 75.6039 117.427L67.4129 125.617C67.1239 125.906 66.9615 126.298 66.9614 126.707C66.9614 127.116 67.1237 127.507 67.4126 127.796C67.7015 128.085 68.0934 128.248 68.5021 128.248C68.9108 128.248 69.3027 128.086 69.5917 127.797L77.7827 119.606C77.9259 119.463 78.0394 119.293 78.1169 119.106C78.1944 118.919 78.2343 118.719 78.2343 118.517C78.2343 118.314 78.1944 118.114 78.1169 117.927C78.0394 117.74 77.9259 117.57 77.7827 117.427ZM87.5399 107.671C87.2509 107.382 86.8589 107.22 86.4502 107.22C86.0415 107.22 85.6495 107.382 85.3605 107.671L82.5901 110.441C82.447 110.584 82.3334 110.754 82.2559 110.94C82.1785 111.127 82.1386 111.328 82.1385 111.53C82.1385 111.732 82.1783 111.933 82.2556 112.12C82.333 112.307 82.4464 112.476 82.5895 112.62C82.7325 112.763 82.9023 112.876 83.0892 112.954C83.2761 113.031 83.4764 113.071 83.6788 113.071C83.8811 113.071 84.0815 113.031 84.2684 112.954C84.4553 112.877 84.6252 112.763 84.7683 112.62L87.5393 109.85C87.6824 109.707 87.7959 109.537 87.8733 109.35C87.9508 109.163 87.9906 108.963 87.9906 108.76C87.9906 108.558 87.9508 108.358 87.8733 108.171C87.7959 107.984 87.683 107.814 87.5399 107.671ZM125.565 125.639L117.376 117.449C117.234 117.303 117.064 117.187 116.876 117.108C116.689 117.029 116.487 116.987 116.284 116.986C116.08 116.985 115.878 117.024 115.69 117.102C115.502 117.179 115.331 117.293 115.187 117.437C115.042 117.581 114.928 117.752 114.851 117.94C114.773 118.129 114.734 118.331 114.735 118.534C114.736 118.738 114.778 118.939 114.857 119.127C114.936 119.314 115.052 119.484 115.197 119.627L123.387 127.818C123.53 127.961 123.7 128.074 123.886 128.152C124.073 128.229 124.274 128.269 124.476 128.269C124.678 128.269 124.879 128.229 125.066 128.152C125.253 128.074 125.422 127.961 125.565 127.818C125.709 127.675 125.822 127.505 125.899 127.318C125.977 127.131 126.017 126.931 126.017 126.728C126.017 126.526 125.977 126.326 125.899 126.139C125.822 125.952 125.709 125.782 125.565 125.639ZM110.39 110.461L107.619 107.691C107.328 107.411 106.939 107.256 106.535 107.26C106.131 107.264 105.745 107.426 105.459 107.712C105.174 107.997 105.012 108.384 105.009 108.788C105.005 109.192 105.16 109.581 105.441 109.871L108.212 112.641C108.501 112.929 108.893 113.092 109.302 113.091C109.71 113.091 110.102 112.929 110.391 112.64C110.68 112.351 110.842 111.959 110.842 111.55C110.842 111.141 110.679 110.749 110.39 110.461ZM77.8037 77.834L69.6139 69.6436C69.3232 69.3632 68.9341 69.208 68.5302 69.2116C68.1263 69.2152 67.7399 69.3773 67.4543 69.6628C67.1687 69.9484 67.0065 70.3347 67.0028 70.7386C66.9991 71.1425 67.1541 71.5317 67.4345 71.8224L75.6237 80.0128C75.9149 80.2903 76.303 80.4429 76.7052 80.4381C77.1074 80.4333 77.4918 80.2715 77.7763 79.9872C78.0608 79.7028 78.2229 79.3185 78.2279 78.9163C78.2329 78.5141 78.0805 78.1259 77.8031 77.8346L77.8037 77.834ZM87.5598 87.59L84.7882 84.8208C84.4991 84.5319 84.1071 84.3697 83.6984 84.3699C83.2898 84.3701 82.8979 84.5326 82.609 84.8216C82.3202 85.1107 82.158 85.5027 82.1582 85.9114C82.1583 86.3201 82.3208 86.7119 82.6099 87.0008L85.3815 89.77C85.6706 90.0589 86.0626 90.2211 86.4713 90.2209C86.8799 90.2208 87.2718 90.0583 87.5606 89.7692C87.8495 89.4801 88.0117 89.0881 88.0115 88.6794C88.0114 88.2707 87.8488 87.8789 87.5598 87.59Z" fill="#78909C"/>
<path d="M96.5 71.3043C96.2957 71.3043 96.0997 71.3854 95.9551 71.5299C95.8106 71.6743 95.7293 71.8702 95.7291 72.0746V79.3569C95.7291 79.5613 95.8104 79.7574 95.9549 79.9019C96.0995 80.0465 96.2956 80.1277 96.5 80.1277C96.7045 80.1277 96.9005 80.0465 97.0451 79.9019C97.1897 79.7574 97.2709 79.5613 97.2709 79.3569V72.0746C97.2709 71.8701 97.1897 71.6741 97.0451 71.5295C96.9005 71.3849 96.7045 71.3037 96.5 71.3037V71.3043ZM96.5 117.335C96.2956 117.335 96.0995 117.416 95.9549 117.56C95.8104 117.705 95.7291 117.901 95.7291 118.105V125.388C95.7291 125.592 95.8104 125.788 95.9549 125.933C96.0995 126.077 96.2956 126.159 96.5 126.159C96.7045 126.159 96.9005 126.077 97.0451 125.933C97.1897 125.788 97.2709 125.592 97.2709 125.388V118.105C97.2709 117.901 97.1897 117.705 97.0451 117.56C96.9005 117.416 96.7045 117.335 96.5 117.335ZM115.894 79.3376C115.823 79.266 115.738 79.2092 115.644 79.1705C115.551 79.1317 115.45 79.1118 115.349 79.1118C115.248 79.1118 115.148 79.1317 115.054 79.1705C114.961 79.2092 114.876 79.266 114.804 79.3376L109.655 84.4854C109.58 84.5562 109.52 84.6413 109.478 84.7357C109.437 84.83 109.415 84.9318 109.413 85.0348C109.412 85.1379 109.431 85.2402 109.47 85.3357C109.509 85.4313 109.566 85.518 109.639 85.5909C109.712 85.6638 109.799 85.7213 109.894 85.7601C109.99 85.7989 110.092 85.8181 110.195 85.8166C110.298 85.8151 110.4 85.793 110.494 85.7515C110.589 85.7101 110.674 85.6501 110.745 85.5751L115.894 80.4273C116.038 80.2828 116.119 80.0868 116.119 79.8824C116.119 79.6781 116.039 79.4821 115.894 79.3376ZM83.3452 111.886C83.2737 111.814 83.1888 111.757 83.0953 111.719C83.0018 111.68 82.9015 111.66 82.8003 111.66C82.6991 111.66 82.5989 111.68 82.5054 111.719C82.4119 111.757 82.327 111.814 82.2555 111.886L77.1065 117.035C77.0349 117.106 76.9782 117.191 76.9394 117.285C76.9007 117.378 76.8807 117.478 76.8807 117.58C76.8807 117.681 76.9006 117.781 76.9393 117.874C76.9779 117.968 77.0347 118.053 77.1062 118.124C77.1777 118.196 77.2626 118.253 77.356 118.291C77.4495 118.33 77.5497 118.35 77.6508 118.35C77.752 118.35 77.8522 118.33 77.9456 118.292C78.0391 118.253 78.1241 118.196 78.1956 118.125L83.3452 112.976C83.4168 112.904 83.4737 112.819 83.5125 112.726C83.5513 112.632 83.5712 112.532 83.5712 112.431C83.5712 112.33 83.5513 112.229 83.5125 112.136C83.4737 112.042 83.4168 111.957 83.3452 111.886ZM123.157 97.9609H115.874C115.771 97.9568 115.667 97.9737 115.57 98.0106C115.473 98.0475 115.385 98.1036 115.31 98.1755C115.235 98.2475 115.176 98.3337 115.135 98.4292C115.094 98.5247 115.073 98.6274 115.073 98.7311C115.073 98.8349 115.094 98.9376 115.135 99.033C115.176 99.1285 115.235 99.2148 115.31 99.2867C115.385 99.3586 115.473 99.4147 115.57 99.4516C115.667 99.4885 115.771 99.5054 115.874 99.5014H123.157C123.26 99.5054 123.364 99.4885 123.461 99.4516C123.558 99.4147 123.646 99.3586 123.721 99.2867C123.796 99.2148 123.855 99.1285 123.896 99.033C123.936 98.9376 123.957 98.8349 123.957 98.7311C123.957 98.6274 123.936 98.5247 123.896 98.4292C123.855 98.3337 123.796 98.2475 123.721 98.1755C123.646 98.1036 123.558 98.0475 123.461 98.0106C123.364 97.9737 123.26 97.9568 123.157 97.9609ZM77.1257 97.9609H69.8435C69.7398 97.9568 69.6364 97.9737 69.5394 98.0106C69.4424 98.0475 69.3539 98.1036 69.2791 98.1755C69.2043 98.2475 69.1448 98.3337 69.1042 98.4292C69.0635 98.5247 69.0426 98.6274 69.0426 98.7311C69.0426 98.8349 69.0635 98.9376 69.1042 99.033C69.1448 99.1285 69.2043 99.2148 69.2791 99.2867C69.3539 99.3586 69.4424 99.4147 69.5394 99.4516C69.6364 99.4885 69.7398 99.5054 69.8435 99.5014H77.1257C77.3248 99.4937 77.5132 99.4091 77.6513 99.2655C77.7895 99.1219 77.8666 98.9304 77.8666 98.7311C77.8666 98.5319 77.7895 98.3404 77.6513 98.1968C77.5132 98.0532 77.3248 97.9686 77.1257 97.9609ZM115.894 117.035L110.745 111.886C110.6 111.741 110.404 111.66 110.2 111.66C109.995 111.66 109.799 111.741 109.655 111.886C109.51 112.03 109.429 112.226 109.429 112.431C109.429 112.635 109.51 112.831 109.655 112.976L114.804 118.125C114.949 118.269 115.145 118.35 115.349 118.35C115.553 118.35 115.749 118.269 115.894 118.124C116.038 117.98 116.119 117.784 116.119 117.58C116.119 117.375 116.038 117.179 115.894 117.035ZM83.3446 84.4854L78.1956 79.3376C78.0494 79.2018 77.8562 79.128 77.6567 79.1318C77.4572 79.1355 77.2669 79.2164 77.1259 79.3575C76.9848 79.4987 76.904 79.689 76.9003 79.8885C76.8967 80.088 76.9706 80.2811 77.1065 80.4273L82.2555 85.5751C82.4017 85.7109 82.5949 85.7847 82.7944 85.781C82.9939 85.7772 83.1841 85.6963 83.3252 85.5552C83.4663 85.414 83.5471 85.2237 83.5507 85.0242C83.5543 84.8247 83.4804 84.6316 83.3446 84.4854ZM87.4804 81.5667L83.8386 75.2602C83.7333 75.0896 83.5656 74.9667 83.3711 74.9177C83.1767 74.8687 82.9708 74.8974 82.7971 74.9977C82.6235 75.098 82.4958 75.262 82.4411 75.455C82.3864 75.6479 82.4091 75.8546 82.5042 76.0311L86.146 82.3369C86.2513 82.5076 86.419 82.6304 86.6135 82.6794C86.8079 82.7285 87.0138 82.6998 87.1875 82.5994C87.3611 82.4991 87.4888 82.3351 87.5435 82.1422C87.5982 81.9492 87.5756 81.7426 87.4804 81.5661V81.5667ZM110.495 121.431L106.855 115.124C106.751 114.95 106.583 114.823 106.387 114.772C106.191 114.721 105.983 114.75 105.807 114.851C105.632 114.952 105.503 115.118 105.449 115.314C105.396 115.509 105.421 115.718 105.52 115.894L109.161 122.201C109.267 122.372 109.434 122.495 109.629 122.544C109.823 122.593 110.029 122.564 110.203 122.464C110.377 122.364 110.504 122.2 110.559 122.007C110.614 121.814 110.591 121.607 110.496 121.431H110.495ZM103.598 72.2387C103.501 72.2125 103.399 72.2059 103.299 72.2191C103.198 72.2324 103.102 72.2652 103.014 72.3158C102.927 72.3664 102.85 72.4338 102.788 72.514C102.727 72.5943 102.682 72.6859 102.656 72.7835L100.77 79.8165C100.717 80.0139 100.744 80.2241 100.847 80.4011C100.949 80.5781 101.117 80.7072 101.314 80.7602C101.379 80.7779 101.447 80.787 101.514 80.787C101.684 80.7868 101.848 80.7307 101.983 80.6275C102.117 80.5242 102.214 80.3796 102.258 80.2159L104.144 73.1824C104.197 72.985 104.169 72.7747 104.067 72.5978C103.965 72.4208 103.796 72.2916 103.599 72.2387H103.598ZM91.6851 116.701C91.5874 116.675 91.4854 116.668 91.3851 116.681C91.2849 116.694 91.1881 116.727 91.1005 116.778C91.0129 116.828 90.9362 116.896 90.8747 116.976C90.8131 117.056 90.768 117.148 90.7419 117.246L88.8568 124.279C88.8258 124.378 88.8151 124.483 88.8255 124.586C88.8358 124.69 88.867 124.79 88.9171 124.881C88.9672 124.972 89.0352 125.052 89.117 125.116C89.1988 125.18 89.2928 125.227 89.3932 125.254C89.4936 125.281 89.5984 125.287 89.7013 125.273C89.8042 125.258 89.9031 125.223 89.992 125.169C90.0809 125.115 90.1579 125.044 90.2186 124.959C90.2792 124.875 90.3222 124.779 90.3448 124.678L92.2299 117.645C92.2562 117.547 92.263 117.445 92.2498 117.345C92.2367 117.244 92.2038 117.147 92.1532 117.06C92.1026 116.972 92.0352 116.895 91.9549 116.834C91.8746 116.772 91.7829 116.727 91.6851 116.701ZM120.253 85.0174C120.202 84.9298 120.135 84.853 120.055 84.7914C119.975 84.7298 119.883 84.6846 119.785 84.6585C119.687 84.6324 119.585 84.6257 119.485 84.639C119.385 84.6523 119.288 84.6852 119.201 84.7359L112.894 88.3765C112.803 88.4254 112.723 88.4921 112.658 88.5726C112.594 88.653 112.546 88.7456 112.518 88.8448C112.49 88.944 112.482 89.0479 112.495 89.1502C112.507 89.2525 112.54 89.3513 112.592 89.4406C112.644 89.5299 112.713 89.6079 112.795 89.6701C112.877 89.7323 112.971 89.7773 113.071 89.8025C113.171 89.8277 113.275 89.8326 113.377 89.8168C113.479 89.8011 113.577 89.7651 113.664 89.7109L119.971 86.0698C120.148 85.9675 120.277 85.7993 120.33 85.602C120.383 85.4046 120.355 85.1944 120.253 85.0174ZM80.3885 108.033C80.3379 107.945 80.2706 107.868 80.1903 107.806C80.11 107.745 80.0183 107.699 79.9205 107.673C79.8227 107.647 79.7207 107.64 79.6203 107.654C79.5199 107.667 79.4232 107.7 79.3355 107.751L73.0303 111.391C72.9389 111.44 72.8582 111.506 72.793 111.587C72.7278 111.667 72.6795 111.76 72.651 111.859C72.6224 111.959 72.6142 112.063 72.6268 112.166C72.6394 112.269 72.6726 112.368 72.7243 112.457C72.7761 112.547 72.8453 112.625 72.928 112.688C73.0107 112.75 73.105 112.795 73.2055 112.82C73.3059 112.845 73.4104 112.85 73.5126 112.833C73.6148 112.817 73.7128 112.781 73.8005 112.726L80.1064 109.085C80.2833 108.983 80.4123 108.815 80.4652 108.617C80.5181 108.42 80.4905 108.21 80.3885 108.033ZM122.449 104.885L115.414 103.001C115.216 102.948 115.006 102.975 114.829 103.078C114.652 103.18 114.523 103.348 114.47 103.545C114.417 103.743 114.445 103.953 114.547 104.13C114.649 104.307 114.817 104.436 115.015 104.489L122.05 106.374C122.149 106.405 122.253 106.415 122.357 106.404C122.46 106.394 122.56 106.363 122.651 106.313C122.742 106.263 122.822 106.195 122.886 106.113C122.95 106.031 122.996 105.937 123.023 105.837C123.05 105.737 123.056 105.632 123.042 105.53C123.027 105.427 122.992 105.328 122.939 105.239C122.885 105.15 122.814 105.073 122.73 105.012C122.646 104.952 122.55 104.909 122.449 104.886V104.885ZM77.9854 92.9724L70.9513 91.0873C70.7561 91.041 70.5505 91.0726 70.3782 91.1754C70.2059 91.2781 70.0805 91.444 70.0286 91.6378C69.9766 91.8316 70.0023 92.038 70.1001 92.2132C70.1979 92.3883 70.3602 92.5185 70.5524 92.5759L77.5865 94.4604C77.6516 94.4782 77.7188 94.4872 77.7862 94.4873C77.9728 94.4866 78.1527 94.4182 78.2927 94.2948C78.4327 94.1715 78.5232 94.0016 78.5474 93.8166C78.5716 93.6317 78.528 93.4442 78.4245 93.2889C78.3211 93.1337 78.1648 93.0213 77.9848 92.9724H77.9854ZM80.107 88.3765L73.8 84.7359C73.7122 84.6796 73.6139 84.6416 73.511 84.6243C73.4081 84.607 73.3028 84.6108 73.2014 84.6354C73.1 84.66 73.0047 84.7049 72.9212 84.7675C72.8377 84.83 72.7678 84.9089 72.7156 84.9992C72.6635 85.0896 72.6302 85.1896 72.6179 85.2932C72.6055 85.3967 72.6143 85.5018 72.6437 85.6019C72.6731 85.7019 72.7226 85.795 72.789 85.8754C72.8554 85.9559 72.9375 86.022 73.0303 86.0698L79.3367 89.7109C79.4245 89.7658 79.5224 89.8024 79.6246 89.8186C79.7269 89.8348 79.8313 89.8303 79.9318 89.8052C80.0322 89.7802 80.1266 89.7352 80.2092 89.6729C80.2919 89.6106 80.3612 89.5323 80.4129 89.4426C80.4647 89.353 80.4978 89.2538 80.5104 89.1511C80.523 89.0483 80.5148 88.9441 80.4863 88.8446C80.4577 88.7451 80.4094 88.6524 80.3443 88.572C80.2791 88.4915 80.1984 88.4251 80.107 88.3765ZM119.971 111.391L113.664 107.751C113.576 107.697 113.478 107.661 113.376 107.645C113.275 107.629 113.171 107.634 113.071 107.659C112.971 107.684 112.877 107.729 112.794 107.792C112.712 107.854 112.643 107.932 112.591 108.021C112.54 108.11 112.507 108.209 112.494 108.311C112.481 108.414 112.489 108.518 112.517 108.617C112.545 108.716 112.593 108.809 112.658 108.889C112.722 108.97 112.802 109.036 112.893 109.085L119.2 112.726C119.377 112.821 119.583 112.844 119.776 112.789C119.969 112.734 120.133 112.606 120.233 112.433C120.334 112.259 120.362 112.053 120.313 111.859C120.264 111.664 120.142 111.497 119.971 111.391ZM92.2299 79.817L90.3454 72.7835C90.2879 72.5913 90.1578 72.4291 89.9827 72.3312C89.8075 72.2334 89.6011 72.2078 89.4073 72.2597C89.2135 72.3116 89.0476 72.437 88.9448 72.6093C88.842 72.7816 88.8105 72.9872 88.8568 73.1824L90.7413 80.2153C90.764 80.3168 90.8069 80.4126 90.8676 80.497C90.9282 80.5814 91.0053 80.6527 91.0942 80.7066C91.1831 80.7604 91.282 80.7958 91.3849 80.8104C91.4878 80.8251 91.5926 80.8188 91.693 80.7919C91.7934 80.7651 91.8873 80.7182 91.9691 80.654C92.051 80.5899 92.119 80.5099 92.1691 80.4189C92.2192 80.3278 92.2503 80.2275 92.2607 80.1241C92.271 80.0207 92.2604 79.9162 92.2293 79.817H92.2299ZM104.143 124.279L102.259 117.246C102.236 117.145 102.193 117.049 102.132 116.965C102.071 116.881 101.994 116.81 101.905 116.756C101.816 116.702 101.718 116.667 101.615 116.653C101.512 116.638 101.407 116.644 101.307 116.671C101.207 116.698 101.113 116.745 101.032 116.809C100.95 116.873 100.882 116.953 100.832 117.044C100.782 117.135 100.75 117.235 100.74 117.338C100.729 117.441 100.74 117.546 100.771 117.645L102.656 124.678C102.7 124.841 102.796 124.986 102.931 125.089C103.065 125.193 103.23 125.249 103.399 125.249C103.467 125.249 103.534 125.24 103.599 125.222C103.796 125.17 103.964 125.041 104.067 124.864C104.169 124.687 104.196 124.477 104.143 124.279ZM110.214 74.9781C110.126 74.9275 110.029 74.8946 109.929 74.8813C109.829 74.8681 109.727 74.8748 109.629 74.9009C109.531 74.9271 109.44 74.9724 109.359 75.034C109.279 75.0957 109.212 75.1725 109.161 75.2602L105.52 81.5667C105.466 81.6544 105.43 81.7521 105.414 81.8541C105.399 81.956 105.403 82.06 105.429 82.16C105.454 82.26 105.499 82.354 105.561 82.4363C105.623 82.5186 105.701 82.5875 105.791 82.6391C105.88 82.6907 105.979 82.7238 106.081 82.7366C106.183 82.7493 106.287 82.7414 106.386 82.7133C106.486 82.6852 106.578 82.6374 106.659 82.5729C106.739 82.5083 106.806 82.4283 106.855 82.3375L110.496 76.0305C110.546 75.9429 110.579 75.8461 110.592 75.7458C110.606 75.6455 110.599 75.5436 110.573 75.4459C110.547 75.3482 110.501 75.2566 110.44 75.1763C110.378 75.096 110.301 75.0287 110.214 74.9781ZM87.1983 114.843C87.1107 114.792 87.014 114.759 86.9137 114.746C86.8133 114.732 86.7113 114.739 86.6136 114.765C86.5158 114.791 86.4242 114.837 86.3439 114.898C86.2637 114.96 86.1964 115.037 86.146 115.125L82.5048 121.431C82.4525 121.518 82.4181 121.616 82.4037 121.717C82.3893 121.818 82.3951 121.921 82.4208 122.02C82.4466 122.119 82.4917 122.211 82.5536 122.293C82.6155 122.374 82.6929 122.442 82.7814 122.493C82.8698 122.544 82.9676 122.577 83.0689 122.59C83.1702 122.603 83.2731 122.596 83.3716 122.569C83.4701 122.542 83.5622 122.495 83.6426 122.432C83.7229 122.369 83.79 122.291 83.8398 122.201L87.4804 115.895C87.5824 115.718 87.61 115.508 87.5571 115.31C87.5042 115.113 87.3752 114.945 87.1983 114.843ZM122.994 91.6316C122.968 91.5338 122.922 91.4422 122.861 91.3618C122.799 91.2815 122.722 91.2142 122.635 91.1636C122.547 91.113 122.45 91.0803 122.35 91.0672C122.25 91.0541 122.148 91.061 122.05 91.0873L115.015 92.9724C114.835 93.0213 114.678 93.1337 114.575 93.2889C114.471 93.4442 114.428 93.6317 114.452 93.8166C114.476 94.0016 114.567 94.1715 114.707 94.2948C114.847 94.4182 115.027 94.4866 115.213 94.4873C115.281 94.4873 115.348 94.4783 115.414 94.4604L122.449 92.5753C122.547 92.5493 122.638 92.5041 122.719 92.4426C122.799 92.381 122.866 92.3042 122.917 92.2165C122.968 92.1288 123 92.0321 123.014 91.9317C123.027 91.8313 123.02 91.7294 122.994 91.6316ZM78.5302 103.545C78.5042 103.448 78.4591 103.356 78.3976 103.276C78.336 103.195 78.2592 103.128 78.1715 103.077C78.0838 103.026 77.987 102.994 77.8866 102.981C77.7862 102.967 77.6843 102.974 77.5865 103.001L70.5524 104.885C70.4521 104.909 70.3576 104.953 70.2745 105.014C70.1914 105.075 70.1213 105.152 70.0685 105.24C70.0157 105.329 69.9812 105.427 69.967 105.529C69.9528 105.631 69.9593 105.735 69.9859 105.835C70.0126 105.934 70.059 106.027 70.1223 106.109C70.1857 106.19 70.2647 106.258 70.3547 106.308C70.4447 106.358 70.5439 106.39 70.6463 106.401C70.7488 106.413 70.8525 106.403 70.9513 106.374L77.9854 104.489C78.0832 104.463 78.1749 104.418 78.2552 104.356C78.3355 104.295 78.4029 104.218 78.4535 104.13C78.5042 104.043 78.537 103.946 78.5501 103.846C78.5633 103.745 78.5565 103.643 78.5302 103.545Z" fill="#78909C"/>
<path d="M101.612 152.825L96.7459 143.081C96.7215 143.04 96.687 143.006 96.6457 142.983C96.6044 142.959 96.5577 142.947 96.5102 142.947C96.4627 142.947 96.4161 142.959 96.3748 142.983C96.3335 143.006 96.299 143.04 96.2746 143.081L91.4135 152.825C91.3934 152.865 91.3838 152.909 91.3858 152.954C91.3878 152.999 91.4012 153.042 91.4248 153.081C91.4484 153.119 91.4814 153.15 91.5206 153.172C91.5598 153.194 91.604 153.205 91.6489 153.205H101.376C101.421 153.205 101.465 153.194 101.504 153.172C101.543 153.151 101.577 153.119 101.6 153.081C101.624 153.043 101.637 152.999 101.639 152.954C101.641 152.909 101.632 152.865 101.612 152.825ZM96.7003 151.078C96.6489 151.127 96.5814 151.155 96.5105 151.157C96.441 151.156 96.3746 151.128 96.326 151.078C96.3008 151.054 96.2808 151.026 96.2671 150.994C96.2535 150.962 96.2465 150.928 96.2466 150.894C96.2464 150.825 96.2729 150.758 96.3207 150.708C96.3717 150.659 96.4397 150.632 96.5105 150.632C96.5813 150.632 96.6494 150.659 96.7003 150.708C96.7475 150.758 96.7738 150.824 96.7738 150.893C96.7738 150.962 96.7475 151.028 96.7003 151.078ZM96.7739 149.825C96.7739 149.894 96.7462 149.961 96.6968 150.011C96.6474 150.06 96.5804 150.088 96.5105 150.088C96.4407 150.088 96.3737 150.06 96.3243 150.011C96.2749 149.961 96.2472 149.894 96.2472 149.825V147.71C96.2472 147.64 96.2749 147.573 96.3243 147.524C96.3737 147.474 96.4407 147.447 96.5105 147.447C96.5804 147.447 96.6474 147.474 96.6968 147.524C96.7462 147.573 96.7739 147.64 96.7739 147.71V149.825ZM162.964 149.719H160.012C159.811 149.725 159.621 149.809 159.481 149.953C159.341 150.096 159.262 150.289 159.262 150.49C159.262 150.691 159.341 150.884 159.481 151.028C159.621 151.171 159.811 151.255 160.012 151.261H162.964C163.165 151.255 163.355 151.171 163.495 151.028C163.635 150.884 163.714 150.691 163.714 150.49C163.714 150.289 163.635 150.096 163.495 149.953C163.355 149.809 163.165 149.725 162.964 149.719ZM165.916 161.531H160.012C159.811 161.536 159.621 161.62 159.481 161.764C159.341 161.908 159.262 162.1 159.262 162.301C159.262 162.502 159.341 162.695 159.481 162.839C159.621 162.983 159.811 163.066 160.012 163.072H165.916C166.019 163.075 166.122 163.057 166.218 163.019C166.314 162.982 166.401 162.926 166.475 162.854C166.549 162.782 166.608 162.696 166.648 162.601C166.688 162.506 166.709 162.404 166.709 162.301C166.709 162.198 166.688 162.096 166.648 162.001C166.608 161.906 166.549 161.82 166.475 161.749C166.401 161.677 166.314 161.62 166.218 161.583C166.122 161.546 166.019 161.528 165.916 161.531Z" fill="#C8F5ED"/>
<path d="M162.964 149.719C162.759 149.719 162.563 149.801 162.419 149.945C162.274 150.09 162.193 150.286 162.193 150.49V156.395C162.19 156.498 162.208 156.601 162.245 156.697C162.283 156.793 162.339 156.88 162.411 156.954C162.483 157.028 162.569 157.087 162.664 157.127C162.759 157.167 162.861 157.188 162.964 157.188C163.067 157.188 163.169 157.167 163.264 157.127C163.358 157.087 163.444 157.028 163.516 156.954C163.588 156.88 163.644 156.793 163.682 156.697C163.719 156.601 163.737 156.498 163.734 156.395V150.49C163.734 150.388 163.714 150.288 163.676 150.195C163.637 150.101 163.58 150.016 163.509 149.945C163.437 149.873 163.352 149.816 163.259 149.777C163.165 149.739 163.065 149.719 162.964 149.719Z" fill="#C8F5ED"/>
<path d="M162.964 155.625C162.76 155.625 162.564 155.706 162.419 155.851C162.274 155.995 162.193 156.191 162.193 156.395V162.301C162.19 162.404 162.208 162.506 162.245 162.602C162.283 162.698 162.339 162.786 162.411 162.859C162.483 162.933 162.569 162.992 162.664 163.032C162.759 163.072 162.861 163.093 162.964 163.093C163.067 163.093 163.169 163.072 163.263 163.032C163.358 162.992 163.444 162.933 163.516 162.859C163.588 162.786 163.644 162.698 163.682 162.602C163.719 162.506 163.737 162.404 163.734 162.301V156.395C163.734 156.294 163.714 156.194 163.676 156.1C163.637 156.007 163.58 155.922 163.509 155.85C163.437 155.779 163.352 155.722 163.259 155.683C163.165 155.645 163.065 155.625 162.964 155.625V155.625ZM148.963 149.719V156.395C148.963 156.6 149.044 156.796 149.189 156.941C149.333 157.085 149.529 157.166 149.734 157.166C149.938 157.166 150.134 157.085 150.279 156.941C150.423 156.796 150.505 156.6 150.505 156.395V151.26H154.869V156.395C154.877 156.595 154.962 156.783 155.105 156.921C155.249 157.059 155.44 157.136 155.64 157.136C155.839 157.136 156.03 157.059 156.174 156.921C156.318 156.783 156.402 156.595 156.41 156.395V149.719L148.963 149.719Z" fill="#C8F5ED"/>
<path d="M155.64 155.625C155.435 155.625 155.239 155.706 155.095 155.851C154.95 155.995 154.869 156.191 154.869 156.395V161.53H150.504V156.395C150.498 156.195 150.415 156.004 150.271 155.864C150.127 155.724 149.934 155.646 149.733 155.646C149.533 155.646 149.34 155.724 149.196 155.864C149.052 156.004 148.968 156.195 148.963 156.395V163.071H156.41V156.395C156.41 156.191 156.329 155.995 156.184 155.851C156.04 155.706 155.844 155.625 155.64 155.625V155.625ZM148.963 165.97V172.645C148.963 172.849 149.044 173.045 149.189 173.19C149.333 173.334 149.529 173.416 149.734 173.416C149.938 173.416 150.134 173.334 150.279 173.19C150.423 173.045 150.505 172.849 150.505 172.645V167.511H154.869V172.644C154.877 172.843 154.962 173.032 155.105 173.17C155.249 173.308 155.44 173.385 155.64 173.385C155.839 173.385 156.03 173.308 156.174 173.17C156.318 173.032 156.402 172.843 156.41 172.644V165.97H148.963Z" fill="#C8F5ED"/>
<path d="M155.64 171.875C155.435 171.875 155.239 171.956 155.095 172.1C154.95 172.245 154.869 172.441 154.869 172.645V177.78H150.504V172.645C150.498 172.444 150.415 172.254 150.271 172.114C150.127 171.974 149.934 171.895 149.733 171.895C149.533 171.895 149.34 171.974 149.196 172.114C149.052 172.254 148.968 172.444 148.963 172.645V179.32H156.41V172.645C156.41 172.441 156.329 172.245 156.184 172.1C156.04 171.955 155.844 171.874 155.64 171.874V171.875ZM159.242 165.971V172.645C159.238 172.749 159.254 172.852 159.291 172.949C159.328 173.046 159.384 173.134 159.456 173.209C159.528 173.284 159.614 173.344 159.71 173.384C159.805 173.425 159.908 173.446 160.012 173.446C160.116 173.446 160.218 173.425 160.314 173.384C160.409 173.344 160.495 173.284 160.567 173.209C160.639 173.134 160.695 173.046 160.732 172.949C160.769 172.852 160.786 172.749 160.782 172.645V167.511H165.146V172.644C165.143 172.747 165.161 172.85 165.199 172.946C165.236 173.042 165.292 173.129 165.364 173.203C165.436 173.277 165.522 173.336 165.617 173.376C165.712 173.416 165.814 173.436 165.917 173.436C166.02 173.436 166.122 173.416 166.217 173.376C166.312 173.336 166.397 173.277 166.469 173.203C166.541 173.129 166.597 173.042 166.635 172.946C166.672 172.85 166.69 172.747 166.687 172.644V165.97L159.242 165.971Z" fill="#C8F5ED"/>
<path d="M165.916 171.875C165.712 171.875 165.516 171.956 165.372 172.1C165.227 172.245 165.146 172.441 165.146 172.645V177.78H160.782V172.645C160.786 172.541 160.769 172.438 160.732 172.341C160.695 172.244 160.639 172.155 160.567 172.08C160.495 172.006 160.409 171.946 160.314 171.906C160.218 171.865 160.116 171.844 160.012 171.844C159.908 171.844 159.805 171.865 159.71 171.906C159.614 171.946 159.528 172.006 159.456 172.08C159.384 172.155 159.328 172.244 159.291 172.341C159.254 172.438 159.238 172.541 159.242 172.645V179.32H166.687V172.645C166.687 172.44 166.606 172.244 166.462 172.1C166.317 171.955 166.121 171.874 165.916 171.874V171.875ZM134.679 97.896H98.4067V99.4371H134.679C135.95 99.4384 137.168 99.9435 138.066 100.842C138.964 101.74 139.47 102.958 139.471 104.228H141.012C141.01 102.549 140.342 100.94 139.155 99.7527C137.968 98.5656 136.358 97.8979 134.679 97.896ZM140.242 170.076C139.542 170.076 138.858 170.284 138.276 170.672C137.695 171.061 137.241 171.613 136.974 172.26C136.706 172.906 136.636 173.617 136.772 174.303C136.909 174.989 137.246 175.62 137.741 176.114C138.235 176.609 138.866 176.946 139.552 177.082C140.238 177.218 140.949 177.148 141.596 176.88C142.242 176.612 142.794 176.159 143.182 175.577C143.571 174.995 143.778 174.311 143.778 173.611C143.777 172.674 143.404 171.775 142.741 171.112C142.078 170.449 141.179 170.077 140.242 170.076V170.076ZM140.242 175.608C139.847 175.608 139.461 175.491 139.133 175.272C138.805 175.053 138.549 174.741 138.398 174.377C138.247 174.012 138.207 173.611 138.284 173.224C138.36 172.837 138.55 172.481 138.829 172.202C139.108 171.923 139.463 171.733 139.85 171.656C140.237 171.578 140.639 171.618 141.003 171.768C141.368 171.919 141.68 172.175 141.899 172.503C142.119 172.83 142.236 173.216 142.237 173.611C142.236 174.14 142.026 174.647 141.652 175.022C141.278 175.396 140.771 175.607 140.242 175.608Z" fill="#C8F5ED"/>
<path d="M96.5 95.1301C95.8006 95.1301 95.117 95.3375 94.5355 95.7261C93.9539 96.1147 93.5007 96.667 93.2331 97.3131C92.9655 97.9593 92.8955 98.6703 93.032 99.3562C93.1685 100.042 93.5053 100.672 93.9999 101.167C94.4945 101.661 95.1246 101.998 95.8105 102.134C96.4965 102.271 97.2075 102.201 97.8536 101.933C98.4997 101.665 99.0519 101.212 99.4404 100.63C99.8289 100.049 100.036 99.365 100.036 98.6656C100.035 97.7281 99.6623 96.8293 98.9993 96.1664C98.3364 95.5036 97.4375 95.1309 96.5 95.1301ZM96.5 100.662C96.1054 100.662 95.7195 100.545 95.3913 100.326C95.0631 100.106 94.8072 99.7949 94.6561 99.4303C94.5049 99.0657 94.4653 98.6645 94.5422 98.2774C94.6191 97.8903 94.809 97.5347 95.088 97.2556C95.367 96.9764 95.7225 96.7862 96.1096 96.7091C96.4966 96.632 96.8979 96.6714 97.2625 96.8224C97.6272 96.9733 97.9389 97.229 98.1583 97.557C98.3776 97.8851 98.4948 98.2709 98.4949 98.6656C98.4946 99.1947 98.2844 99.702 97.9103 100.076C97.5363 100.45 97.0291 100.661 96.5 100.662ZM139.471 155.438H141.012V153.897H139.471V155.438ZM139.471 149.275H141.012V147.734H139.471V149.275ZM139.471 152.357H141.012V150.815H139.471V152.357ZM139.471 143.112H141.012V141.57H139.471V143.112ZM139.471 146.193H141.012V144.653H139.471V146.193ZM139.471 161.602H141.012V160.06H139.471V161.602ZM139.471 167.765H141.012V166.224H139.471V167.765ZM139.471 170.846H141.012V169.305H139.471V170.846ZM139.471 140.03H141.012V138.489H139.471V140.03ZM139.471 158.52H141.012V156.979H139.471V158.52ZM139.471 164.683H141.012V163.142H139.471V164.683ZM139.471 127.703H141.012V126.162H139.471V127.703ZM139.471 115.377H141.012V113.836H139.471V115.377ZM139.471 112.295H141.012V110.754H139.471V112.295ZM139.471 109.213H141.012V107.672H139.471V109.213ZM139.471 104.591V106.132H141.012V104.591L139.471 104.591ZM139.471 118.459H141.012V116.917H139.471V118.459ZM139.471 121.54H141.012V119.999H139.471V121.54ZM139.471 130.785H141.012V129.244H139.471V130.785ZM139.471 133.866H141.012V132.326H139.471V133.866ZM139.471 124.622H141.012V123.081H139.471V124.622ZM139.471 136.948H141.012V135.408H139.471V136.948Z" fill="#C8F5ED"/>
<path d="M58.3209 97.8958C57.0505 97.8946 55.8325 97.3895 54.9341 96.4913C54.0357 95.5931 53.5302 94.3752 53.5287 93.1049H51.9876C51.9896 94.7838 52.6575 96.3934 53.8448 97.5805C55.0321 98.7676 56.6419 99.4353 58.3209 99.437H94.5939V97.8958H58.3209ZM52.7584 20.1851C52.0591 20.1849 51.3754 20.3922 50.7939 20.7806C50.2123 21.169 49.759 21.7212 49.4912 22.3672C49.2235 23.0133 49.1533 23.7242 49.2896 24.4101C49.4259 25.0961 49.7625 25.7262 50.2569 26.2208C50.7512 26.7154 51.3812 27.0524 52.0671 27.189C52.7529 27.3256 53.4639 27.2558 54.1101 26.9883C54.7562 26.7209 55.3086 26.2679 55.6973 25.6865C56.086 25.1051 56.2936 24.4216 56.2938 23.7223C56.2931 22.7847 55.9204 21.8857 55.2576 21.2226C54.5948 20.5594 53.696 20.1863 52.7584 20.1851ZM52.7584 25.7166C52.3637 25.7167 51.9778 25.5997 51.6495 25.3805C51.3213 25.1612 51.0654 24.8495 50.9143 24.4849C50.7632 24.1202 50.7237 23.7189 50.8007 23.3317C50.8777 22.9446 51.0679 22.5889 51.347 22.3099C51.6262 22.0308 51.9818 21.8408 52.369 21.7639C52.7562 21.6869 53.1575 21.7266 53.5221 21.8778C53.8868 22.029 54.1984 22.2849 54.4175 22.6133C54.6367 22.9416 54.7535 23.3275 54.7533 23.7223C54.7527 24.2511 54.5423 24.7581 54.1683 25.132C53.7943 25.5059 53.2872 25.7161 52.7584 25.7166Z" fill="#C8F5ED"/>
<path d="M96.5 95.1301C95.8007 95.1301 95.117 95.3375 94.5356 95.726C93.9541 96.1146 93.5009 96.6668 93.2332 97.3129C92.9656 97.9589 92.8955 98.6699 93.0319 99.3558C93.1683 100.042 93.505 100.672 93.9995 101.166C94.4939 101.661 95.1239 101.998 95.8098 102.134C96.4957 102.271 97.2066 102.201 97.8528 101.933C98.4989 101.666 99.0512 101.213 99.4398 100.631C99.8284 100.05 100.036 99.3661 100.036 98.6668C100.035 97.7292 99.6623 96.8303 98.9994 96.1672C98.3365 95.5042 97.4376 95.1312 96.5 95.1301ZM96.5 100.662C96.1053 100.662 95.7194 100.545 95.3912 100.326C95.0629 100.106 94.8071 99.7947 94.656 99.4301C94.5049 99.0654 94.4653 98.6641 94.5423 98.277C94.6192 97.8899 94.8093 97.5343 95.0884 97.2552C95.3675 96.9761 95.7231 96.786 96.1103 96.709C96.4974 96.632 96.8987 96.6716 97.2633 96.8227C97.628 96.9738 97.9396 97.2297 98.1588 97.5579C98.3781 97.8862 98.495 98.272 98.4949 98.6668C98.4943 99.1956 98.2839 99.7027 97.9099 100.077C97.5359 100.451 97.0289 100.661 96.5 100.662ZM51.9876 71.1704H53.5287V69.6299H51.9876V71.1704ZM51.9876 77.3344H53.5287V75.7933H51.9876V77.3344ZM51.9876 61.926H53.5287V60.3848H51.9876V61.926ZM51.9876 68.0893H53.5287V66.5482H51.9876V68.0893ZM51.9876 65.0077H53.5287V63.4665H51.9876V65.0077ZM51.9876 74.2521H53.5287V72.7116H51.9876V74.2521ZM51.9876 80.4155H53.5287V78.8749H51.9876V80.4155ZM51.9876 89.6606H53.5287V88.12H51.9876V89.6606ZM51.9876 92.7422H53.5287V91.2017H51.9876V92.7422ZM51.9876 83.4978H53.5287V81.956H51.9876V83.4978ZM51.9876 86.5789H53.5287V85.0383H51.9876V86.5789ZM51.9876 46.5175H53.5287V44.977H51.9876V46.5175ZM51.9876 34.1914H53.5287V32.6502H51.9876V34.1914ZM51.9876 37.2725H53.5287V35.7319H51.9876V37.2725ZM51.9876 40.3542H53.5287V38.8136H51.9876V40.3542ZM51.9876 26.4869V28.028H53.5287V26.4869H51.9876ZM51.9876 31.1097H53.5287V29.5686H51.9876V31.1097ZM51.9876 49.5992H53.5287V48.0587H51.9876V49.5992ZM51.9876 55.7626H53.5287V54.222H51.9876V55.7626ZM51.9876 43.4358H53.5287V41.8953H51.9876V43.4358ZM51.9876 52.6809H53.5287V51.1404H51.9876V52.6809ZM51.9876 58.8443H53.5287V57.3037H51.9876V58.8443ZM43.751 7.49278L43.7183 6.9304L31.0926 3.69922L18.4709 6.9304L18.4382 7.49278C17.6172 21.8372 19.3808 30.976 30.8245 35.2361L31.0932 35.336L31.3618 35.2361C42.8021 30.9771 44.568 21.8389 43.751 7.49278ZM31.0932 33.6903C20.8694 29.756 19.2284 21.641 19.9455 8.14334L31.0938 5.28999L42.2438 8.14334C42.9574 21.6421 41.3152 29.7572 31.0938 33.6903H31.0932Z" fill="#C8F5ED"/>
<path d="M39.2578 12.0148L39.2257 11.4518L31.0937 9.37109L22.9612 11.4518L22.9284 12.0148C22.4116 21.0753 23.5381 26.8521 30.8245 29.5659L31.0931 29.6657L31.3624 29.5659C38.6499 26.8521 39.7758 21.0759 39.2584 12.0148H39.2578ZM31.092 28.0189C26.3932 26.191 23.9329 23.0825 24.4369 12.6642L31.0937 10.9613L37.7511 12.6648C38.157 20.7506 37.1415 25.6391 31.0925 28.0189H31.092Z" fill="#C8F5ED"/>
<path d="M30.3223 5.35072H31.8634V10.1657H30.3223V5.35072ZM30.3223 28.8438H31.8634V33.6588H30.3223V28.8438ZM34.9673 14.9771L28.8582 21.0856L27.2207 19.4469L26.1304 20.5361L28.8582 23.265L36.0564 16.0663L34.9673 14.9771ZM174.563 7.49278L174.531 6.9304L161.906 3.69922L149.282 6.9304L149.25 7.49278C148.43 21.8378 150.193 30.976 161.637 35.2361L161.906 35.336L162.174 35.2361C173.615 30.9771 175.38 21.8389 174.563 7.49278ZM161.906 33.6903C151.682 29.756 150.041 21.641 150.758 8.14334L161.906 5.28999L173.056 8.14334C173.769 21.6421 172.127 29.7572 161.906 33.6903Z" fill="#C8F5ED"/>
<path d="M170.071 12.0148L170.038 11.4518L161.906 9.37109L153.773 11.4518L153.741 12.0148C153.224 21.0753 154.35 26.8521 161.637 29.5659L161.906 29.6657L162.175 29.5659C169.462 26.8527 170.588 21.0759 170.071 12.0148ZM161.905 28.0189C157.206 26.191 154.745 23.0825 155.249 12.6642L161.906 10.9613L168.562 12.6648C168.969 20.7506 167.953 25.6397 161.905 28.0189Z" fill="#C8F5ED"/>
<path d="M161.135 5.35083H162.677V10.1658H161.135V5.35083ZM161.135 28.8439H162.677V33.6589H161.135V28.8439ZM189.406 34.014H179.981L179.255 32.6241C179.022 32.1769 178.671 31.8022 178.24 31.5411C177.808 31.28 177.314 31.1425 176.81 31.1437H171.574C170.843 31.1443 170.142 31.4349 169.625 31.9518C169.108 32.4686 168.816 33.1695 168.815 33.9007V47.4473C168.816 48.1787 169.107 48.8799 169.624 49.397C170.142 49.9142 170.843 50.2052 171.574 50.2061H189.407C190.138 50.2052 190.839 49.9142 191.356 49.397C191.874 48.8799 192.164 48.1787 192.165 47.4473V36.7733C192.165 36.0417 191.874 35.3402 191.357 34.8228C190.84 34.3054 190.138 34.0143 189.407 34.0134L189.406 34.014ZM190.624 47.4473C190.624 47.7703 190.496 48.08 190.267 48.3084C190.039 48.5368 189.729 48.6652 189.406 48.6655H171.574C171.251 48.6651 170.941 48.5366 170.713 48.3082C170.485 48.0798 170.356 47.7702 170.356 47.4473V33.9007C170.357 33.578 170.485 33.2688 170.713 33.0408C170.942 32.8128 171.251 32.6845 171.574 32.6842H176.809C177.032 32.6839 177.25 32.7447 177.44 32.86C177.631 32.9754 177.785 33.1408 177.888 33.3383L179.046 35.5545H189.406C189.729 35.555 190.039 35.6835 190.267 35.912C190.496 36.1405 190.624 36.4502 190.624 36.7733V47.4473ZM189.406 58.2826H179.981L179.255 56.8927C179.022 56.4454 178.671 56.0707 178.24 55.8095C177.808 55.5483 177.314 55.4107 176.81 55.4117H171.574C170.843 55.4125 170.142 55.7032 169.625 56.2202C169.107 56.7371 168.816 57.4381 168.815 58.1693V71.7154C168.816 72.4468 169.107 73.1479 169.624 73.6651C170.142 74.1823 170.843 74.4732 171.574 74.4741H189.407C190.138 74.4732 190.839 74.1823 191.356 73.6651C191.874 73.1479 192.164 72.4468 192.165 71.7154V61.0413C192.164 60.31 191.874 59.6088 191.356 59.0916C190.839 58.5745 190.138 58.2835 189.407 58.2826H189.406ZM190.624 71.7154C190.624 72.0384 190.496 72.3481 190.267 72.5764C190.039 72.8048 189.729 72.9333 189.406 72.9336H171.574C171.251 72.9331 170.941 72.8046 170.713 72.5762C170.485 72.3479 170.356 72.0383 170.356 71.7154V58.1693C170.356 57.8466 170.485 57.5372 170.713 57.309C170.941 57.0809 171.251 56.9526 171.574 56.9523H176.809C177.032 56.9519 177.25 57.0127 177.44 57.1281C177.631 57.2434 177.785 57.4089 177.888 57.6063L179.046 59.8231H189.406C189.729 59.8235 190.039 59.9519 190.267 60.1803C190.496 60.4087 190.624 60.7183 190.624 61.0413V71.7154ZM190.099 82.5501H180.673L179.946 81.1602C179.714 80.7131 179.363 80.3386 178.932 80.0775C178.501 79.8164 178.006 79.6788 177.502 79.6798H172.266C171.535 79.6804 170.834 79.9711 170.316 80.488C169.799 81.005 169.508 81.706 169.507 82.4374V95.9834C169.508 96.7149 169.799 97.4162 170.316 97.9334C170.833 98.4505 171.535 98.7414 172.266 98.7422H190.099C190.83 98.7413 191.531 98.4503 192.048 97.9332C192.566 97.416 192.856 96.7148 192.857 95.9834V85.3094C192.857 84.5779 192.566 83.8766 192.049 83.3593C191.531 82.842 190.83 82.551 190.099 82.5501ZM191.316 95.9834C191.316 96.3063 191.188 96.6159 190.959 96.8443C190.731 97.0727 190.422 97.2012 190.099 97.2016H172.266C171.943 97.2013 171.633 97.0729 171.405 96.8445C171.177 96.6161 171.048 96.3064 171.048 95.9834V82.4374C171.049 82.1146 171.177 81.8053 171.406 81.5773C171.634 81.3492 171.943 81.2211 172.266 81.2209H177.502C177.725 81.2204 177.943 81.2811 178.133 81.3962C178.323 81.5114 178.478 81.6766 178.581 81.8738L179.739 84.0912H190.099C190.422 84.0917 190.731 84.2202 190.959 84.4485C191.188 84.6769 191.316 84.9865 191.316 85.3094V95.9834ZM131.011 175.995C118.127 181.747 104.009 184.185 89.9413 183.089C75.8741 181.992 62.3043 177.396 50.4666 169.717C38.629 162.039 28.8993 151.522 22.1628 139.124C15.4263 126.726 11.897 112.84 11.8958 98.7305H10.3541C10.3597 113.096 13.9562 127.232 20.8166 139.853C27.6771 152.475 37.5838 163.181 49.6358 170.998C61.6879 178.816 75.5029 183.497 89.8247 184.615C104.147 185.733 118.521 183.253 131.64 177.401L131.011 175.995Z" fill="#C8F5ED"/>
<path d="M181.105 98.7305C181.11 113.58 177.206 128.17 169.784 141.032L171.117 141.804C178.675 128.707 182.651 113.851 182.645 98.7305H181.105Z" fill="#C8F5ED"/>
<path d="M157.049 140.648V142.188H169.68V154.82H171.221V140.648H157.049ZM50.6572 5.35132C50.4386 5.35132 50.2248 5.41617 50.043 5.53767C49.8612 5.65917 49.7195 5.83185 49.6358 6.03389C49.5522 6.23592 49.5303 6.45823 49.573 6.67269C49.6157 6.88715 49.7211 7.08412 49.8757 7.2387C50.0304 7.39329 50.2274 7.49852 50.4419 7.54111C50.6564 7.5837 50.8787 7.56173 51.0807 7.47797C51.2827 7.3942 51.4553 7.25242 51.5767 7.07055C51.6981 6.88868 51.7628 6.67489 51.7627 6.45622C51.7626 6.16313 51.646 5.88209 51.4387 5.6749C51.2314 5.46771 50.9503 5.35132 50.6572 5.35132ZM55.6941 5.68594H78.0741V7.2265H55.6941V5.68594ZM50.6572 10.1663C50.4386 10.1663 50.2248 10.2311 50.0431 10.3526C49.8613 10.4741 49.7196 10.6467 49.6359 10.8487C49.5522 11.0507 49.5303 11.273 49.573 11.4874C49.6156 11.7019 49.7209 11.8988 49.8755 12.0534C50.0301 12.2081 50.2271 12.3133 50.4416 12.356C50.656 12.3986 50.8783 12.3768 51.0803 12.2931C51.2823 12.2094 51.4549 12.0677 51.5764 11.8859C51.6979 11.7041 51.7627 11.4904 51.7627 11.2718C51.7626 10.9786 51.646 10.6975 51.4387 10.4902C51.2315 10.2829 50.9504 10.1664 50.6572 10.1663ZM55.6941 10.5009H78.0741V12.0414H55.6941V10.5009ZM50.6572 14.9818C50.4386 14.9818 50.2248 15.0466 50.0431 15.1681C49.8613 15.2896 49.7196 15.4622 49.6359 15.6642C49.5522 15.8662 49.5303 16.0885 49.573 16.303C49.6156 16.5174 49.7209 16.7144 49.8755 16.869C50.0301 17.0236 50.2271 17.1289 50.4416 17.1715C50.656 17.2142 50.8783 17.1923 51.0803 17.1086C51.2823 17.0249 51.4549 16.8833 51.5764 16.7015C51.6979 16.5197 51.7627 16.3059 51.7627 16.0873C51.7627 15.7941 51.6462 15.5129 51.4389 15.3056C51.2316 15.0983 50.9504 14.9818 50.6572 14.9818ZM55.6941 15.3164H78.0741V16.857H55.6941V15.3164ZM116.031 5.35132C115.813 5.35132 115.599 5.41617 115.417 5.53767C115.235 5.65917 115.094 5.83185 115.01 6.03389C114.926 6.23592 114.904 6.45823 114.947 6.67269C114.99 6.88715 115.095 7.08412 115.25 7.2387C115.405 7.39329 115.602 7.49852 115.816 7.54111C116.031 7.5837 116.253 7.56173 116.455 7.47797C116.657 7.3942 116.829 7.25242 116.951 7.07055C117.072 6.88868 117.137 6.67489 117.137 6.45622C117.137 6.16313 117.02 5.88209 116.813 5.6749C116.606 5.46771 116.324 5.35132 116.031 5.35132ZM121.068 5.68594H143.448V7.2265H121.068V5.68594ZM116.031 10.1663C115.813 10.1663 115.599 10.2311 115.417 10.3526C115.235 10.4741 115.094 10.6467 115.01 10.8487C114.926 11.0507 114.904 11.273 114.947 11.4874C114.99 11.7019 115.095 11.8988 115.25 12.0534C115.404 12.2081 115.601 12.3133 115.816 12.356C116.03 12.3986 116.252 12.3768 116.454 12.2931C116.656 12.2094 116.829 12.0677 116.951 11.8859C117.072 11.7041 117.137 11.4904 117.137 11.2718C117.137 10.9786 117.02 10.6975 116.813 10.4902C116.606 10.2829 116.325 10.1664 116.031 10.1663ZM121.068 10.5009H143.448V12.0414H121.068V10.5009ZM116.031 14.9818C115.813 14.9818 115.599 15.0466 115.417 15.1681C115.235 15.2896 115.094 15.4622 115.01 15.6642C114.926 15.8662 114.904 16.0885 114.947 16.303C114.99 16.5174 115.095 16.7144 115.25 16.869C115.404 17.0236 115.601 17.1289 115.816 17.1715C116.03 17.2142 116.252 17.1923 116.454 17.1086C116.656 17.0249 116.829 16.8833 116.951 16.7015C117.072 16.5197 117.137 16.3059 117.137 16.0873C117.137 15.7941 117.02 15.5129 116.813 15.3056C116.606 15.0983 116.325 14.9818 116.031 14.9818ZM121.068 15.3164H143.448V16.857H121.068V15.3164ZM21.9521 87.0636V95.9834C21.9517 96.3062 21.8234 96.6158 21.5951 96.8442C21.3669 97.0726 21.0573 97.2011 20.7345 97.2015H2.90132C2.57843 97.2011 2.26891 97.0726 2.04065 96.8442C1.81239 96.6158 1.68402 96.3062 1.68371 95.9834V87.063H0.142578V95.9828C0.143505 96.7141 0.434457 97.4153 0.951621 97.9325C1.46878 98.4496 2.16994 98.7406 2.90132 98.7415H20.7345C21.4658 98.7406 22.167 98.4496 22.6842 97.9325C23.2013 97.4153 23.4923 96.7141 23.4932 95.9828V87.063L21.9521 87.0636Z" fill="#C8F5ED"/>
<path d="M20.7339 65.1859H2.90074C2.16936 65.1869 1.46826 65.478 0.951206 65.9953C0.434152 66.5126 0.14335 67.2138 0.142578 67.9452V87.911H1.68371V67.9446C1.68402 67.6218 1.81231 67.3123 2.04044 67.084C2.26858 66.8556 2.57795 66.727 2.90074 66.7264H20.7339C21.0569 66.7269 21.3666 66.8555 21.595 67.0839C21.8233 67.3124 21.9517 67.6222 21.9521 67.9452V87.911H23.4932V67.9446C23.4923 67.2131 23.2012 66.5119 22.6839 65.9947C22.1667 65.4775 21.4653 65.1866 20.7339 65.1859ZM161.906 13.9482C161.188 13.9487 160.5 14.2339 159.992 14.7412C159.485 15.2486 159.199 15.9366 159.198 16.6544V17.3721C159.199 18.0901 159.484 18.7785 159.992 19.2861C160.5 19.7938 161.188 20.0793 161.906 20.0801V18.5395C161.597 18.5394 161.3 18.4163 161.081 18.1973C160.862 17.9783 160.738 17.6813 160.738 17.3716V16.6544C160.745 16.3493 160.871 16.0589 161.089 15.8455C161.308 15.6321 161.601 15.5126 161.906 15.5126C162.211 15.5126 162.504 15.6321 162.723 15.8455C162.941 16.0589 163.067 16.3493 163.074 16.6544H164.614C164.613 15.9367 164.328 15.2486 163.82 14.7413C163.312 14.2339 162.624 13.9487 161.906 13.9482Z" fill="#C8F5ED"/>
<path d="M161.906 18.5401V20.0806C162.216 20.0808 162.512 20.2036 162.731 20.4221C162.95 20.6406 163.073 20.937 163.074 21.2462V21.9634C163.067 22.2685 162.941 22.5589 162.723 22.7723C162.504 22.9857 162.211 23.1052 161.906 23.1052C161.601 23.1052 161.308 22.9857 161.089 22.7723C160.871 22.5589 160.745 22.2685 160.738 21.9634H159.198C159.198 22.6816 159.483 23.3705 159.991 23.8784C160.499 24.3863 161.188 24.6716 161.906 24.6716C162.624 24.6716 163.313 24.3863 163.821 23.8784C164.329 23.3705 164.614 22.6816 164.614 21.9634V21.2462C164.613 20.5285 164.328 19.8404 163.82 19.3331C163.312 18.8257 162.624 18.5405 161.906 18.5401ZM161.136 12.3708H162.677V14.5847H161.136V12.3708Z" fill="#C8F5ED"/>
<path d="M161.136 24.0336H162.677V26.2498H161.136V24.0336ZM3.85791 68.9379V76.4158H19.7773V68.9379H3.85791ZM18.2356 74.8753H5.39904V70.4791H18.2356V74.8753ZM5.39846 78.0259V81.2606H8.63315V78.0259H5.39846ZM7.09202 79.7194H6.93901V79.567H7.09202V79.7194ZM10.2006 78.0259V81.2606H13.4353V78.0259H10.2006ZM11.8941 79.7194H11.7411V79.567H11.8947L11.8941 79.7194ZM15.0021 78.0259V81.2606H18.2374V78.0259H15.0021ZM16.6962 79.7194H16.5432V79.567H16.6962V79.7194ZM5.39846 82.5004V85.7351H8.63315V82.4998L5.39846 82.5004ZM7.09202 84.1939H6.93901V84.0409H7.09202V84.1939ZM10.2006 82.5004V85.7351H13.4353V82.4998L10.2006 82.5004ZM11.8941 84.1939H11.7411V84.0409H11.8947L11.8941 84.1939ZM15.0021 82.5004V85.7351H18.2374V82.4998L15.0021 82.5004ZM16.6962 84.1939H16.5432V84.0409H16.6962V84.1939ZM5.39846 86.9737V90.2084H8.63315V86.9731L5.39846 86.9737ZM7.09202 88.6672H6.93901V88.5142H7.09202V88.6672ZM10.2006 86.9737V90.2084H13.4353V86.9731L10.2006 86.9737ZM11.8941 88.6672H11.7411V88.5142H11.8947L11.8941 88.6672ZM15.0021 86.9737V90.2084H18.2374V86.9731L15.0021 86.9737ZM16.6962 88.6672H16.5432V88.5142H16.6962V88.6672ZM10.2006 91.4482V94.6829H13.4353V91.4476L10.2006 91.4482ZM11.8941 93.1417H11.7411V92.9887H11.8947L11.8941 93.1417ZM96.5 0.124119C94.5463 0.124119 92.6365 0.70346 91.012 1.78888C89.3876 2.8743 88.1215 4.41705 87.3738 6.22203C86.6262 8.02702 86.4306 10.0132 86.8117 11.9293C87.1929 13.8455 88.1337 15.6056 89.5152 16.9871C90.8966 18.3686 92.6567 19.3094 94.5729 19.6905C96.4891 20.0717 98.4752 19.876 100.28 19.1284C102.085 18.3807 103.628 17.1146 104.713 15.4902C105.799 13.8657 106.378 11.9559 106.378 10.0022C106.375 7.38313 105.334 4.87207 103.482 3.02004C101.63 1.16802 99.1191 0.126902 96.5 0.124119ZM96.5 18.3392C94.8511 18.3392 93.2393 17.8502 91.8683 16.9341C90.4973 16.0181 89.4287 14.716 88.7977 13.1926C88.1667 11.6693 88.0016 9.99297 88.3232 8.37575C88.6449 6.75854 89.439 5.27304 90.6049 4.10709C91.7709 2.94115 93.2563 2.14713 94.8736 1.82544C96.4908 1.50376 98.1671 1.66886 99.6904 2.29987C101.214 2.93087 102.516 3.99944 103.432 5.37045C104.348 6.74145 104.837 8.35332 104.837 10.0022C104.834 12.2124 103.955 14.3313 102.392 15.8941C100.829 17.4568 98.7102 18.336 96.5 18.3386V18.3392Z" fill="#C8F5ED"/>
<path d="M89.5238 15.8889L102.387 3.0249L103.476 4.11462L90.6135 16.978L89.5238 15.8889ZM5.01947 58.3814H18.6158V59.9219H5.01947V58.3814ZM5.01947 53.035H18.6158V54.5755H5.01947V53.035ZM5.01947 47.6886H18.6158V49.2292H5.01947V47.6886ZM5.01947 42.3416H18.6158V43.8822H5.01947V42.3416ZM5.01947 36.9959H18.6158V38.5364H5.01947V36.9959ZM31.0938 142.029C28.7518 142.029 26.4623 142.723 24.515 144.025C22.5677 145.326 21.05 147.175 20.1537 149.339C19.2575 151.503 19.023 153.884 19.4799 156.181C19.9368 158.478 21.0646 160.588 22.7206 162.244C24.3767 163.9 26.4866 165.027 28.7836 165.484C31.0807 165.941 33.4616 165.707 35.6253 164.81C37.7891 163.914 39.6384 162.396 40.9396 160.449C42.2408 158.502 42.9352 156.212 42.9352 153.87C42.9352 150.73 41.6877 147.718 39.467 145.497C37.2463 143.277 34.2343 142.029 31.0938 142.029Z" fill="#C8F5ED"/>
<path d="M34.7746 149.465C34.5577 149.465 34.3498 149.551 34.1966 149.705C34.0435 149.858 33.9575 150.066 33.9576 150.283V152.922C33.9576 152.964 33.9493 153.006 33.9332 153.045C33.917 153.084 33.8934 153.119 33.8636 153.149C33.8337 153.179 33.7983 153.202 33.7594 153.219C33.7204 153.235 33.6786 153.243 33.6364 153.243C33.5943 153.243 33.5525 153.235 33.5135 153.219C33.4746 153.202 33.4392 153.179 33.4093 153.149C33.3795 153.119 33.3558 153.084 33.3397 153.045C33.3236 153.006 33.3153 152.964 33.3153 152.922V147.648C33.3153 147.431 33.2291 147.223 33.0756 147.07C32.9222 146.916 32.7141 146.83 32.4971 146.83C32.2801 146.83 32.072 146.916 31.9186 147.07C31.7651 147.223 31.6789 147.431 31.6789 147.648V152.606C31.6789 152.648 31.6706 152.69 31.6545 152.729C31.6383 152.768 31.6147 152.803 31.5849 152.833C31.555 152.863 31.5196 152.886 31.4807 152.903C31.4417 152.919 31.3999 152.927 31.3577 152.927C31.3156 152.927 31.2738 152.919 31.2348 152.903C31.1959 152.886 31.1605 152.863 31.1306 152.833C31.1008 152.803 31.0771 152.768 31.061 152.729C31.0449 152.69 31.0365 152.648 31.0365 152.606V146.968C31.0365 146.751 30.9503 146.543 30.7968 146.389C30.6433 146.236 30.4352 146.15 30.2181 146.15C30.001 146.15 29.7929 146.236 29.6394 146.389C29.4859 146.543 29.3996 146.751 29.3996 146.968V148.156L29.3985 152.452V152.868C29.3988 152.933 29.4252 152.997 29.4719 153.043C29.5186 153.09 29.5819 153.116 29.6478 153.116C29.733 153.116 29.8147 153.15 29.8749 153.21C29.9352 153.27 29.969 153.352 29.969 153.437C29.969 153.522 29.9352 153.604 29.8749 153.664C29.8147 153.724 29.733 153.758 29.6478 153.758C29.4115 153.758 29.1849 153.664 29.0176 153.497C28.8504 153.33 28.7561 153.104 28.7555 152.868V148.479C28.7555 148.263 28.6694 148.055 28.516 147.901C28.3627 147.748 28.1548 147.662 27.9379 147.662C27.7211 147.662 27.5131 147.748 27.3598 147.901C27.2065 148.055 27.1203 148.263 27.1203 148.479V155.565C27.1204 155.642 27.0925 155.717 27.0417 155.776C26.991 155.834 26.9208 155.872 26.8441 155.883C26.8353 155.894 26.826 155.904 26.8161 155.914C26.7863 155.943 26.7509 155.967 26.7119 155.983C26.6729 155.999 26.6311 156.008 26.5889 156.008C26.5467 156.008 26.505 155.999 26.466 155.983C26.427 155.967 26.3916 155.943 26.3618 155.914L25.4799 155.032C25.3921 154.944 25.2878 154.874 25.1731 154.826C25.0583 154.779 24.9352 154.754 24.8109 154.754C24.6866 154.754 24.5635 154.778 24.4487 154.826C24.3338 154.873 24.2294 154.943 24.1414 155.031C24.0535 155.118 23.9837 155.223 23.936 155.337C23.8883 155.452 23.8638 155.575 23.8636 155.7C23.8635 155.824 23.8879 155.947 23.9354 156.062C23.9828 156.177 24.0525 156.281 24.1403 156.369L26.1498 158.378L26.1521 158.382L26.2771 158.505C26.2843 158.515 26.2908 158.525 26.2963 158.536L27.6366 159.879C27.7687 160.009 27.9272 160.11 28.1014 160.174C28.2757 160.239 28.4617 160.265 28.6469 160.251H28.6551C28.6825 160.251 28.7386 160.256 28.7578 160.257L33.9448 160.26C34.382 160.26 34.8012 160.086 35.1102 159.776C35.4193 159.467 35.5931 159.048 35.5934 158.61V150.283C35.5932 150.066 35.5069 149.858 35.3534 149.705C35.1999 149.551 34.9917 149.465 34.7746 149.465Z" fill="#1A1C21"/>
</g>
<defs>
<clipPath id="clip0_22_3688">
<rect width="193" height="185" fill="white"/>
</clipPath>
</defs>
</svg>
