<svg width="246" height="158" viewBox="0 0 246 158" fill="none" xmlns="http://www.w3.org/2000/svg">
<path d="M168.917 102.704H94.8458C91.0126 102.704 87.9041 99.5959 87.9041 95.7627C87.9041 91.9295 91.0126 88.821 94.8458 88.821H168.917C172.751 88.821 175.859 91.9295 175.859 95.7627C175.859 99.5959 172.751 102.704 168.917 102.704Z" fill="#78909C"/>
<path d="M177.743 126.735C174.859 126.735 172.169 124.928 171.179 122.049L141.682 36.1612C140.436 32.5372 142.366 28.5866 145.99 27.3412C149.608 26.0958 153.564 28.0251 154.81 31.6491L184.307 117.537C185.552 121.161 183.623 125.112 179.999 126.357C179.253 126.612 178.493 126.735 177.743 126.735ZM103.334 126.735C100.409 126.735 97.6889 124.872 96.7344 121.942L68.7686 36.054C67.5794 32.4096 69.5751 28.4947 73.2195 27.3055C76.8638 26.1162 80.7788 28.1119 81.968 31.7563L109.939 117.644C111.128 121.288 109.132 125.203 105.488 126.393C104.773 126.627 104.049 126.735 103.339 126.735H103.334Z" fill="#78909C"/>
<path d="M45.8714 126.735C45.121 126.735 44.3656 126.612 43.6153 126.357C39.9914 125.112 38.062 121.161 39.3074 117.537L68.8044 31.6492C70.0498 28.0253 74.0004 26.0959 77.6244 27.3413C81.2483 28.5867 83.1777 32.5374 81.9323 36.1613L52.4353 122.049C51.4451 124.928 48.7552 126.735 45.8714 126.735Z" fill="#52E8CD"/>
<path d="M146.709 38.6266L144.045 46.8086L140.513 57.6345L137.364 67.3069C137.328 67.4192 137.287 67.5315 137.236 67.6438C136.664 68.9352 135.378 69.7978 133.939 69.7978H68.0898C65.6194 69.7978 63.884 67.358 64.6802 65.0152L67.9061 55.6286L71.5657 44.9762L74.5313 36.3451C74.6589 35.9571 74.863 35.5896 75.1029 35.2783C75.7818 34.4259 76.8128 33.9053 77.9408 33.9053H143.269C145.724 33.9053 147.46 36.2991 146.704 38.6266H146.709Z" fill="#1A1C21"/>
<path d="M91.6353 69.7978H79.3598L67.906 55.6286L71.5708 44.9762L91.6353 69.7978ZM115.303 69.7978H103.028L75.108 35.2783C75.7869 34.4259 76.8179 33.9053 77.9459 33.9053H86.281L115.303 69.7978ZM137.236 67.6438C136.664 68.9352 135.378 69.7978 133.939 69.7978H126.686L97.6633 33.9053H109.949L137.236 67.6438ZM144.045 46.8035L140.513 57.6345L121.331 33.9053H133.617L144.045 46.8035Z" fill="white"/>
<path d="M120.275 126.735C119.56 126.735 118.835 126.622 118.126 126.393C114.482 125.203 112.491 121.288 113.675 117.644L141.646 31.7563C142.835 28.1119 146.75 26.1213 150.394 27.3055C154.039 28.4947 156.029 32.4096 154.845 36.054L126.874 121.942C125.92 124.872 123.199 126.735 120.275 126.735Z" fill="#52E8CD"/>
<path d="M126.405 107.911H52.3332C48.5 107.911 45.3916 104.802 45.3916 100.969C45.3916 97.1358 48.5 94.0273 52.3332 94.0273H126.405C130.238 94.0273 133.347 97.1358 133.347 100.969C133.347 104.802 130.238 107.911 126.405 107.911Z" fill="#52E8CD"/>
<path d="M203.151 124.566L177.309 128.036L151.466 124.566C150.41 124.566 149.547 123.708 149.547 122.646V116.94C149.547 115.883 150.405 115.021 151.466 115.021H203.156C204.213 115.021 205.075 115.878 205.075 116.94V122.646C205.075 123.703 204.218 124.566 203.156 124.566H203.151Z" fill="#1A1C21"/>
<path d="M195.959 115.021L177.309 118.492L158.658 115.021L161.955 105.961L164.707 98.4118L167.754 90.0563L170.541 82.4204L175.436 68.9914C176.079 67.2304 178.559 67.2304 179.202 68.9914L184.097 82.4204L186.884 90.0563L189.931 98.4118L192.683 105.961L195.98 115.021H195.959Z" fill="#1A1C21"/>
<path d="M192.662 105.966C187.563 106.599 182.433 106.92 177.304 106.92C172.174 106.92 167.049 106.599 161.945 105.966L164.696 98.4169C173.088 99.3356 181.52 99.3356 189.906 98.4169L192.657 105.966H192.662ZM186.869 90.0614C183.684 90.3115 180.499 90.434 177.309 90.434C174.119 90.434 170.934 90.3115 167.749 90.0614L170.536 82.4255C175.048 82.6961 179.575 82.6961 184.087 82.4255L186.874 90.0614H186.869Z" fill="white"/>
</svg>
