<svg width="156" height="75" viewBox="0 0 156 75" fill="none" xmlns="http://www.w3.org/2000/svg">
<path d="M38.7479 3.25868C38.9799 2.95468 39.2959 2.69868 39.6959 2.49068C40.0959 2.28268 40.5479 2.17868 41.0519 2.17868C41.6279 2.17868 42.1519 2.32268 42.6239 2.61068C43.1039 2.89068 43.4799 3.28668 43.7519 3.79868C44.0239 4.31068 44.1599 4.89868 44.1599 5.56268C44.1599 6.22668 44.0239 6.82268 43.7519 7.35068C43.4799 7.87068 43.1039 8.27868 42.6239 8.57468C42.1519 8.86268 41.6279 9.00668 41.0519 9.00668C40.5479 9.00668 40.0999 8.90668 39.7079 8.70668C39.3159 8.49868 38.9959 8.24268 38.7479 7.93868V12.0427H37.3799V2.28668H38.7479V3.25868ZM42.7679 5.56268C42.7679 5.10668 42.6719 4.71468 42.4799 4.38668C42.2959 4.05068 42.0479 3.79868 41.7359 3.63068C41.4319 3.45468 41.1039 3.36668 40.7519 3.36668C40.4079 3.36668 40.0799 3.45468 39.7679 3.63068C39.4639 3.80668 39.2159 4.06268 39.0239 4.39868C38.8399 4.73468 38.7479 5.13068 38.7479 5.58668C38.7479 6.04268 38.8399 6.44268 39.0239 6.78668C39.2159 7.12268 39.4639 7.37868 39.7679 7.55468C40.0799 7.73068 40.4079 7.81868 40.7519 7.81868C41.1039 7.81868 41.4319 7.73068 41.7359 7.55468C42.0479 7.37068 42.2959 7.10668 42.4799 6.76268C42.6719 6.41868 42.7679 6.01868 42.7679 5.56268Z" fill="white"/>
<path d="M49.5807 9.00668C48.9567 9.00668 48.3927 8.86668 47.8887 8.58668C47.3847 8.29868 46.9887 7.89868 46.7007 7.38668C46.4127 6.86668 46.2687 6.26668 46.2687 5.58668C46.2687 4.91468 46.4167 4.31868 46.7127 3.79868C47.0087 3.27868 47.4127 2.87868 47.9247 2.59868C48.4367 2.31868 49.0087 2.17868 49.6407 2.17868C50.2727 2.17868 50.8447 2.31868 51.3567 2.59868C51.8687 2.87868 52.2727 3.27868 52.5687 3.79868C52.8647 4.31868 53.0127 4.91468 53.0127 5.58668C53.0127 6.25868 52.8607 6.85468 52.5567 7.37468C52.2527 7.89468 51.8367 8.29868 51.3087 8.58668C50.7887 8.86668 50.2127 9.00668 49.5807 9.00668ZM49.5807 7.81868C49.9327 7.81868 50.2607 7.73468 50.5647 7.56668C50.8767 7.39868 51.1287 7.14668 51.3207 6.81068C51.5127 6.47468 51.6087 6.06668 51.6087 5.58668C51.6087 5.10668 51.5167 4.70268 51.3327 4.37468C51.1487 4.03868 50.9047 3.78668 50.6007 3.61868C50.2967 3.45068 49.9687 3.36668 49.6167 3.36668C49.2647 3.36668 48.9367 3.45068 48.6327 3.61868C48.3367 3.78668 48.1007 4.03868 47.9247 4.37468C47.7487 4.70268 47.6607 5.10668 47.6607 5.58668C47.6607 6.29868 47.8407 6.85068 48.2007 7.24268C48.5687 7.62668 49.0287 7.81868 49.5807 7.81868Z" fill="white"/>
<path d="M64.445 2.28668L62.393 8.89868H60.953L59.621 4.01468L58.289 8.89868H56.849L54.785 2.28668H56.177L57.557 7.60268L58.961 2.28668H60.389L61.733 7.57868L63.101 2.28668H64.445Z" fill="white"/>
<path d="M72.7274 5.43068C72.7274 5.67868 72.7114 5.90268 72.6794 6.10268H67.6274C67.6674 6.63068 67.8634 7.05468 68.2154 7.37468C68.5674 7.69468 68.9994 7.85468 69.5114 7.85468C70.2474 7.85468 70.7674 7.54668 71.0714 6.93068H72.5474C72.3474 7.53868 71.9834 8.03868 71.4554 8.43068C70.9354 8.81468 70.2874 9.00668 69.5114 9.00668C68.8794 9.00668 68.3114 8.86668 67.8074 8.58668C67.3114 8.29868 66.9194 7.89868 66.6314 7.38668C66.3514 6.86668 66.2114 6.26668 66.2114 5.58668C66.2114 4.90668 66.3474 4.31068 66.6194 3.79868C66.8994 3.27868 67.2874 2.87868 67.7834 2.59868C68.2874 2.31868 68.8634 2.17868 69.5114 2.17868C70.1354 2.17868 70.6914 2.31468 71.1794 2.58668C71.6674 2.85868 72.0474 3.24268 72.3194 3.73868C72.5914 4.22668 72.7274 4.79068 72.7274 5.43068ZM71.2994 4.99868C71.2914 4.49468 71.1114 4.09068 70.7594 3.78668C70.4074 3.48268 69.9714 3.33068 69.4514 3.33068C68.9794 3.33068 68.5754 3.48268 68.2394 3.78668C67.9034 4.08268 67.7034 4.48668 67.6394 4.99868H71.2994Z" fill="white"/>
<path d="M76.6416 3.24668C76.8416 2.91068 77.1056 2.65068 77.4336 2.46668C77.7696 2.27468 78.1656 2.17868 78.6216 2.17868V3.59468H78.2736C77.7376 3.59468 77.3296 3.73068 77.0496 4.00268C76.7776 4.27468 76.6416 4.74668 76.6416 5.41868V8.89868H75.2736V2.28668H76.6416V3.24668Z" fill="white"/>
<path d="M87.1391 5.43068C87.1391 5.67868 87.1231 5.90268 87.0911 6.10268H82.0391C82.0791 6.63068 82.2751 7.05468 82.6271 7.37468C82.9791 7.69468 83.4111 7.85468 83.9231 7.85468C84.6591 7.85468 85.1791 7.54668 85.4831 6.93068H86.9591C86.7591 7.53868 86.3951 8.03868 85.8671 8.43068C85.3471 8.81468 84.6991 9.00668 83.9231 9.00668C83.2911 9.00668 82.7231 8.86668 82.2191 8.58668C81.7231 8.29868 81.3311 7.89868 81.0431 7.38668C80.7631 6.86668 80.6231 6.26668 80.6231 5.58668C80.6231 4.90668 80.7591 4.31068 81.0311 3.79868C81.3111 3.27868 81.6991 2.87868 82.1951 2.59868C82.6991 2.31868 83.2751 2.17868 83.9231 2.17868C84.5471 2.17868 85.1031 2.31468 85.5911 2.58668C86.0791 2.85868 86.4591 3.24268 86.7311 3.73868C87.0031 4.22668 87.1391 4.79068 87.1391 5.43068ZM85.7111 4.99868C85.7031 4.49468 85.5231 4.09068 85.1711 3.78668C84.8191 3.48268 84.3831 3.33068 83.8631 3.33068C83.3911 3.33068 82.9871 3.48268 82.6511 3.78668C82.3151 4.08268 82.1151 4.48668 82.0511 4.99868H85.7111Z" fill="white"/>
<path d="M89.2294 5.56268C89.2294 4.89868 89.3654 4.31068 89.6374 3.79868C89.9174 3.28668 90.2934 2.89068 90.7654 2.61068C91.2454 2.32268 91.7774 2.17868 92.3614 2.17868C92.7934 2.17868 93.2174 2.27468 93.6334 2.46668C94.0574 2.65068 94.3934 2.89868 94.6414 3.21068V0.0186768H96.0214V8.89868H94.6414V7.90268C94.4174 8.22268 94.1054 8.48668 93.7054 8.69468C93.3134 8.90268 92.8614 9.00668 92.3494 9.00668C91.7734 9.00668 91.2454 8.86268 90.7654 8.57468C90.2934 8.27868 89.9174 7.87068 89.6374 7.35068C89.3654 6.82268 89.2294 6.22668 89.2294 5.56268ZM94.6414 5.58668C94.6414 5.13068 94.5454 4.73468 94.3534 4.39868C94.1693 4.06268 93.9254 3.80668 93.6214 3.63068C93.3174 3.45468 92.9894 3.36668 92.6374 3.36668C92.2854 3.36668 91.9574 3.45468 91.6534 3.63068C91.3493 3.79868 91.1014 4.05068 90.9094 4.38668C90.7254 4.71468 90.6334 5.10668 90.6334 5.56268C90.6334 6.01868 90.7254 6.41868 90.9094 6.76268C91.1014 7.10668 91.3493 7.37068 91.6534 7.55468C91.9654 7.73068 92.2934 7.81868 92.6374 7.81868C92.9894 7.81868 93.3174 7.73068 93.6214 7.55468C93.9254 7.37868 94.1693 7.12268 94.3534 6.78668C94.5454 6.44268 94.6414 6.04268 94.6414 5.58668Z" fill="white"/>
<path d="M104.703 3.27068C104.935 2.95068 105.251 2.69068 105.651 2.49068C106.059 2.28268 106.511 2.17868 107.007 2.17868C107.591 2.17868 108.119 2.31868 108.591 2.59868C109.063 2.87868 109.435 3.27868 109.707 3.79868C109.979 4.31068 110.115 4.89868 110.115 5.56268C110.115 6.22668 109.979 6.82268 109.707 7.35068C109.435 7.87068 109.059 8.27868 108.579 8.57468C108.107 8.86268 107.583 9.00668 107.007 9.00668C106.495 9.00668 106.039 8.90668 105.639 8.70668C105.247 8.50668 104.935 8.25068 104.703 7.93868V8.89868H103.335V0.0186768H104.703V3.27068ZM108.723 5.56268C108.723 5.10668 108.627 4.71468 108.435 4.38668C108.251 4.05068 108.003 3.79868 107.691 3.63068C107.387 3.45468 107.059 3.36668 106.707 3.36668C106.363 3.36668 106.035 3.45468 105.723 3.63068C105.419 3.80668 105.171 4.06268 104.979 4.39868C104.795 4.73468 104.703 5.13068 104.703 5.58668C104.703 6.04268 104.795 6.44268 104.979 6.78668C105.171 7.12268 105.419 7.37868 105.723 7.55468C106.035 7.73068 106.363 7.81868 106.707 7.81868C107.059 7.81868 107.387 7.73068 107.691 7.55468C108.003 7.37068 108.251 7.10668 108.435 6.76268C108.627 6.41868 108.723 6.01868 108.723 5.56268Z" fill="white"/>
<path d="M118.62 2.28668L114.564 12.0067H113.148L114.492 8.79068L111.888 2.28668H113.412L115.272 7.32668L117.204 2.28668H118.62Z" fill="white"/>
<g clip-path="url(#clip0_1059_4442)">
<mask id="mask0_1059_4442" style="mask-type:luminance" maskUnits="userSpaceOnUse" x="0" y="26" width="58" height="49">
<path d="M0.894104 26.0427H57.6548V74.9139H0.894104V26.0427Z" fill="white"/>
</mask>
<g mask="url(#mask0_1059_4442)">
<path d="M42.2038 26.0428C39.3868 26.0428 36.3103 27.4901 33.0605 30.3433C31.5216 31.6948 30.1874 33.141 29.1863 34.3012C29.188 34.3032 29.1898 34.3049 29.1915 34.3076C29.1929 34.3057 29.1944 34.304 29.1959 34.3023C29.1959 34.3023 30.7751 36.0248 32.513 37.8688C33.4486 36.7551 34.8001 35.235 36.3541 33.8714C39.243 31.3341 41.1299 30.8022 42.2038 30.8022C46.2559 30.8022 49.5522 34.0222 49.5522 37.9795C49.5522 41.9148 46.2541 45.1322 42.1985 45.1567C42.0138 45.1567 41.7762 45.1339 41.4836 45.0691C42.6653 45.5814 43.9355 45.9501 45.1452 45.9501C52.5723 45.9501 54.0238 41.0941 54.1228 40.7502C54.3467 39.8439 54.4596 38.9138 54.4592 37.9803C54.4584 31.3972 48.9609 26.0428 42.2038 26.0428Z" fill="url(#paint0_linear_1059_4442)"/>
<path d="M16.2579 49.9144C19.0749 49.9144 22.1514 48.4671 25.4012 45.6139C26.9401 44.2624 28.2743 42.816 29.2754 41.656C29.2734 41.6541 29.2717 41.652 29.2701 41.6497C29.2675 41.6532 29.2658 41.6549 29.2658 41.6549C29.2658 41.6549 27.6865 39.9324 25.9487 38.0884C25.0131 39.202 23.6616 40.722 22.1076 42.0858C19.2187 44.6234 17.3318 45.1553 16.2579 45.1553C12.2058 45.1553 8.90972 41.9352 8.90972 37.978C8.90972 34.0427 12.2075 30.8253 16.2632 30.8007C16.4479 30.8007 16.6855 30.8235 16.9778 30.8884C15.7964 30.376 14.5262 30.0074 13.3165 30.0074C5.88935 30.0074 4.4379 34.8632 4.33884 35.2072C4.11499 36.1135 4.00203 37.0436 4.00244 37.9771C4.00332 44.5603 9.501 49.9146 16.2579 49.9146V49.9144Z" fill="url(#paint1_linear_1059_4442)"/>
<path d="M45.1312 45.8289C41.3287 45.7351 37.3765 42.7309 36.5696 41.984C34.4868 40.0542 29.6794 34.8287 29.3018 34.4189C25.7778 30.466 21.0031 26.0428 16.258 26.0428H16.2458C10.4776 26.0718 5.62998 29.9852 4.3407 35.2087C4.43976 34.8646 6.33433 29.9166 13.3122 30.0886C17.1147 30.1826 21.0862 33.2269 21.892 33.974C23.9753 35.9039 28.7842 41.1302 29.16 41.54C32.684 45.492 37.4587 49.9143 42.2038 49.9143H42.2161C47.9842 49.8854 52.8318 45.972 54.1211 40.7485C54.0229 41.0925 52.1091 46.0009 45.1312 45.8289Z" fill="#29ABE2"/>
<path d="M2.51681 63.2989C2.55998 63.2989 2.60273 63.2904 2.64261 63.2739C2.68249 63.2574 2.71873 63.2332 2.74926 63.2026C2.77978 63.1721 2.804 63.1359 2.82052 63.096C2.83704 63.0561 2.84554 63.0134 2.84554 62.9702V57.4125C2.84554 57.3253 2.81091 57.2417 2.74926 57.18C2.68761 57.1184 2.604 57.0837 2.51681 57.0837H1.94701C1.85983 57.0837 1.77621 57.1184 1.71457 57.18C1.65292 57.2417 1.61828 57.3253 1.61828 57.4125V62.9702C1.61828 63.0574 1.65292 63.141 1.71457 63.2026C1.77621 63.2643 1.85983 63.2989 1.94701 63.2989H2.51681ZM11.2889 63.2989C11.376 63.2989 11.4597 63.2643 11.5213 63.2026C11.5829 63.141 11.6176 63.0574 11.6176 62.9702V57.4125C11.6176 57.3253 11.5829 57.2417 11.5213 57.18C11.4597 57.1184 11.376 57.0837 11.2889 57.0837H10.7366C10.6494 57.0837 10.5658 57.1184 10.5041 57.18C10.4425 57.2417 10.4079 57.3253 10.4079 57.4125V61.1951L7.95071 57.2886C7.91124 57.2259 7.8565 57.1742 7.79162 57.1384C7.72673 57.1025 7.65381 57.0837 7.57969 57.0837H6.64281C6.55562 57.0837 6.47201 57.1184 6.41036 57.18C6.34871 57.2417 6.31408 57.3253 6.31408 57.4125V62.9702C6.31408 63.0574 6.34871 63.141 6.41036 63.2026C6.47201 63.2643 6.55562 63.2989 6.64281 63.2989H7.19507C7.28226 63.2989 7.36587 63.2643 7.42752 63.2026C7.48917 63.141 7.5238 63.0574 7.5238 62.9702V58.8896L10.2172 63.0969C10.2568 63.1588 10.3114 63.2097 10.3759 63.245C10.4404 63.2804 10.5127 63.2989 10.5862 63.2989H11.2889ZM19.3226 58.2321C19.4098 58.2321 19.4934 58.1975 19.555 58.1358C19.6167 58.0742 19.6513 57.9906 19.6513 57.9034V57.4125C19.6513 57.3253 19.6167 57.2417 19.555 57.18C19.4934 57.1184 19.4098 57.0837 19.3226 57.0837H14.8343C14.7471 57.0837 14.6635 57.1184 14.6019 57.18C14.5402 57.2417 14.5056 57.3253 14.5056 57.4125V57.9034C14.5056 57.9906 14.5402 58.0742 14.6019 58.1358C14.6635 58.1975 14.7471 58.2321 14.8343 58.2321H16.4692V62.9702C16.4692 63.0574 16.5038 63.141 16.5655 63.2026C16.6271 63.2643 16.7107 63.2989 16.7979 63.2989H17.359C17.4461 63.2989 17.5298 63.2643 17.5914 63.2026C17.6531 63.141 17.6877 63.0574 17.6877 62.9702V58.2321H19.3226ZM26.1003 63.2989C26.1875 63.2989 26.2711 63.2643 26.3328 63.2026C26.3944 63.141 26.429 63.0574 26.429 62.9702V62.4881C26.429 62.4009 26.3944 62.3173 26.3328 62.2556C26.2711 62.194 26.1875 62.1593 26.1003 62.1593H23.7466V60.7217H25.8461C25.9333 60.7217 26.0169 60.687 26.0786 60.6254C26.1402 60.5638 26.1748 60.4801 26.1748 60.393V59.9722C26.1748 59.885 26.1402 59.8014 26.0786 59.7397C26.0169 59.6781 25.9333 59.6435 25.8461 59.6435H23.7466V58.2233H26.1003C26.1875 58.2233 26.2711 58.1887 26.3328 58.1271C26.3944 58.0654 26.429 57.9818 26.429 57.8946V57.4125C26.429 57.3253 26.3944 57.2417 26.3328 57.18C26.2711 57.1184 26.1875 57.0837 26.1003 57.0837H22.8656C22.7784 57.0837 22.6948 57.1184 22.6332 57.18C22.5715 57.2417 22.5369 57.3253 22.5369 57.4125V62.9702C22.5369 63.0574 22.5715 63.141 22.6332 63.2026C22.6948 63.2643 22.7784 63.2989 22.8656 63.2989H26.1003ZM32.6061 63.1192C32.6336 63.1733 32.6755 63.2187 32.7272 63.2504C32.779 63.2821 32.8384 63.2989 32.8991 63.2989H33.5042C33.5607 63.2989 33.6163 63.2843 33.6656 63.2565C33.7148 63.2287 33.7561 63.1887 33.7853 63.1403C33.8146 63.0919 33.8309 63.0368 33.8326 62.9803C33.8343 62.9238 33.8215 62.8678 33.7952 62.8177L32.7152 60.7567C33.5305 60.5201 34.0389 59.8626 34.0389 58.9948C34.0389 57.9165 33.2675 57.0837 32.0578 57.0837H29.9583C29.8711 57.0837 29.7875 57.1184 29.7258 57.18C29.6642 57.2417 29.6296 57.3253 29.6296 57.4125V62.9702C29.6296 63.0574 29.6642 63.141 29.7258 63.2026C29.7875 63.2643 29.8711 63.2989 29.9583 63.2989H30.5193C30.6065 63.2989 30.6901 63.2643 30.7518 63.2026C30.8134 63.141 30.8481 63.0574 30.8481 62.9702V60.9058H31.4792L32.6061 63.1192ZM30.8481 59.8626V58.1357H31.8299C32.4435 58.1357 32.8029 58.4776 32.8029 59.0035C32.8029 59.512 32.4435 59.8626 31.8299 59.8626H30.8481ZM42.1421 63.2989C42.2293 63.2989 42.3129 63.2643 42.3746 63.2026C42.4362 63.141 42.4708 63.0574 42.4708 62.9702V57.4125C42.4708 57.3253 42.4362 57.2417 42.3746 57.18C42.3129 57.1184 42.2293 57.0837 42.1421 57.0837H41.5898C41.5027 57.0837 41.419 57.1184 41.3574 57.18C41.2957 57.2417 41.2611 57.3253 41.2611 57.4125V61.1951L38.804 57.2886C38.7645 57.2259 38.7098 57.1742 38.6449 57.1384C38.58 57.1025 38.5071 57.0837 38.4329 57.0837H37.4961C37.4089 57.0837 37.3253 57.1184 37.2636 57.18C37.202 57.2417 37.1673 57.3253 37.1673 57.4125V62.9702C37.1673 63.0574 37.202 63.141 37.2636 63.2026C37.3253 63.2643 37.4089 63.2989 37.4961 63.2989H38.0483C38.1355 63.2989 38.2191 63.2643 38.2808 63.2026C38.3424 63.141 38.3771 63.0574 38.3771 62.9702V58.8896L41.0705 63.0969C41.1101 63.1588 41.1647 63.2098 41.2291 63.2451C41.2936 63.2804 41.366 63.2989 41.4395 63.2989H42.1421ZM49.5098 63.2989C49.597 63.2989 49.6806 63.2643 49.7423 63.2026C49.8039 63.141 49.8386 63.0574 49.8386 62.9702V62.4881C49.8386 62.4009 49.8039 62.3173 49.7423 62.2556C49.6806 62.194 49.597 62.1593 49.5098 62.1593H47.1561V60.7217H49.2556C49.3428 60.7217 49.4264 60.687 49.488 60.6254C49.5497 60.5638 49.5843 60.4801 49.5843 60.393V59.9722C49.5843 59.885 49.5497 59.8014 49.488 59.7397C49.4264 59.6781 49.3428 59.6435 49.2556 59.6435H47.1561V58.2233H49.5098C49.597 58.2233 49.6806 58.1887 49.7423 58.1271C49.8039 58.0654 49.8386 57.9818 49.8386 57.8946V57.4125C49.8386 57.3253 49.8039 57.2417 49.7423 57.18C49.6806 57.1184 49.597 57.0837 49.5098 57.0837H46.2751C46.1879 57.0837 46.1043 57.1184 46.0427 57.18C45.981 57.2417 45.9464 57.3253 45.9464 57.4125V62.9702C45.9464 63.0574 45.981 63.141 46.0427 63.2026C46.1043 63.2643 46.1879 63.2989 46.2751 63.2989H49.5098ZM57.2687 58.2321C57.3559 58.2321 57.4395 58.1975 57.5012 58.1358C57.5628 58.0742 57.5975 57.9906 57.5975 57.9034V57.4125C57.5975 57.3253 57.5628 57.2417 57.5012 57.18C57.4395 57.1184 57.3559 57.0837 57.2687 57.0837H52.7805C52.6933 57.0837 52.6097 57.1184 52.548 57.18C52.4864 57.2417 52.4517 57.3253 52.4517 57.4125V57.9034C52.4517 57.9906 52.4864 58.0742 52.548 58.1358C52.6097 58.1975 52.6933 58.2321 52.7805 58.2321H54.4153V62.9702C54.4153 63.0574 54.45 63.141 54.5116 63.2026C54.5733 63.2643 54.6569 63.2989 54.7441 63.2989H55.3051C55.3923 63.2989 55.4759 63.2643 55.5376 63.2026C55.5992 63.141 55.6338 63.0574 55.6338 62.9702V58.2321H57.2687ZM4.07609 74.8264C5.64215 74.8264 6.52315 73.8937 6.85802 73.0116C6.92026 72.8479 6.81988 72.6739 6.65223 72.6232L6.13941 72.4683C5.96409 72.4153 5.78154 72.5176 5.69979 72.6817C5.45631 73.1716 4.95116 73.643 4.07609 73.643C3.07675 73.643 2.14754 72.9154 2.14754 71.5917C2.14754 70.1803 3.12934 69.5141 4.05855 69.5141C4.93955 69.5141 5.42278 69.9533 5.65136 70.4391C5.73179 70.6105 5.92048 70.7194 6.10106 70.6627L6.61432 70.5007C6.77934 70.4486 6.87774 70.2768 6.81769 70.1144C6.48239 69.2058 5.60994 68.3482 4.05855 68.3482C2.39299 68.3482 0.893982 69.6105 0.893982 71.5917C0.893982 73.5728 2.34039 74.8264 4.07609 74.8264ZM9.91301 71.5829C9.91301 70.1803 10.8948 69.5141 11.8503 69.5141C12.8146 69.5141 13.7964 70.1803 13.7964 71.5829C13.7964 72.9855 12.8146 73.6517 11.8503 73.6517C10.8948 73.6517 9.91301 72.9855 9.91301 71.5829ZM8.65945 71.5917C8.65945 73.5904 10.1672 74.8264 11.8503 74.8264C13.5422 74.8264 15.05 73.5904 15.05 71.5917C15.05 69.5842 13.5422 68.3482 11.8503 68.3482C10.1672 68.3482 8.65945 69.5842 8.65945 71.5917ZM23.8779 74.6949C23.9651 74.6949 24.0487 74.6603 24.1103 74.5986C24.172 74.537 24.2066 74.4533 24.2066 74.3662V68.918C24.2066 68.8018 24.1604 68.6903 24.0782 68.6081C23.996 68.5259 23.8846 68.4797 23.7683 68.4797H22.8536C22.7664 68.4797 22.6812 68.5058 22.6089 68.5544C22.5366 68.6031 22.4805 68.6722 22.4477 68.753L20.7352 72.968L18.9805 68.7497C18.9472 68.6697 18.891 68.6014 18.819 68.5534C18.747 68.5053 18.6623 68.4797 18.5757 68.4797H17.7109C17.5947 68.4797 17.4832 68.5259 17.401 68.6081C17.3188 68.6903 17.2726 68.8018 17.2726 68.918V74.3662C17.2726 74.4533 17.3072 74.537 17.3689 74.5986C17.4305 74.6603 17.5142 74.6949 17.6013 74.6949H18.101C18.1882 74.6949 18.2718 74.6603 18.3335 74.5986C18.3951 74.537 18.4297 74.4533 18.4297 74.3662V70.3732L20.1341 74.4917C20.1589 74.5518 20.2011 74.6032 20.2551 74.6394C20.3092 74.6756 20.3728 74.6949 20.4378 74.6949H21.0057C21.0709 74.6949 21.1346 74.6755 21.1888 74.6392C21.243 74.6028 21.2851 74.5512 21.3099 74.4909L23.0144 70.3381V74.3662C23.0144 74.4533 23.0491 74.537 23.1107 74.5986C23.1724 74.6603 23.256 74.6949 23.3432 74.6949H23.8779ZM28.0201 71.3112V69.5316H28.9756C29.5805 69.5316 29.9486 69.8735 29.9486 70.4258C29.9486 70.9605 29.5805 71.3112 28.9756 71.3112H28.0201ZM29.1249 72.3543C30.3521 72.3543 31.1671 71.5478 31.1671 70.417C31.1671 69.295 30.3521 68.4797 29.1249 68.4797H27.1303C27.0432 68.4797 26.9595 68.5143 26.8979 68.576C26.8362 68.6376 26.8016 68.7212 26.8016 68.8084V74.3662C26.8016 74.4533 26.8362 74.537 26.8979 74.5986C26.9595 74.6603 27.0432 74.6949 27.1303 74.6949H27.6828C27.77 74.6949 27.8536 74.6603 27.9153 74.5986C27.9769 74.537 28.0116 74.4533 28.0116 74.3662V72.3543H29.1249ZM35.5807 74.8351C36.9131 74.8351 37.9738 74.0199 37.9738 72.4946V68.8084C37.9738 68.7212 37.9392 68.6376 37.8775 68.576C37.8159 68.5143 37.7323 68.4797 37.6451 68.4797H37.0928C37.0056 68.4797 36.922 68.5143 36.8604 68.576C36.7987 68.6376 36.7641 68.7212 36.7641 68.8084V72.4069C36.7641 73.2222 36.317 73.6517 35.5807 73.6517C34.8618 73.6517 34.406 73.2222 34.406 72.4069V68.8084C34.406 68.7212 34.3714 68.6376 34.3097 68.576C34.2481 68.5143 34.1645 68.4797 34.0773 68.4797H33.525C33.4378 68.4797 33.3542 68.5143 33.2926 68.576C33.2309 68.6376 33.1963 68.7212 33.1963 68.8084V72.4946C33.1963 74.0199 34.257 74.8351 35.5807 74.8351ZM44.7476 69.6281C44.8348 69.6281 44.9184 69.5934 44.9801 69.5318C45.0417 69.4701 45.0764 69.3865 45.0764 69.2993V68.8084C45.0764 68.7212 45.0417 68.6376 44.9801 68.576C44.9184 68.5143 44.8348 68.4797 44.7476 68.4797H40.2594C40.1722 68.4797 40.0886 68.5143 40.0269 68.576C39.9653 68.6376 39.9306 68.7212 39.9306 68.8084V69.2993C39.9306 69.3865 39.9653 69.4701 40.0269 69.5318C40.0886 69.5934 40.1722 69.6281 40.2594 69.6281H41.8942V74.3662C41.8942 74.4533 41.9289 74.537 41.9905 74.5986C42.0522 74.6603 42.1358 74.6949 42.223 74.6949H42.784C42.8712 74.6949 42.9548 74.6603 43.0165 74.5986C43.0781 74.537 43.1127 74.4533 43.1127 74.3662V69.6281H44.7476ZM50.6485 74.6949C50.7357 74.6949 50.8193 74.6603 50.881 74.5986C50.9426 74.537 50.9773 74.4533 50.9773 74.3662V73.884C50.9773 73.7968 50.9426 73.7132 50.881 73.6516C50.8193 73.5899 50.7357 73.5553 50.6485 73.5553H48.2948V72.1176H50.3943C50.4815 72.1176 50.5651 72.083 50.6268 72.0214C50.6884 71.9597 50.7231 71.8761 50.7231 71.7889V71.3681C50.7231 71.281 50.6884 71.1973 50.6268 71.1357C50.5651 71.074 50.4815 71.0394 50.3943 71.0394H48.2948V69.6193H50.6485C50.7357 69.6193 50.8193 69.5847 50.881 69.523C50.9426 69.4614 50.9773 69.3778 50.9773 69.2906V68.8084C50.9773 68.7212 50.9426 68.6376 50.881 68.576C50.8193 68.5143 50.7357 68.4797 50.6485 68.4797H47.4138C47.3267 68.4797 47.243 68.5143 47.1814 68.576C47.1197 68.6376 47.0851 68.7212 47.0851 68.8084V74.3662C47.0851 74.4533 47.1197 74.537 47.1814 74.5986C47.243 74.6603 47.3267 74.6949 47.4138 74.6949H50.6485ZM56.2777 74.5152C56.3052 74.5693 56.3471 74.6147 56.3989 74.6464C56.4506 74.6781 56.5101 74.6949 56.5707 74.6949H57.1758C57.2323 74.6949 57.2879 74.6802 57.3372 74.6525C57.3864 74.6247 57.4277 74.5847 57.4569 74.5363C57.4862 74.4879 57.5025 74.4328 57.5042 74.3762C57.5059 74.3197 57.4931 74.2637 57.4668 74.2136L56.3868 72.1527C57.2021 71.916 57.7105 71.2586 57.7105 70.3907C57.7105 69.3125 56.9391 68.4797 55.7294 68.4797H53.3012V74.3662C53.3012 74.4533 53.3358 74.537 53.3975 74.5986C53.4591 74.6603 53.5427 74.6949 53.6299 74.6949H54.1909C54.2781 74.6949 54.3617 74.6603 54.4234 74.5986C54.485 74.537 54.5197 74.4533 54.5197 74.3662V72.3017H55.1508L56.2777 74.5152ZM54.5197 71.2586V69.5316H55.5015C56.1151 69.5316 56.4745 69.8735 56.4745 70.3995C56.4745 70.9079 56.1151 71.2586 55.5015 71.2586H54.5197Z" fill="white"/>
</g>
</g>
<g clip-path="url(#clip1_1059_4442)">
<path d="M83.1531 66.4764H85.2611L83.0123 74.7038H80.7421L79.2831 69.1312L77.9665 74.7038H75.7369L73.4882 66.4764H75.5961L76.8721 72.9197L78.4118 66.4764H80.2753L81.8765 72.9197L83.1531 66.4764ZM92.718 72.6975V74.2572C92.4335 74.4194 91.9882 74.5617 91.3999 74.6832C90.8117 74.8047 90.184 74.8661 89.5364 74.8661C88.2197 74.8661 87.2876 74.5215 86.7207 73.8526C86.1332 73.1835 85.8494 72.0891 85.8494 70.5495C85.8494 69.0712 86.1525 67.9975 86.7608 67.3284C87.3483 66.6386 88.3005 66.2948 89.5978 66.2948C90.8738 66.2948 91.7452 66.558 92.2713 67.0848C92.7988 67.6115 93.0611 68.5028 93.0611 69.7803C93.0611 70.0032 93.0611 70.2256 93.0418 70.4085C93.0418 70.6108 93.0011 70.8739 92.9803 71.2184H87.813C87.813 71.9082 87.9752 72.3943 88.2597 72.6773C88.5628 72.9604 89.0903 73.0834 89.8402 73.0834C90.3469 73.0834 90.8524 73.0627 91.3999 72.9812C91.9274 72.9004 92.3727 72.7982 92.718 72.6975ZM89.5971 67.9968C88.9281 67.9968 88.462 68.1184 88.1982 68.3813C87.9345 68.6644 87.813 69.1312 87.813 69.8397H91.299V69.4964C91.2784 68.9282 91.1569 68.5236 90.9137 68.3207C90.6707 68.0976 90.224 67.9968 89.5971 67.9968ZM96.445 74.8661C95.595 74.8661 94.9862 74.6423 94.5816 74.2377C94.1962 73.8117 93.9939 73.1641 93.9939 72.2721C93.9939 71.3606 94.237 70.7117 94.7031 70.3472C95.169 69.9625 95.9789 69.7803 97.1548 69.7803C97.4593 69.7803 97.8024 69.7996 98.1277 69.821C98.4708 69.8618 98.7545 69.9018 98.9991 69.9625V69.2534C98.9991 68.8282 98.8568 68.5037 98.593 68.3005C98.3307 68.0982 97.9046 67.9975 97.3378 67.9975C96.8103 67.9975 96.3449 68.0168 95.939 68.0575C95.5344 68.0982 95.1491 68.1383 94.7845 68.2198V66.5987C95.2106 66.4978 95.6559 66.4363 96.1627 66.3756C96.6488 66.3349 97.2362 66.2948 97.9053 66.2948C98.919 66.2948 99.6881 66.5385 100.174 67.004C100.681 67.45 100.925 68.1591 100.925 69.0712V74.7045H99.1412L99.0606 73.9748H99.0411C98.6753 74.2386 98.2707 74.4608 97.8046 74.6239C97.3371 74.7846 96.8903 74.8661 96.445 74.8661ZM97.3778 71.1577C96.7688 71.1577 96.3642 71.2177 96.1413 71.36C95.9189 71.5008 95.8175 71.7646 95.8175 72.1499C95.8175 72.5351 95.8982 72.7975 96.0811 72.9598C96.2628 73.1235 96.5879 73.2041 97.0333 73.2041C97.3571 73.2041 97.7023 73.1634 98.0469 73.062C98.4115 72.9812 98.7353 72.8597 98.9991 72.7174V71.2991C98.7353 71.2391 98.4715 71.2185 98.2092 71.1984C97.9447 71.177 97.6616 71.1577 97.3778 71.1577ZM107.791 66.4764H109.899L106.901 74.7038H104.692L101.672 66.4764H103.8L105.806 72.9405L107.791 66.4764ZM117.173 72.6975V74.2572C116.89 74.4194 116.464 74.5617 115.856 74.6832C115.269 74.8047 114.661 74.8661 114.012 74.8661C112.695 74.8661 111.743 74.5215 111.175 73.8526C110.608 73.1835 110.325 72.0891 110.325 70.5495C110.325 69.0712 110.628 67.9975 111.216 67.3284C111.825 66.6386 112.777 66.2948 114.074 66.2948C115.329 66.2948 116.221 66.558 116.747 67.0848C117.275 67.6115 117.518 68.5028 117.518 69.7803C117.518 70.0032 117.518 70.2256 117.518 70.4085C117.497 70.6108 117.477 70.8739 117.437 71.2184H112.269C112.289 71.9082 112.432 72.3943 112.736 72.6773C113.019 72.9604 113.545 73.0834 114.316 73.0834C114.802 73.0834 115.328 73.0627 115.856 72.9812C116.383 72.9004 116.829 72.7982 117.173 72.6975ZM114.074 67.9968C113.405 67.9968 112.919 68.1184 112.656 68.3813C112.413 68.6644 112.271 69.1312 112.271 69.8397H115.756V69.4964C115.756 68.9282 115.615 68.5236 115.37 68.3207C115.127 68.0976 114.702 67.9968 114.074 67.9968ZM124.935 72.6167V74.2377C124.651 74.4194 124.205 74.5617 123.638 74.6832C123.071 74.8047 122.483 74.8661 121.855 74.8661C120.679 74.8661 119.849 74.5409 119.383 73.9139C118.896 73.2856 118.653 72.1705 118.653 70.5701C118.653 69.009 118.977 67.8953 119.585 67.2669C120.213 66.6193 121.268 66.2948 122.787 66.2948C123.152 66.2948 123.476 66.3148 123.781 66.3356C124.064 66.3555 124.388 66.3763 124.712 66.4163V68.1383C124.286 68.0976 123.902 68.0783 123.577 68.0575C123.253 68.0575 122.991 68.0382 122.787 68.0382C121.876 68.0382 121.268 68.2005 121.004 68.5243C120.742 68.8481 120.6 69.538 120.6 70.5707C120.6 71.5844 120.701 72.252 120.924 72.5773C121.147 72.9011 121.593 73.0633 122.282 73.0633C122.727 73.0633 123.213 73.0226 123.699 72.9418C124.164 72.8597 124.589 72.7382 124.935 72.6167ZM128.176 74.7038H126.231V63.6201H128.176V67.0848C128.642 66.8417 129.109 66.6386 129.574 66.4978C130.04 66.3756 130.485 66.2948 130.911 66.2948C131.844 66.2948 132.532 66.5385 132.998 66.9839C133.464 67.4292 133.688 68.0982 133.688 69.0097V74.7045H131.763V69.2534C131.763 68.8282 131.642 68.5236 131.419 68.3213C131.175 68.1383 130.811 68.0382 130.324 68.0382C129.981 68.0382 129.615 68.079 129.231 68.1598C128.865 68.2405 128.501 68.3413 128.177 68.4636V74.7038H128.176ZM137.396 74.8661C136.544 74.8661 135.916 74.6423 135.531 74.2377C135.126 73.8117 134.943 73.1641 134.943 72.2721C134.943 71.3606 135.167 70.7117 135.652 70.3472C136.118 69.9625 136.93 69.7803 138.084 69.7803C138.408 69.7803 138.732 69.7996 139.077 69.821C139.401 69.8618 139.705 69.9018 139.948 69.9625V69.2534C139.948 68.8282 139.807 68.5037 139.544 68.3005C139.28 68.0982 138.854 67.9975 138.268 67.9975C137.761 67.9975 137.295 68.0168 136.89 68.0575C136.484 68.0982 136.1 68.1383 135.714 68.2198V66.5987C136.14 66.4978 136.604 66.4363 137.092 66.3756C137.599 66.3349 138.186 66.2948 138.854 66.2948C139.868 66.2948 140.617 66.5385 141.124 67.004C141.631 67.45 141.874 68.1591 141.874 69.0712V74.7045H140.091L140.011 73.9748H139.97C139.625 74.2386 139.22 74.4608 138.754 74.6239C138.287 74.7846 137.842 74.8661 137.396 74.8661ZM138.327 71.1577C137.72 71.1577 137.314 71.2177 137.091 71.36C136.868 71.5008 136.747 71.7646 136.747 72.1499C136.747 72.5351 136.849 72.7975 137.03 72.9598C137.213 73.1235 137.537 73.2041 137.982 73.2041C138.286 73.2041 138.631 73.1634 138.995 73.062C139.36 72.9812 139.685 72.8597 139.948 72.7174V71.2991C139.685 71.2391 139.4 71.2185 139.158 71.1984C138.895 71.177 138.611 71.1577 138.327 71.1577ZM145.642 65.3013H143.597V63.6201H145.642V65.3013ZM145.601 74.7038H143.656V66.4764H145.601V74.7038ZM149.35 74.7038H147.404V66.4764H149.087L149.168 67.307H149.209C149.613 66.9632 150.019 66.6994 150.465 66.5379C150.93 66.375 151.458 66.2942 152.065 66.2942C152.976 66.2942 153.666 66.5379 154.152 66.9832C154.638 67.4493 154.861 68.1184 154.861 69.009V74.7038H152.936V69.2527C152.936 68.8474 152.796 68.5436 152.553 68.3406C152.289 68.1383 151.904 68.0376 151.377 68.0376C151.012 68.0376 150.668 68.0783 150.322 68.1784C149.978 68.2806 149.653 68.4221 149.35 68.6044V74.7038Z" fill="white"/>
<path d="M133.92 56.2098C133.92 56.9064 133.329 57.4995 132.632 57.4995C132.502 57.4995 132.375 57.4731 132.272 57.4458C132.04 57.394 131.834 57.2666 131.679 57.0856C127.528 52.7298 122.526 49.1716 116.932 46.7214C116.235 46.4121 115.513 46.1283 114.792 45.8436C114.07 46.1283 113.347 46.4121 112.625 46.7214C107.082 49.1708 102.106 52.6779 97.955 57.0337C97.7232 57.3185 97.3621 57.4995 96.9755 57.4995C96.2534 57.4995 95.6613 56.9064 95.6613 56.2098C95.6613 47.9848 97.724 40.5346 101.075 35.1192C104.556 29.5246 109.403 26.0428 114.792 26.0428C120.205 26.0428 125.026 29.5236 128.508 35.1192C131.857 40.5346 133.92 47.9848 133.92 56.2098ZM111.027 44.6075C109.3 44.1173 107.521 43.7298 105.741 43.4725C103.807 45.7927 102.131 48.294 100.714 50.9762C103.859 48.4485 107.314 46.2829 111.027 44.6075ZM114.791 43.0868C117.059 42.2873 119.431 41.6425 121.854 41.1777C119.715 38.9084 117.343 36.8727 114.791 35.0673C112.238 36.8719 109.866 38.9084 107.725 41.1777C110.15 41.6425 112.521 42.2873 114.791 43.0868ZM124.922 40.6893C126.031 40.5592 127.166 40.4565 128.301 40.4046C127.708 38.9867 127.036 37.6723 126.288 36.4853C124.922 34.2678 123.351 32.4634 121.598 31.1226C120.051 31.8457 118.555 32.6698 117.111 33.5465C119.56 35.3256 121.803 37.3367 123.865 39.5287C124.226 39.9152 124.562 40.3019 124.922 40.6893ZM129.28 42.9577C128.48 42.9823 127.681 43.0358 126.881 43.0877C128.301 44.9441 129.589 46.9287 130.749 48.9662C130.389 46.8496 129.898 44.8386 129.28 42.9577ZM123.865 43.4479C122.061 43.7308 120.283 44.1173 118.555 44.6075C122.266 46.3094 125.748 48.4485 128.868 50.9762C127.45 48.3204 125.774 45.7927 123.865 43.4479ZM102.698 43.0868C101.899 43.035 101.126 42.9821 100.3 42.9567C99.6813 44.8377 99.1911 46.8488 98.8309 48.9644C99.9915 46.9279 101.281 44.9431 102.698 43.0868ZM104.658 40.6893C105.019 40.3019 105.355 39.9152 105.715 39.5296C107.778 37.3375 110.047 35.3266 112.471 33.5475C111.027 32.6706 109.532 31.8467 107.984 31.1236C106.231 32.465 104.658 34.2696 103.292 36.4863C102.545 37.6731 101.873 38.9875 101.281 40.4054C102.415 40.4565 103.55 40.5592 104.658 40.6893ZM114.791 31.9485C116.131 31.0709 117.523 30.2721 118.941 29.55C117.626 28.9569 116.233 28.6478 114.791 28.6478C113.372 28.6478 111.955 28.9569 110.64 29.55C112.058 30.2721 113.45 31.0709 114.791 31.9485Z" fill="#52E8CD"/>
</g>
<defs>
<linearGradient id="paint0_linear_1059_4442" x1="35.8246" y1="27.6168" x2="52.5191" y2="44.8714" gradientUnits="userSpaceOnUse">
<stop offset="0.21" stop-color="#F15A24"/>
<stop offset="0.684" stop-color="#FBB03B"/>
</linearGradient>
<linearGradient id="paint1_linear_1059_4442" x1="22.637" y1="48.3404" x2="5.9426" y2="31.0856" gradientUnits="userSpaceOnUse">
<stop offset="0.21" stop-color="#ED1E79"/>
<stop offset="0.893" stop-color="#522785"/>
</linearGradient>
<clipPath id="clip0_1059_4442">
<rect width="56.761" height="48.8712" fill="white" transform="translate(0.893555 26.0427)"/>
</clipPath>
<clipPath id="clip1_1059_4442">
<rect width="81.4519" height="48.8712" fill="white" transform="translate(73.6545 26.0427)"/>
</clipPath>
</defs>
</svg>
