<svg width="240" height="202" viewBox="0 0 240 202" fill="none" xmlns="http://www.w3.org/2000/svg">
<path fill-rule="evenodd" clip-rule="evenodd" d="M218.488 124.617C218.488 129.024 216.737 133.25 213.621 136.366C210.505 139.483 206.279 141.233 201.872 141.233H35.7157C31.3089 141.233 27.0827 139.483 23.9666 136.366C20.8506 133.25 19.1 129.024 19.1 124.617V16.6157C19.1 12.2089 20.8506 7.98264 23.9666 4.8666C27.0827 1.75056 31.3089 0 35.7157 0H201.872C206.279 0 210.505 1.75056 213.621 4.8666C216.737 7.98264 218.488 12.2089 218.488 16.6157V124.617ZM118.794 108.002C118.794 110.205 117.919 112.318 116.361 113.876C114.803 115.434 112.69 116.31 110.486 116.31H44.0236C41.8202 116.31 39.707 115.434 38.149 113.876C36.591 112.318 35.7157 110.205 35.7157 108.002V24.9235C35.7157 22.7202 36.591 20.607 38.149 19.049C39.707 17.491 41.8202 16.6157 44.0236 16.6157H110.486C112.69 16.6157 114.803 17.491 116.361 19.049C117.919 20.607 118.794 22.7202 118.794 24.9235V108.002ZM146.96 26.4795L143.193 32.7632L135.867 32.8841L139.431 26.9397C139.493 26.8359 139.581 26.7496 139.686 26.6891C139.791 26.6286 139.909 26.5958 140.03 26.5938L146.96 26.4795ZM135.867 34.3071L143.193 34.1862L147.107 40.9653L140.2 41.0796C140.073 41.0816 139.948 41.0497 139.837 40.9871C139.727 40.9246 139.635 40.8337 139.572 40.7238L135.867 34.3071ZM144.425 33.4747L148.339 40.2538L151.872 34.3616L155.545 40.7238C155.609 40.8337 155.7 40.9246 155.811 40.9871C155.921 41.0497 156.046 41.0816 156.173 41.0796L163.08 40.9653L159.166 34.1862L151.905 34.306C151.961 34.2029 151.992 34.0872 151.993 33.9692C151.994 33.8424 151.961 33.7175 151.897 33.6077L148.193 27.1916L144.425 33.4747ZM162.934 26.4795L159.166 32.7632L151.841 32.8841L155.405 26.9397C155.467 26.8359 155.555 26.7496 155.659 26.6891C155.764 26.6286 155.883 26.5958 156.004 26.5938L162.934 26.4795ZM164.313 40.2538L160.399 33.4747L164.167 27.1916L167.871 33.6077C167.934 33.7175 167.967 33.8424 167.966 33.9692C167.965 34.0872 167.935 34.2029 167.878 34.306L175.14 34.1862L179.054 40.9653L172.147 41.0796C172.02 41.0816 171.895 41.0497 171.785 40.9871C171.675 40.9246 171.583 40.8337 171.519 40.7238L167.846 34.3611L164.313 40.2538ZM175.141 32.7632L178.908 26.4795L171.978 26.5938C171.857 26.5958 171.739 26.6286 171.634 26.6891C171.529 26.7496 171.441 26.8359 171.379 26.9397L167.815 32.8841L175.141 32.7632ZM176.373 33.4747L180.287 40.2538L183.82 34.3615L187.493 40.7239C187.557 40.8337 187.648 40.9247 187.759 40.9872C187.869 41.0498 187.994 41.0817 188.121 41.0796L195.028 40.9654L191.114 34.1862L183.852 34.3061C183.909 34.2029 183.939 34.0872 183.94 33.9692C183.941 33.8424 183.908 33.7175 183.845 33.6077L180.141 27.1916L176.373 33.4747ZM194.882 26.4795L191.114 32.7633L183.789 32.8842L187.353 26.9398C187.415 26.8359 187.503 26.7497 187.608 26.6892C187.712 26.6286 187.831 26.5959 187.952 26.5939L194.882 26.4795ZM196.26 40.2538L192.346 33.4747L196.114 27.1916L199.819 33.6077C199.882 33.7176 199.915 33.8424 199.914 33.9693C199.913 34.0961 199.878 34.2204 199.813 34.3293L196.26 40.2538ZM143.193 65.9299L146.96 59.6462L140.03 59.7605C139.909 59.7625 139.791 59.7952 139.686 59.8558C139.581 59.9163 139.493 60.0025 139.431 60.1064L135.867 66.0508L143.193 65.9299ZM135.867 67.4737L143.193 67.3529L147.107 74.132L140.2 74.2462C140.073 74.2483 139.948 74.2164 139.837 74.1538C139.727 74.0913 139.635 74.0003 139.572 73.8905L135.867 67.4737ZM144.425 66.6413L148.339 73.4204L151.872 67.5283L155.545 73.8905C155.609 74.0003 155.7 74.0913 155.811 74.1538C155.921 74.2164 156.046 74.2483 156.173 74.2462L163.08 74.132L159.166 67.3529L151.905 67.4727C151.962 67.3695 151.992 67.2538 151.993 67.1359C151.994 67.009 151.961 66.8842 151.897 66.7743L148.193 60.3582L144.425 66.6413ZM162.934 59.6462L159.166 65.9299L151.841 66.0508L155.405 60.1064C155.467 60.0025 155.555 59.9163 155.659 59.8558C155.764 59.7952 155.883 59.7625 156.004 59.7605L162.934 59.6462ZM164.313 73.4204L160.399 66.6413L164.167 60.3582L167.871 66.7743C167.934 66.8842 167.967 67.009 167.966 67.1359C167.965 67.2538 167.935 67.3695 167.878 67.4727L175.14 67.3529L179.054 74.132L172.147 74.2462C172.02 74.2483 171.895 74.2164 171.785 74.1538C171.675 74.0913 171.583 74.0003 171.519 73.8905L167.846 67.5278L164.313 73.4204ZM175.141 65.9299L178.908 59.6462L171.978 59.7605C171.857 59.7625 171.739 59.7952 171.634 59.8558C171.529 59.9163 171.441 60.0025 171.379 60.1064L167.815 66.0508L175.141 65.9299ZM176.373 66.6413L180.287 73.4204L183.82 67.5282L187.493 73.8905C187.557 74.0004 187.648 74.0913 187.759 74.1539C187.869 74.2164 187.994 74.2483 188.121 74.2463L195.028 74.132L191.114 67.3529L183.852 67.4727C183.909 67.3696 183.939 67.2539 183.94 67.1359C183.941 67.009 183.908 66.8842 183.845 66.7743L180.141 60.3582L176.373 66.6413ZM194.882 59.6462L191.114 65.9299L183.789 66.0508L187.353 60.1064C187.415 60.0026 187.503 59.9163 187.608 59.8558C187.712 59.7953 187.831 59.7625 187.952 59.7606L194.882 59.6462ZM196.26 73.4205L192.346 66.6414L196.114 60.3583L199.819 66.7744C199.882 66.8843 199.915 67.0091 199.914 67.1359C199.913 67.2628 199.878 67.3871 199.813 67.4959L196.26 73.4205ZM143.193 99.0965L146.96 92.8128L140.03 92.9272C139.909 92.9291 139.791 92.9619 139.686 93.0224C139.581 93.0829 139.493 93.1692 139.431 93.273L135.867 99.2174L143.193 99.0965ZM135.867 100.64L143.193 100.52L147.107 107.299L140.2 107.413C140.073 107.415 139.948 107.383 139.837 107.32C139.727 107.258 139.635 107.167 139.572 107.057L135.867 100.64ZM144.425 99.808L148.339 106.587L151.872 100.695L155.545 107.057C155.609 107.167 155.7 107.258 155.811 107.32C155.921 107.383 156.046 107.415 156.173 107.413L163.08 107.299L159.166 100.52L151.905 100.639C151.962 100.536 151.992 100.421 151.993 100.303C151.994 100.176 151.961 100.051 151.897 99.941L148.193 93.5249L144.425 99.808ZM162.934 92.8128L159.166 99.0965L151.841 99.2174L155.405 93.273C155.467 93.1692 155.555 93.0829 155.659 93.0224C155.764 92.9619 155.883 92.9291 156.004 92.9272L162.934 92.8128ZM164.313 106.587L160.399 99.808L164.167 93.5249L167.871 99.941C167.934 100.051 167.967 100.176 167.966 100.303C167.965 100.421 167.935 100.536 167.878 100.639L175.14 100.52L179.054 107.299L172.147 107.413C172.02 107.415 171.895 107.383 171.785 107.32C171.675 107.258 171.583 107.167 171.519 107.057L167.846 100.694L164.313 106.587ZM175.141 99.0965L178.908 92.8128L171.978 92.9272C171.857 92.9291 171.739 92.9619 171.634 93.0224C171.529 93.0829 171.441 93.1692 171.379 93.273L167.815 99.2174L175.141 99.0965ZM176.373 99.808L180.287 106.587L183.82 100.695L187.493 107.057C187.557 107.167 187.648 107.258 187.759 107.321C187.869 107.383 187.994 107.415 188.121 107.413L195.028 107.299L191.114 100.52L183.852 100.639C183.909 100.536 183.939 100.421 183.94 100.303C183.941 100.176 183.908 100.051 183.845 99.941L180.141 93.5249L176.373 99.808ZM194.882 92.8129L191.114 99.0966L183.789 99.2175L187.353 93.2731C187.415 93.1693 187.503 93.083 187.608 93.0225C187.712 92.962 187.831 92.9292 187.952 92.9272L194.882 92.8129ZM196.26 106.587L192.346 99.8081L196.114 93.5249L199.819 99.9411C199.882 100.051 199.915 100.176 199.914 100.303C199.913 100.429 199.878 100.554 199.813 100.663L196.26 106.587Z" fill="url(#paint0_linear_1057_4360)"/>
<path d="M107.435 63.7331L97.5931 55.6808H57.3044L47.4628 63.7331C47.3065 63.8609 47.1936 64.034 47.1395 64.2285C47.0854 64.423 47.0928 64.6295 47.1607 64.8197C47.2285 65.0099 47.3535 65.1744 47.5186 65.2908C47.6836 65.4071 47.8805 65.4696 48.0824 65.4696H106.815C107.017 65.4696 107.214 65.4071 107.379 65.2908C107.544 65.1744 107.669 65.0099 107.737 64.8197C107.805 64.6295 107.812 64.423 107.758 64.2285C107.704 64.034 107.591 63.8609 107.435 63.7331Z" fill="url(#paint1_linear_1057_4360)"/>
<path d="M92.6213 71.3429C90.6939 71.3454 88.7995 71.8429 87.1197 72.7879C85.44 73.7329 84.0311 75.0935 83.0283 76.7394C82.9921 76.7189 82.9529 76.7022 82.9157 76.6817C82.8785 76.6611 82.8599 76.6533 82.8325 76.6386C82.5799 76.5006 82.3235 76.3704 82.0621 76.2529L82.0073 76.2304C81.7352 76.11 81.4611 75.9984 81.1811 75.9005C81.1616 75.8927 81.141 75.8878 81.1214 75.8819C80.8434 75.7841 80.5625 75.6969 80.2766 75.6235C80.2346 75.6118 80.1905 75.6049 80.1474 75.5951C79.8841 75.5295 79.6198 75.4689 79.3516 75.4228C79.2478 75.4042 79.1411 75.3964 79.0354 75.3808C78.8279 75.3514 78.6194 75.3181 78.4089 75.3005C78.0908 75.2731 77.7697 75.2584 77.4487 75.2584C77.1276 75.2584 76.8065 75.2731 76.4884 75.3005C76.2779 75.3181 76.0694 75.3514 75.8619 75.3808C75.7562 75.3964 75.6495 75.4042 75.5457 75.4228C75.2775 75.4689 75.0132 75.5295 74.7499 75.5951C74.7068 75.6049 74.6628 75.6118 74.6207 75.6235C74.3349 75.6969 74.0539 75.785 73.7759 75.8819C73.7563 75.8878 73.7358 75.8927 73.7162 75.9005C73.4363 75.9984 73.1622 76.11 72.89 76.2304L72.8352 76.2529C72.5739 76.3704 72.3174 76.5006 72.0648 76.6386C72.0374 76.6533 72.009 76.666 71.9816 76.6817C71.9542 76.6973 71.9053 76.7189 71.8691 76.7394C70.3777 74.3169 68.0212 72.552 65.277 71.8022C62.5329 71.0524 59.6063 71.3738 57.0903 72.7014C54.5743 74.0289 52.6571 76.2633 51.7271 78.9517C50.797 81.6402 50.9238 84.5816 52.0817 87.1801C53.2396 89.7785 55.342 91.8396 57.9629 92.9457C60.5838 94.0518 63.5272 94.1203 66.1967 93.1371C68.8661 92.154 71.062 90.1928 72.3394 87.651C73.6168 85.1091 73.8801 82.1767 73.076 79.448C73.1739 79.3863 73.2718 79.3217 73.3756 79.264C73.5332 79.1759 73.6937 79.0946 73.8572 79.0163C73.8973 78.9967 73.9365 78.9742 73.9766 78.9556C75.0655 78.4545 76.25 78.1951 77.4487 78.1951C78.6473 78.1951 79.8318 78.4545 80.9207 78.9556C80.9609 78.9742 81 78.9967 81.0402 79.0163C81.2036 79.0946 81.3642 79.1759 81.5218 79.264C81.6197 79.3217 81.7176 79.3863 81.8213 79.448C81.1597 81.7164 81.2287 84.1356 82.0185 86.3626C82.8083 88.5897 84.2789 90.5117 86.2219 91.8564C88.1649 93.2012 90.4818 93.9004 92.8443 93.855C95.2068 93.8096 97.4952 93.0219 99.3851 91.6036C101.275 90.1852 102.671 88.2081 103.374 85.9524C104.078 83.6966 104.054 81.2767 103.306 79.0353C102.558 76.7939 101.123 74.8449 99.2054 73.4642C97.2877 72.0836 94.9842 71.3414 92.6213 71.3429ZM62.2761 90.9204C60.6304 90.9204 59.0218 90.4325 57.6535 89.5182C56.2852 88.6039 55.2187 87.3044 54.589 85.7841C53.9592 84.2637 53.7944 82.5907 54.1155 80.9767C54.4365 79.3627 55.229 77.8802 56.3926 76.7165C57.5563 75.5529 59.0388 74.7604 60.6528 74.4394C62.2668 74.1184 63.9398 74.2831 65.4602 74.9129C66.9805 75.5426 68.28 76.6091 69.1943 77.9774C70.1085 79.3457 70.5965 80.9543 70.5965 82.6C70.5939 84.8059 69.7165 86.9207 68.1567 88.4806C66.5968 90.0404 64.482 90.9178 62.2761 90.9204ZM92.6213 90.9204C90.9756 90.9204 89.367 90.4325 87.9987 89.5182C86.6304 88.6039 85.5639 87.3044 84.9342 85.7841C84.3044 84.2637 84.1396 82.5907 84.4607 80.9767C84.7817 79.3627 85.5742 77.8802 86.7378 76.7165C87.9015 75.5529 89.384 74.7604 90.998 74.4394C92.612 74.1184 94.285 74.2831 95.8054 74.9129C97.3257 75.5426 98.6252 76.6091 99.5395 77.9774C100.454 79.3457 100.942 80.9543 100.942 82.6C100.939 84.8059 100.062 86.9207 98.5019 88.4806C96.942 90.0404 94.8272 90.9178 92.6213 90.9204Z" fill="url(#paint2_linear_1057_4360)"/>
<path d="M70.5967 53.7231H96.4821L91.949 38.6122C91.6508 37.6014 91.0323 36.7147 90.1867 36.0857C89.3411 35.4567 88.314 35.1194 87.2601 35.1245H67.6376C66.5837 35.1194 65.5566 35.4567 64.711 36.0857C63.8654 36.7147 63.2469 37.6014 62.9487 38.6122L58.4156 53.7231H66.6812V48.8288C66.6812 48.5691 66.7843 48.3202 66.9679 48.1366C67.1515 47.953 67.4005 47.8499 67.6601 47.8499H69.6178C69.8775 47.8499 70.1264 47.953 70.31 48.1366C70.4936 48.3202 70.5967 48.5691 70.5967 48.8288V53.7231Z" fill="url(#paint3_linear_1057_4360)"/>
<path d="M33 187.099V201.019H24.84V188.959L21.24 184.939H8.16V201.019H0V159.019H26.34L32.76 165.499V178.219L28.68 182.359L33 187.099ZM8.16 178.219H22.62L24.72 176.119V167.959L22.62 165.859H8.16V178.219Z" fill="white"/>
<path d="M39.5883 194.779V177.379L45.7683 171.139H62.9283L69.1083 177.379V194.779L62.9283 201.019H45.7683L39.5883 194.779ZM59.0883 194.419L61.1883 192.319V179.839L59.0883 177.739H49.6083L47.5083 179.839V192.319L49.6083 194.419H59.0883Z" fill="white"/>
<path d="M75.9961 158.179H83.9161V201.019H75.9961V158.179Z" fill="white"/>
<path d="M90.7992 194.779V177.379L96.9792 171.139H114.139L120.319 177.379V194.779L114.139 201.019H96.9792L90.7992 194.779ZM110.299 194.419L112.399 192.319V179.839L110.299 177.739H100.819L98.7192 179.839V192.319L100.819 194.419H110.299Z" fill="white"/>
<path d="M127.207 159.019H154.087L161.287 166.219V193.819L154.087 201.019H127.207V159.019ZM150.067 194.059L153.127 190.999V169.039L150.067 165.979H135.367V194.059H150.067Z" fill="white"/>
<path d="M168.516 159.019H198.876V165.919H176.676V176.539H197.136V183.319H176.676V194.119H198.876V201.019H168.516V159.019Z" fill="white"/>
<path d="M215.942 179.359L201.902 159.019H211.082L220.562 172.819L230.042 159.019H239.222L225.182 179.599L239.822 201.019H230.642L220.562 186.199L210.482 201.019H201.302L215.942 179.359Z" fill="white"/>
<defs>
<linearGradient id="paint0_linear_1057_4360" x1="0" y1="0" x2="197.928" y2="236.135" gradientUnits="userSpaceOnUse">
<stop offset="0.494792" stop-color="#52E8CD"/>
<stop offset="1" stop-color="#56E9F2"/>
</linearGradient>
<linearGradient id="paint1_linear_1057_4360" x1="0" y1="0" x2="197.928" y2="236.135" gradientUnits="userSpaceOnUse">
<stop offset="0.494792" stop-color="#52E8CD"/>
<stop offset="1" stop-color="#56E9F2"/>
</linearGradient>
<linearGradient id="paint2_linear_1057_4360" x1="0" y1="0" x2="197.928" y2="236.135" gradientUnits="userSpaceOnUse">
<stop offset="0.494792" stop-color="#52E8CD"/>
<stop offset="1" stop-color="#56E9F2"/>
</linearGradient>
<linearGradient id="paint3_linear_1057_4360" x1="0" y1="0" x2="197.928" y2="236.135" gradientUnits="userSpaceOnUse">
<stop offset="0.494792" stop-color="#52E8CD"/>
<stop offset="1" stop-color="#56E9F2"/>
</linearGradient>
</defs>
</svg>
