<svg width="108" height="108" viewBox="0 0 108 108" fill="none" xmlns="http://www.w3.org/2000/svg">
<path d="M54 107.949C83.8234 107.949 108 83.7838 108 53.9745C108 24.1652 83.8234 0 54 0C24.1766 0 0 24.1652 0 53.9745C0 83.7838 24.1766 107.949 54 107.949Z" fill="#3DBC93"/>
<path fill-rule="evenodd" clip-rule="evenodd" d="M40.64 67.5644L68.4387 67.7757V90.3403L40.64 90.1289V67.5644Z" fill="#F9DCA4"/>
<path opacity="0.11" fill-rule="evenodd" clip-rule="evenodd" d="M68.4439 67.7356V73.989C68.4393 74.6794 68.382 75.3684 68.2727 76.0501C68.1351 76.8914 67.9035 77.7146 67.5824 78.5043C58.1909 85.7778 43.2229 79.8109 40.8339 67.3862L68.4439 67.7356Z" fill="black"/>
<path fill-rule="evenodd" clip-rule="evenodd" d="M54.4004 14.7286C91.5906 14.7286 77.0962 76.3296 54.4004 76.3296C32.9646 76.3296 17.2101 14.7286 54.4004 14.7286Z" fill="#FFE8BE"/>
<path fill-rule="evenodd" clip-rule="evenodd" d="M32.0943 42.0024C26.7293 44.3413 31.2905 55.428 34.6668 55.3791C33.2663 51.0412 32.4024 46.5501 32.0943 42.0024Z" fill="#F9DCA4"/>
<path fill-rule="evenodd" clip-rule="evenodd" d="M77.1296 42.0024C82.4946 44.3413 77.9422 55.4279 74.5676 55.3773C75.9642 51.0401 76.8245 46.5484 77.1296 42.0024Z" fill="#F9DCA4"/>
<path fill-rule="evenodd" clip-rule="evenodd" d="M77.1083 42.219C77.1083 42.219 91.019 21.6335 72.5017 13.6875C70.1834 10.0017 66.7641 7.138 62.7277 5.50165C58.6914 3.86529 54.2424 3.53918 50.0103 4.56947C39.801 6.64636 36.007 11.7032 36.007 11.7032C36.007 11.7032 26.3429 20.4614 17.7623 20.6413C20.9609 22.8906 24.835 23.9746 28.7371 23.7121C27.5627 26.6467 25.3031 36.3062 32.213 42.6714C39.8464 37.6617 46.2146 27.8642 46.2146 27.8642C46.2146 27.8642 47.9307 33.5533 46.5763 36.3534C51.6075 35.3992 56.3473 33.2876 60.4207 30.1856C64.863 26.6292 67.224 22.6798 69.7003 22.6291C75.3904 22.5086 77.0628 39.6425 77.11 42.2207L77.1083 42.219Z" fill="#ECBE6A"/>
<path fill-rule="evenodd" clip-rule="evenodd" d="M93.4186 90.8695C88.3802 96.2812 82.2791 100.596 75.4965 103.543C68.714 106.491 61.3961 108.008 54.0002 108C51.761 108 49.5239 107.861 47.3017 107.586C40.4868 106.608 33.8935 104.455 27.8162 101.221C22.6845 98.3634 18.0519 94.691 14.0995 90.3473L16.3399 84.9323L40.6487 74.0815C41.7409 80.5847 54.2903 88.3612 54.2903 88.3612C54.2903 88.3612 66.8956 82.4013 68.423 74.0186L90.7518 84.99L93.4186 90.8695Z" fill="#498BD9"/>
<mask id="mask0_340_8700" style="mask-type:luminance" maskUnits="userSpaceOnUse" x="14" y="74" width="80" height="34">
<path fill-rule="evenodd" clip-rule="evenodd" d="M93.4186 90.8695C88.3802 96.2812 82.2791 100.596 75.4965 103.543C68.714 106.491 61.3961 108.008 54.0002 108C51.761 108 49.5239 107.861 47.3017 107.586C40.4868 106.608 33.8935 104.455 27.8162 101.221C22.6845 98.3634 18.0519 94.691 14.0995 90.3473L16.3399 84.9323L40.6487 74.0815C41.7409 80.5847 54.2903 88.3612 54.2903 88.3612C54.2903 88.3612 66.8956 82.4013 68.423 74.0186L90.7518 84.99L93.4186 90.8695Z" fill="white"/>
</mask>
<g mask="url(#mask0_340_8700)">
<path fill-rule="evenodd" clip-rule="evenodd" d="M24.6619 81.217L36.5699 75.9034L54.4109 100.319L72.4599 75.9733L82.8562 80.9183V115.911H24.6619V81.217Z" fill="#545F69"/>
<mask id="mask1_340_8700" style="mask-type:luminance" maskUnits="userSpaceOnUse" x="24" y="75" width="59" height="41">
<path fill-rule="evenodd" clip-rule="evenodd" d="M24.6619 81.217L36.5699 75.9034L54.4109 100.319L72.4599 75.9733L82.8562 80.9183V115.911H24.6619V81.217Z" fill="white"/>
</mask>
<g mask="url(#mask1_340_8700)">
<path fill-rule="evenodd" clip-rule="evenodd" d="M66.041 74.9025H67.3202V112.252H66.041V74.9025ZM40.2205 74.9025H41.498V112.252H40.2222V74.9025H40.2205ZM35.011 74.9025H36.2884V112.252H35.011V74.9025ZM29.8661 74.9025H31.1436V112.252H29.8678L29.8661 74.9025ZM24.6566 74.9025H25.934V112.252H24.6566V74.9025ZM60.8454 74.9025H62.1229V112.252H60.8454V74.9025ZM55.6359 74.9025H56.9134V112.252H55.6359V74.9025ZM50.491 74.9025H51.7685V112.252H50.491V74.9025ZM45.2815 74.9025H46.559V112.252H45.2815V74.9025ZM81.6049 74.9025H82.8841V112.252H81.6049V74.9025ZM76.3971 74.9025H77.6728V112.252H76.3971V74.9025ZM71.2522 74.9025H72.528V112.252H71.2522V74.9025Z" fill="#434955"/>
</g>
</g>
<path fill-rule="evenodd" clip-rule="evenodd" d="M40.6573 72.0885L54.2919 88.3612L43.2734 94.5675L34.8448 76.0676L40.6573 72.0885Z" fill="#58B0E0"/>
<path fill-rule="evenodd" clip-rule="evenodd" d="M68.4264 72.4028L54.292 88.3612L65.6827 94.5674L74.0309 75.8439L68.4264 72.4028Z" fill="#58B0E0"/>
<path fill-rule="evenodd" clip-rule="evenodd" d="M37.8122 40.4496H49.0247C49.3879 40.4495 49.7477 40.521 50.0832 40.6601C50.4188 40.7991 50.7236 41.003 50.9802 41.2601V41.2636C51.237 41.5196 51.4408 41.8237 51.58 42.1585C51.7191 42.4932 51.7909 42.8522 51.7911 43.2147V48.268C51.7902 49.0011 51.4984 49.7039 50.9798 50.2223C50.4612 50.7406 49.7581 51.0322 49.0247 51.0332H37.8122C37.4497 51.0326 37.0908 50.9605 36.7562 50.8211C36.4215 50.6818 36.1176 50.4778 35.8619 50.2209H35.8584C35.6015 49.9647 35.3976 49.6603 35.2585 49.3252C35.1193 48.9901 35.0477 48.6309 35.0475 48.268V43.2147C35.0478 42.8522 35.1195 42.4932 35.2587 42.1585C35.3978 41.8237 35.6016 41.5196 35.8584 41.2636L35.8619 41.2601C36.1178 41.0035 36.4217 40.7999 36.7564 40.6608C37.091 40.5217 37.4498 40.45 37.8122 40.4496ZM49.0247 41.9343H37.8122C37.4735 41.935 37.1488 42.0693 36.9087 42.3081L36.907 42.3116C36.6681 42.5516 36.5337 42.8762 36.533 43.2147V48.268C36.5331 48.4359 36.5663 48.6021 36.6308 48.757C36.6953 48.912 36.7897 49.0527 36.9087 49.1711C37.1485 49.4106 37.4733 49.5455 37.8122 49.5467H49.0247C49.3635 49.5453 49.6881 49.4101 49.9277 49.1706C50.1673 48.9312 50.3025 48.6067 50.3039 48.268V43.2147C50.3039 42.8755 50.1694 42.5502 49.9299 42.3099C49.8112 42.1908 49.6701 42.0963 49.5148 42.0319C49.3594 41.9674 49.1929 41.9343 49.0247 41.9343Z" fill="#464449"/>
<path fill-rule="evenodd" clip-rule="evenodd" d="M60.3754 40.4496H71.5879C71.9509 40.4497 72.3103 40.5213 72.6455 40.6604C72.9808 40.7995 73.2853 41.0033 73.5417 41.2601V41.2636C73.7988 41.5194 74.0029 41.8235 74.1424 42.1582C74.2818 42.493 74.3538 42.852 74.3543 43.2147V48.268C74.3534 49.0011 74.0616 49.7039 73.543 50.2223C73.0244 50.7406 72.3213 51.0322 71.5879 51.0332H60.3754C60.0126 51.0326 59.6535 50.9606 59.3185 50.8212C58.9836 50.6818 58.6794 50.4779 58.4234 50.2209L58.4216 50.2174C57.9029 49.701 57.6106 48.9998 57.609 48.268V43.2147C57.6096 42.8521 57.6816 42.4931 57.8211 42.1583C57.9605 41.8235 58.1646 41.5195 58.4216 41.2636L58.4251 41.2618C58.9418 40.7433 59.6433 40.4512 60.3754 40.4496ZM71.5879 41.9343H60.3754C60.2076 41.9342 60.0415 41.9671 59.8864 42.0313C59.7314 42.0954 59.5905 42.1895 59.4719 42.3081L59.4702 42.3116C59.3514 42.4301 59.2572 42.5709 59.1931 42.7259C59.1289 42.8808 59.096 43.047 59.0962 43.2147V48.268C59.0961 48.4358 59.129 48.6019 59.1932 48.7568C59.2574 48.9118 59.3515 49.0526 59.4702 49.1711L59.4719 49.1729C59.5905 49.2915 59.7314 49.3856 59.8864 49.4497C60.0415 49.5139 60.2076 49.5468 60.3754 49.5467H71.5879C71.9267 49.5453 72.2513 49.4101 72.4909 49.1706C72.7305 48.9312 72.8657 48.6067 72.8671 48.268V43.2147C72.8671 42.8755 72.7326 42.5502 72.4931 42.3099C72.3746 42.191 72.2321 42.0967 72.077 42.0322C71.922 41.9678 71.7558 41.9345 71.5879 41.9343Z" fill="#464449"/>
<path d="M51.405 42.806H58.1245V44.3361H51.405V42.806Z" fill="#464449"/>
</svg>
