<svg width="49" height="55" viewBox="0 0 49 55" fill="none" xmlns="http://www.w3.org/2000/svg">
<path fill-rule="evenodd" clip-rule="evenodd" d="M24.1676 8.46408L26.5973 4.24809C27.2552 3.10644 26.4312 1.68052 25.1136 1.68052H3.65056C3.03828 1.68052 2.47257 2.00743 2.16684 2.53792L0.231245 5.89651C-0.426703 7.03817 0.397287 8.46408 1.71496 8.46408H24.1676ZM37.2039 16.5811L32.5264 8.46465L30.3712 4.72508C29.7124 3.58187 28.0626 3.58192 27.4038 4.72518L25.4719 8.07772C25.1669 8.60702 25.1669 9.25872 25.4719 9.78802L33.2951 23.3634L37.2039 16.5811ZM11.241 17.329L4.58401 28.8805C3.9261 30.0222 4.75009 31.4481 6.06775 31.4481H9.93113C10.5435 31.4481 11.1093 31.1211 11.4151 30.5905L19.058 17.329H11.241ZM23.1777 9.40018C23.7901 9.40018 24.356 9.72717 24.6617 10.2578L32.4836 23.8321H24.506L20.6372 17.2427C20.3299 16.7193 19.7685 16.3977 19.1616 16.3973L11.6907 16.3924C11.078 16.392 10.5118 16.719 10.2058 17.2499L6.74022 23.2634L0.231035 11.9677C-0.426844 10.826 0.397152 9.40018 1.71479 9.40018H23.1777ZM19.7316 31.048C19.4172 31.5833 19.4172 32.2468 19.7314 32.7821L23.5335 39.259C23.841 39.7828 24.403 40.1045 25.0104 40.1045H32.4295L25.924 51.3934C25.2651 52.5367 23.6153 52.5366 22.9565 51.3934L12.2254 32.7709C11.9204 32.2416 11.9204 31.5899 12.2254 31.0606L19.8724 17.7916L23.6942 24.3003L19.7316 31.048ZM6.06935 32.3844C4.75172 32.3844 3.92773 33.8102 4.58559 34.9519L15.3202 53.5808C15.6259 54.1113 16.1916 54.4383 16.8039 54.4383H20.6676C21.9854 54.4383 22.8093 53.0123 22.1513 51.8706L11.4135 33.2418C11.1077 32.7113 10.542 32.3844 9.92965 32.3844H6.06935ZM24.0705 38.3226L20.584 32.3844H37.4132L39.8426 36.6005C40.5005 37.7422 39.6765 39.168 38.3588 39.168H25.5473C24.9399 39.168 24.378 38.8463 24.0705 38.3226ZM40.6474 36.125C41.3062 37.2682 42.956 37.2682 43.6148 36.125L54.3465 17.5035C54.6515 16.9743 54.6515 16.3226 54.3464 15.7934L52.417 12.4455C51.7581 11.3023 50.1084 11.3023 49.4495 12.4455L38.2251 31.922L40.6474 36.125ZM32.5749 24.7696C33.1872 24.7696 33.7529 24.4427 34.0587 23.9122L37.7905 17.4365C38.0955 16.9073 38.0955 16.2557 37.7906 15.7265L34.1459 9.40165H47.1593C48.4771 9.40165 49.301 10.8278 48.6428 11.9695L37.9062 30.5911C37.6003 31.1215 37.0346 31.4484 36.4224 31.4484H20.584L24.5055 24.7696H32.5749Z" fill="url(#paint0_linear_274_3897)"/>
<defs>
<linearGradient id="paint0_linear_274_3897" x1="-0.000244141" y1="1.68066" x2="52.7273" y2="56.2248" gradientUnits="userSpaceOnUse">
<stop offset="0.270833" stop-color="#52E8CD"/>
<stop offset="1" stop-color="#50B0F9"/>
</linearGradient>
</defs>
</svg>
