<svg width="64" height="64" viewBox="0 0 64 64" fill="none" xmlns="http://www.w3.org/2000/svg">
<path d="M10.8687 5.92421C14.8904 3.23702 19.6186 1.80273 24.4554 1.80273C30.9391 1.81007 37.1552 4.38897 41.7399 8.97365C46.1428 13.3765 48.6958 19.284 48.8978 25.4882C48.3528 25.2958 47.8011 25.13 47.2431 24.9914C47.2316 24.7882 47.2174 24.5849 47.2005 24.3817C46.8505 20.1764 45.3408 16.1507 42.8393 12.7522C41.0264 13.4597 39.1655 14.0377 37.2708 14.482C36.5021 15.3021 34.2131 17.5528 32.2355 17.5528C32.1223 17.5534 32.0092 17.5458 31.8972 17.53C29.7149 17.2235 27.6313 14.9491 27.5441 14.8529L27.3232 14.6084L27.3338 14.2823C27.3851 13.1816 27.3401 12.0786 27.1993 10.9857L26.8969 11.0672L26.8705 11.0745C26.0791 11.2922 24.9044 11.6154 23.9443 10.8463C22.9734 10.0687 22.9832 8.58258 23.0998 7.67447C22.1762 7.32313 21.0789 6.75658 20.8001 5.98868C20.6435 5.19017 20.793 4.36194 21.2191 3.66868C18.0115 4.12638 14.9391 5.26604 12.209 7.01092C13.0204 7.99898 13.6912 9.09467 14.2021 10.2667C14.9941 10.8558 15.6149 11.6454 16.0004 12.5541C16.2708 13.5041 16.3038 14.5059 16.0965 15.4717C16.4952 16.6863 17.1758 19.1449 16.5653 20.2152C15.9955 21.2122 14.3235 21.8203 13.5597 22.0534C12.8017 23.1873 11.6245 23.9737 10.2868 24.2397C10.0305 24.2472 9.77825 24.3055 9.54474 24.4113C9.31122 24.5172 9.1011 24.6684 8.92661 24.8563C8.75212 25.0441 8.61675 25.2648 8.52837 25.5055C8.44 25.7461 8.40039 26.002 8.41185 26.2581C8.41185 27.4613 9.45609 29.4993 9.98433 30.4074C10.7123 30.7816 11.9995 31.5348 12.3125 32.3174C12.5436 33.0661 12.6806 33.8408 12.7201 34.6235C13.1334 35.4036 14.4988 38.2665 13.413 40.223C12.905 40.8663 12.1995 41.3246 11.4052 41.5273L9.88162 43.8098C12.5967 46.0748 15.7827 47.6588 19.1762 48.4662C19.0244 48.9838 18.8792 49.5073 18.7407 50.0364C14.3636 48.9845 10.3549 46.7428 7.16283 43.5507C3.74268 40.1305 1.41353 35.773 0.469914 31.0291C-0.473702 26.2853 0.0105963 21.3681 1.86157 16.8994C3.71254 12.4308 6.84704 8.6114 10.8687 5.92421Z" fill="url(#paint0_linear_274_3837)"/>
<path d="M39.1728 24.9274C33.8517 26.1629 29.0616 29.8917 25.2772 35.325C25.3921 34.5439 25.1411 33.3376 24.9778 32.557C24.8894 32.1823 24.8237 31.8025 24.7813 31.4198C24.4351 30.9651 24.0407 30.5491 23.605 30.1791L23.591 30.1659C22.6791 29.3033 21.8932 28.56 21.8932 27.7336C21.8932 26.091 24.505 22.8091 25.3047 21.8415L25.4547 21.6605L25.6772 21.5871C26.5389 21.3026 28.6429 20.6619 29.5787 20.8999C30.4183 21.1856 31.2215 21.5686 31.972 22.0412C33.4378 22.1473 34.8802 22.4662 36.2542 22.9876L36.4229 23.1066L37.8519 24.4109C38.2081 24.5145 38.6731 24.6949 39.1728 24.9274Z" fill="url(#paint1_linear_274_3837)"/>
<path d="M63.9057 61.0126C63.9057 61.7742 63.2594 62.4224 62.4979 62.4224C62.3557 62.4224 62.2165 62.3936 62.1041 62.3638C61.8496 62.3071 61.6249 62.1679 61.4559 61.9701C56.9182 57.2086 51.4509 53.3192 45.3353 50.6407C44.5737 50.3027 43.7843 49.9925 42.9959 49.6813C42.2064 49.9925 41.417 50.3027 40.6276 50.6407C34.5687 53.3182 29.1292 57.152 24.5915 61.9134C24.338 62.2246 23.9433 62.4224 23.5207 62.4224C22.7313 62.4224 22.0841 61.7742 22.0841 61.0126C22.0841 52.0217 24.339 43.8779 28.0018 37.9582C31.8067 31.8426 37.105 28.0367 42.9959 28.0367C48.9136 28.0367 54.183 31.8416 57.989 37.9582C61.6508 43.8779 63.9057 52.0217 63.9057 61.0126ZM38.8807 48.3301C36.9927 47.7942 35.0479 47.3707 33.1022 47.0893C30.9885 49.6256 29.1561 52.3598 27.607 55.2918C31.0451 52.5288 34.8222 50.1615 38.8807 48.3301ZM42.9949 46.6677C45.4745 45.7938 48.0675 45.0889 50.7161 44.5808C48.3777 42.1002 45.7847 39.8751 42.9949 37.9015C40.204 39.8741 37.6111 42.1002 35.2716 44.5808C37.9223 45.0889 40.5143 45.7938 42.9949 46.6677ZM54.0697 44.0469C55.2817 43.9048 56.5225 43.7924 57.7633 43.7358C57.115 42.1857 56.3803 40.749 55.563 39.4516C54.0697 37.0276 52.3516 35.055 50.4358 33.5895C48.7446 34.38 47.109 35.2807 45.5312 36.2392C48.2077 38.1839 50.6595 40.3822 52.9144 42.7783C53.3081 43.2008 53.676 43.6234 54.0697 44.0469ZM58.8331 46.5266C57.9592 46.5534 57.0852 46.612 56.2113 46.6687C57.7633 48.6979 59.1711 50.8674 60.4388 53.0945C60.0451 50.7809 59.5092 48.5827 58.8331 46.5266ZM52.9144 47.0625C50.9418 47.3717 48.9981 47.7942 47.109 48.3301C51.1665 50.1903 54.9725 52.5288 58.3827 55.2918C56.8327 52.3886 55.0003 49.6256 52.9144 47.0625ZM29.7765 46.6677C28.9025 46.6111 28.0574 46.5534 27.1547 46.5256C26.4786 48.5816 25.9427 50.7799 25.549 53.0925C26.8176 50.8664 28.2274 48.697 29.7765 46.6677ZM31.9191 44.0469C32.3128 43.6234 32.6806 43.2008 33.0744 42.7793C35.3293 40.3831 37.8099 38.1849 40.4586 36.2402C38.8807 35.2817 37.2462 34.3809 35.554 33.5905C33.6381 35.057 31.9191 37.0296 30.4257 39.4525C29.6084 40.75 28.8747 42.1867 28.2274 43.7367C29.4673 43.7924 30.7071 43.9048 31.9191 44.0469ZM42.9949 34.4923C44.4604 33.5329 45.9816 32.6599 47.5316 31.8705C46.0939 31.2222 44.5717 30.8842 42.9949 30.8842C41.4439 30.8842 39.8948 31.2222 38.4572 31.8705C40.0072 32.6599 41.5294 33.5329 42.9949 34.4923Z" fill="url(#paint2_linear_274_3837)"/>
<defs>
<linearGradient id="paint0_linear_274_3837" x1="0" y1="1.80273" x2="60.5353" y2="65.6195" gradientUnits="userSpaceOnUse">
<stop offset="0.494792" stop-color="#52E8CD"/>
<stop offset="1" stop-color="#56E9F2"/>
</linearGradient>
<linearGradient id="paint1_linear_274_3837" x1="0" y1="1.80273" x2="60.5353" y2="65.6195" gradientUnits="userSpaceOnUse">
<stop offset="0.494792" stop-color="#52E8CD"/>
<stop offset="1" stop-color="#56E9F2"/>
</linearGradient>
<linearGradient id="paint2_linear_274_3837" x1="0" y1="1.80273" x2="60.5353" y2="65.6195" gradientUnits="userSpaceOnUse">
<stop offset="0.494792" stop-color="#52E8CD"/>
<stop offset="1" stop-color="#56E9F2"/>
</linearGradient>
</defs>
</svg>
